<svg id="Layer_1" data-name="Layer 1" xmlns="http://www.w3.org/2000/svg" viewBox="0 0 101.11 103.89"><defs><style>.cls-1{fill:#a61b1e;}</style></defs><path class="cls-1" d="M956.45,529.12a9.58,9.58,0,0,0-6.65-4.78v-1.28a32,32,0,0,0,4-.31c2.81-.34,5-1.81,5-6.72s-2.38-6.41-3.82-6.41H949.8v-1.75a21.54,21.54,0,0,0,4.75-.59,6.35,6.35,0,0,0,4.84-4.37c.31-1.22-.12-2-1-2.22a1.36,1.36,0,0,0-1.81,1.22c-.22,1.06-1.1,1.87-2.63,2.56a12.08,12.08,0,0,1-4.12.65v-4.65a1.41,1.41,0,1,0-2.82,0v4.65a12.08,12.08,0,0,1-4.12-.65,3.07,3.07,0,0,1-2.06-2.56,1.36,1.36,0,0,0-1.81-1.22c-.88.25-1.32,1-1,2.22a5.44,5.44,0,0,0,4.27,4.37,21.54,21.54,0,0,0,4.75.59v1.75s-3.54.21-5,.21-3.81,1.5-3.81,6.41,2.15,6.37,5,6.72a12.78,12.78,0,0,0,3.82.1v1.28a9.58,9.58,0,0,0-6.65,4.78,33.4,33.4,0,0,0-3.81,12.82c-.06,2.5-.22,3.56,1.22,3.56s1.78-.78,1.87-2.13a36.07,36.07,0,0,1,1.78-10.18c1.6-4.44,3.94-5,4.47-5.35a8.93,8.93,0,0,1,1.09-.53v19c0,.88.47,1.63,1.35,1.63h.12c.88,0,1.35-.75,1.35-1.63v-19a8.93,8.93,0,0,1,1.09.53c.53.32,2.22.91,3.81,5.35a35.82,35.82,0,0,1,1.79,10.18c.09,1.35.43,2.13,1.87,2.13s1.28-1.06,1.22-3.56S958.89,533.41,956.45,529.12Zm-9.34-8.94a12.39,12.39,0,0,1-3.52.08,2.56,2.56,0,0,1-2.31-2.75l5.83-.21Zm0-5.34-5.83.21a2.56,2.56,0,0,1,2.31-2.75c2.44-.19,3.52-.33,3.52-.33Zm2.62-2.87a34.56,34.56,0,0,1,3.72.12,2.57,2.57,0,0,1,2.32,2.75h-6Zm0,5.33h6a2.56,2.56,0,0,1-2.32,2.75,33.42,33.42,0,0,1-3.72.13Z" transform="translate(-909.36 -488.12)"/><path class="cls-1" d="M967.73,529.94h10.19a1.27,1.27,0,0,0,1.25-1.22A2.09,2.09,0,0,0,977,527l-9.46,0c-.66.06-2.16.78-2.1,1.72S965.86,529.94,967.73,529.94Z" transform="translate(-909.36 -488.12)"/><path class="cls-1" d="M978.08,533.72c-1.28,0-12.66.19-12.66.19-.78.06-2.09.75-2.09,1.5s.78,1.34,1.94,1.34h14a1.32,1.32,0,0,0,1.25-1.41C980.52,534.44,979.36,533.72,978.08,533.72Z" transform="translate(-909.36 -488.12)"/><path class="cls-1" d="M977.33,540.06c-1.31,0-9.1-.19-10.16.19-.8.28-1.4.66-1.4,1.22a1.3,1.3,0,0,0,1.31,1.4c1,0,10.53-.15,11.31-.15a1.07,1.07,0,0,0,1.16-1.1A2.22,2.22,0,0,0,977.33,540.06Z" transform="translate(-909.36 -488.12)"/><path class="cls-1" d="M977.83,545.59c-.88-.09-9.75,0-10.91.28-.68.17-1.28.72-1.19,1.22a1.53,1.53,0,0,0,1.72,1.22c1.25,0,10.19-.22,10.94-.22a1.06,1.06,0,0,0,1.06-1.18C979.45,546.31,978.7,545.69,977.83,545.59Z" transform="translate(-909.36 -488.12)"/><path class="cls-1" d="M977.42,550.69c-.69,0-1.65.28-1.62,1.22s0,2.56,0,2.56h-6.69v-3.13c0-.75-.84-.9-1.53-.9s-1.44.22-1.44,1.9.19,10.82.31,12.16,1.82,4.09,6.41,4.09,6-3.5,6-5.22,0-10.75-.06-11.53A1.29,1.29,0,0,0,977.42,550.69Zm-1.65,12.4c-.13,1.25-.44,2.44-2.79,2.44s-3.71-1.09-3.75-1.72-.15-6.65-.15-6.65l6.65-.07S975.89,561.84,975.77,563.09Z" transform="translate(-909.36 -488.12)"/><path class="cls-1" d="M1000.64,557.78c-.53,0-1.47.38-1.47,1.16s.35,1.59,1.31,1.59a1.38,1.38,0,0,0,.16-2.75Z" transform="translate(-909.36 -488.12)"/><path class="cls-1" d="M1010.45,534.25c-.18-6.19-1.37-12.66-7.65-22.38a47.2,47.2,0,0,0-20-17.5,78.62,78.62,0,0,0-12.69-4.5c-1.56-.37-4.16-.78-7.1-1.37a16.07,16.07,0,0,0-7.65.16,10.37,10.37,0,0,1-4.19.43c-1.31-.15-4.94.47-8.84,1.85a66.16,66.16,0,0,0-11.44,6.12,44.06,44.06,0,0,0-7.44,6.41,74,74,0,0,0-6.53,8.62,29.75,29.75,0,0,1-2.16,3.69c-.56.66-1,1.66-2.25,5.59s-2.21,8.16-2.43,9.19,0,1.94-.28,2.81a62,62,0,0,0-.41,7.07c0,.53.28,2.25.31,2.84s.25,4.38.38,5.28a20.32,20.32,0,0,0,.72,2.63c.28,1.06,0,2.47.25,3.09a7.9,7.9,0,0,1,.84,2.63,32.17,32.17,0,0,0,1.62,5.93,45.42,45.42,0,0,0,6.63,13.35,33.61,33.61,0,0,0,9.72,8.9,14.32,14.32,0,0,0,3.4,1.53c.54.13,3.66,1.88,5.75,2.57a14.89,14.89,0,0,0,3.41.75,28.51,28.51,0,0,0,3.19,1c2.47.65,3.72.68,8,.93a116.18,116.18,0,0,0,14.41-.12,46.37,46.37,0,0,0,9-2.31,3.54,3.54,0,0,0,1.07.06c.56-.06,1.87-.66,5.06-2.1a30.11,30.11,0,0,0,6.09-3.87,4.61,4.61,0,0,0,1.47-.63,36.33,36.33,0,0,0,4.5-4.25c.5-.71,1.47-1.71,3-3.53a31.39,31.39,0,0,0,3.25-4.75.92.92,0,0,0,.06-.84,30.69,30.69,0,0,0,1.66-3.09,75.31,75.31,0,0,0,4.13-11.72,36.1,36.1,0,0,0,1.59-10.69l.22.44A28.16,28.16,0,0,0,1010.45,534.25ZM928.7,503.19a10.53,10.53,0,0,1,2.94-.22,14.07,14.07,0,0,1,1.59.25,14,14,0,0,1-.06,3.22c-.25,1.28-.47,1.4-.75,1.56a5.19,5.19,0,0,1-1.78.09c-.91,0-1.94,0-1.94,0Zm4.72,13.68a7.35,7.35,0,0,1-.75,3.88c-.94,1.37-1.5,1.16-2.22,1.16s-1.75,0-1.75,0v-5Zm75.22,26.94c-.12.1-1,4.63-2.75,10.19s-3.41,10.81-5.5,14.37c-.51.88-1.16,1.91-1.88,3a18.83,18.83,0,0,1-.34-2.33,27.12,27.12,0,0,0-2.44-9.47c-2-4.09-6.93-7.06-8.59-8a4.68,4.68,0,0,1-2.25-3.84c0-1.07.09-5.22.19-6.85a2.37,2.37,0,0,1,2.09-2.31c.66,0,3.41.13,5.5,0s3.44-1.41,3.44-2.59V530.5a3.1,3.1,0,0,0-2.78-2.94c-1.35-.25-6.69-.31-8.38-.34s-3.22.53-3.22,1.5.47,1.31,1.57,1.4l8,0a2.14,2.14,0,0,1,1.84,1.85v2.59a1.4,1.4,0,0,1-1.28,1.53,49.9,49.9,0,0,0-5.53,0c-2.6.19-4,2.94-4.13,4.6s-.22,3.93-.15,7.68c.05,3,1.47,5.22,5.18,7.38a14.15,14.15,0,0,1,6.88,8.75c1.19,3.84,1.09,7.9,1.41,9.94a4.59,4.59,0,0,0,.19.84,25.25,25.25,0,0,1-4.41,4.69A46.9,46.9,0,0,1,981.2,586a58.27,58.27,0,0,1-21.93,4c-9.1-.22-13-.41-18.54-2.31a40.47,40.47,0,0,1-12.09-6,32.7,32.7,0,0,1-9.16-10.5,75.74,75.74,0,0,1-5.28-12.06,25.77,25.77,0,0,1-.84-3.31c-.16-.47-.16-1.28-.56-2.69a26,26,0,0,1-.91-3.87c-.16-1.22,0-1.63-.16-1.94a4.07,4.07,0,0,1-.25-1.16s-.09-7.68.1-11.53,1.84-10,3.69-15,6.37-11.37,8.5-13.78c.47-.53,1.13-1.24,2-2.06v.75c0,.81.41,15.94,0,24.12s-.79,14.72-1,16.75c-.17,1.82,0,2.66,1.28,2.66s1.56-.87,1.72-3,.53-10.38.68-14.47.13-6.09.13-6.09h2c1,0,4.47-.63,4.94-3.25a24.84,24.84,0,0,0,.47-3.82s.81-.31.81-1.71-1-1.63-1.94-1.63-2.75.34-4.28.34h-1.87v-4h4.46c.88,0,2.16-.81,2.41-2.87a33.6,33.6,0,0,0,.19-4.28,2.58,2.58,0,0,0,.84-1.6c0-.84-1.34-1-2.94-1.09s-4.18-.12-4.18-.12h-.08a45.88,45.88,0,0,1,10.58-6.5c8.25-3.57,10.59-3.47,12-3.63a39.89,39.89,0,0,1,11.34,0c4,.66,13.35,2.25,19.88,6.16s13.87,10.56,17.56,15.75a42.73,42.73,0,0,1,7.72,19.31,66,66,0,0,1,.47,12.37S1008.77,543.72,1008.64,543.81Z" transform="translate(-909.36 -488.12)"/><path d="M927.41,554a1,1,0,0,1-.2.25.66.66,0,0,1-.28.16,1,1,0,0,1-.33.05,1.2,1.2,0,0,1-.55-.12,1.07,1.07,0,0,1-.38-.32,1.19,1.19,0,0,1-.23-.48,2.2,2.2,0,0,1-.08-.58,1.81,1.81,0,0,1,.09-.58,1.11,1.11,0,0,1,.24-.44,1.22,1.22,0,0,1,.41-.29,1.6,1.6,0,0,1,.56-.1.94.94,0,0,1,.3.05.56.56,0,0,1,.24.13.6.6,0,0,1,.16.24,1,1,0,0,1,.08.33h.13v-.4l0-.39a1.86,1.86,0,0,0-.41-.08l-.42,0a2.34,2.34,0,0,0-.71.1,1.75,1.75,0,0,0-.59.31,1.5,1.5,0,0,0-.41.52,1.67,1.67,0,0,0-.15.73,1.51,1.51,0,0,0,.13.65,1.39,1.39,0,0,0,.34.51,1.74,1.74,0,0,0,.53.32,2,2,0,0,0,.66.11,2.7,2.7,0,0,0,.49,0,4.54,4.54,0,0,0,.5-.12c0-.14,0-.27.05-.4s0-.26.09-.41l-.13,0A3.17,3.17,0,0,1,927.41,554Z" transform="translate(-909.36 -488.12)"/><path d="M932.63,554.39a.41.41,0,0,1,0-.09.49.49,0,0,1,0-.13V552a1.15,1.15,0,0,1,0-.2.23.23,0,0,1,.06-.12.41.41,0,0,1,.11-.07l.2,0v-.11h-1.13v.12l.21,0a.23.23,0,0,1,.11,0,.13.13,0,0,1,.05.09.49.49,0,0,1,0,.13v1h-1.7V552a1,1,0,0,1,0-.2.17.17,0,0,1,.05-.12.41.41,0,0,1,.11-.07l.2,0v-.11h-1.12v.12l.21,0a.23.23,0,0,1,.12,0,.15.15,0,0,1,.06.09s0,.08,0,.13v2.19a1,1,0,0,1,0,.2.22.22,0,0,1,0,.12.23.23,0,0,1-.12.06.53.53,0,0,1-.2,0v.11h1.12v-.12l-.21,0a.23.23,0,0,1-.11-.05.24.24,0,0,1-.06-.09s0-.08,0-.13V553h1.7v1a1.15,1.15,0,0,1,0,.2.33.33,0,0,1-.05.12.35.35,0,0,1-.12.07l-.19,0v.11H933v-.12l-.22,0A.33.33,0,0,1,932.63,554.39Z" transform="translate(-909.36 -488.12)"/><path d="M937.53,554.37l-.09-.12c0-.06-.05-.13-.08-.23l-.72-2.12c0-.07,0-.15-.07-.24s-.05-.18-.08-.29l-.2,0a.77.77,0,0,1-.07.16.67.67,0,0,0-.08.17l-.88,2.2-.12.27a.65.65,0,0,1-.12.15.26.26,0,0,1-.13.08.62.62,0,0,1-.21,0v.11h1v-.11a.73.73,0,0,1-.28-.05.12.12,0,0,1-.08-.11.84.84,0,0,1,.07-.24l.24-.64h1.06l.22.69a.76.76,0,0,1,0,.11s0,.06,0,.08a.12.12,0,0,1-.08.12,1,1,0,0,1-.25,0v.11h1.15v-.11l-.2,0A.31.31,0,0,1,937.53,554.37Zm-1.77-1.14.5-1.29h0l.42,1.29Z" transform="translate(-909.36 -488.12)"/><path d="M942.74,551.45h-.92v.12l.21,0a.22.22,0,0,1,.13,0,.4.4,0,0,1,.07.13,1.63,1.63,0,0,1,0,.24v1.89h0l-2-2.46h-.65v.12h.15l.1,0,.07,0,.07.07a.56.56,0,0,0,.05.08l0,.09a.53.53,0,0,1,0,.14c0,.05,0,.13,0,.22v1.63a2.41,2.41,0,0,1,0,.31.4.4,0,0,1-.07.16.29.29,0,0,1-.13.08l-.21,0v.11h1v-.12l-.21,0a.23.23,0,0,1-.13-.06.4.4,0,0,1-.07-.13,1.63,1.63,0,0,1,0-.24V552.1h0l1.7,2.06.17.23c.06.07.11.15.17.23l.16,0v-2.45a2.41,2.41,0,0,1,0-.31.48.48,0,0,1,.07-.16.25.25,0,0,1,.12-.08l.21,0v-.11Z" transform="translate(-909.36 -488.12)"/><path d="M949.89,554.38a.65.65,0,0,1-.15-.1l-.18-.16-.25-.25-.31-.32c-.12-.12-.23-.24-.34-.37l-.33-.36.28-.26.28-.25c.09-.08.17-.16.25-.22l.19-.17.21-.16.2-.1.21-.07.24,0v-.11h-1.31v.11l.23,0a.15.15,0,0,1,.1,0,.06.06,0,0,1,0,.08.49.49,0,0,1-.07.11l-.21.22-.24.23-.25.24-.24.2a1.3,1.3,0,0,1-.19.13l-.2,0V552a.92.92,0,0,1,0-.19.35.35,0,0,1,.07-.12.37.37,0,0,1,.14-.07l.23,0v-.11h-1.34v.12l.25,0a.37.37,0,0,1,.15,0,.15.15,0,0,1,.06.09.44.44,0,0,1,0,.13v2.19a1,1,0,0,1,0,.2.19.19,0,0,1-.07.12.37.37,0,0,1-.14.07l-.24,0v.11h1.33v-.12l-.24,0a.38.38,0,0,1-.14-.05.24.24,0,0,1-.06-.09.44.44,0,0,1,0-.13v-1.1h.09l.12,0a.5.5,0,0,1,.13.1l.25.26.25.27.25.27.23.25a2.61,2.61,0,0,1,.17.2.46.46,0,0,1,.1.14h.85v-.12l-.2,0A.33.33,0,0,1,949.89,554.38Z" transform="translate(-909.36 -488.12)"/><path d="M954.72,554.08a.67.67,0,0,1-.16.2.55.55,0,0,1-.22.1,1.69,1.69,0,0,1-.35,0h-.5a.26.26,0,0,1-.14-.06.2.2,0,0,1-.06-.11.5.5,0,0,1,0-.18v-1h.59l.66,0v-.27l0,0-1.23,0v-1.13c0-.05,0-.09,0-.1l.14,0H954a1.26,1.26,0,0,1,.3,0,.48.48,0,0,1,.19.09.42.42,0,0,1,.11.18,1.36,1.36,0,0,1,.08.28h.14c0-.14,0-.27,0-.39a2,2,0,0,1,0-.35h-2.44v.12l.25,0a.38.38,0,0,1,.14,0,.15.15,0,0,1,.06.09.44.44,0,0,1,0,.13v2.19a1,1,0,0,1,0,.2.24.24,0,0,1-.07.12.48.48,0,0,1-.16.07l-.27,0v.11h2.52s0-.09,0-.15a1.77,1.77,0,0,1,0-.2c0-.07,0-.14,0-.21l.06-.2-.14,0C954.82,553.91,954.77,554,954.72,554.08Z" transform="translate(-909.36 -488.12)"/><path d="M959.71,553.79c-.06.12-.11.21-.16.29a.54.54,0,0,1-.16.2.5.5,0,0,1-.22.1,1.69,1.69,0,0,1-.35,0h-.5a.26.26,0,0,1-.14-.06.2.2,0,0,1-.06-.11.9.9,0,0,1,0-.18v-1h.6l.65,0v-.27l0,0-1.23,0v-1.13c0-.05,0-.09,0-.1l.14,0h.52a1.15,1.15,0,0,1,.3,0,.48.48,0,0,1,.19.09.57.57,0,0,1,.12.18,2.83,2.83,0,0,1,.07.28h.14c0-.14,0-.27,0-.39l0-.35h-2.44v.12l.25,0a.38.38,0,0,1,.14,0,.22.22,0,0,1,.07.09.49.49,0,0,1,0,.13v2.19a.59.59,0,0,1,0,.2.19.19,0,0,1-.07.12.48.48,0,0,1-.16.07l-.27,0,0,.11h2.51s0-.09,0-.15a1.77,1.77,0,0,1,0-.2,1.6,1.6,0,0,1,0-.21,1.17,1.17,0,0,1,.05-.2Z" transform="translate(-909.36 -488.12)"/></svg>