<svg xmlns="http://www.w3.org/2000/svg" viewBox="0 0 197.12 202.62"><defs><style>.cls-1{fill:#fff;}</style></defs><g id="Layer_2" data-name="Layer 2"><path class="cls-1" d="M1047.06,518a18.69,18.69,0,0,0-13-9.32v-2.5a61.63,61.63,0,0,0,7.8-.6c5.48-.66,9.75-3.53,9.75-13.1s-4.64-12.5-7.45-12.5h-10.1v-3.41a42.44,42.44,0,0,0,9.26-1.15,12.38,12.38,0,0,0,9.44-8.52c.61-2.38-.23-3.9-2-4.33a2.65,2.65,0,0,0-3.38,1.62,2.44,2.44,0,0,0-.15.76c-.43,2.06-2.14,3.64-5.13,5a23.81,23.81,0,0,1-8,1.27v-9.07a2.75,2.75,0,1,0-5.5,0h0v9.07a23.81,23.81,0,0,1-8-1.27,6,6,0,0,1-4-5,2.64,2.64,0,0,0-2.77-2.53,2.38,2.38,0,0,0-.75.15c-1.72.49-2.58,2-2,4.33a10.6,10.6,0,0,0,8.32,8.52,42.52,42.52,0,0,0,9.26,1.15v3.41s-6.9.41-9.75.41-7.43,2.92-7.43,12.5,4.2,12.42,9.75,13.1a24.82,24.82,0,0,0,7.45.19v2.5a18.67,18.67,0,0,0-13,9.32,65,65,0,0,0-7.43,25c-.12,4.88-.43,6.95,2.38,6.95s3.47-1.52,3.64-4.16a70.55,70.55,0,0,1,3.47-19.85c3.12-8.65,7.68-9.74,8.72-10.43a18,18,0,0,1,2.12-1v37.05c0,1.71.92,3.17,2.64,3.17h.23c1.71,0,2.63-1.46,2.63-3.17V514.42a19,19,0,0,1,2.13,1c1,.63,4.32,1.78,7.42,10.43a69.52,69.52,0,0,1,3.49,19.85c.18,2.64.84,4.16,3.65,4.16s2.5-2.07,2.38-6.95S1051.82,526.31,1047.06,518Zm-18.21-17.43a23.9,23.9,0,0,1-6.86.15,5,5,0,0,1-4.51-5.36l11.37-.41Zm0-10.41-11.37.41a5,5,0,0,1,4.51-5.36c4.75-.38,6.86-.65,6.86-.65Zm5.11-5.6a67.46,67.46,0,0,1,7.25.24,5,5,0,0,1,4.52,5.36H1034Zm0,10.39h11.7a5,5,0,0,1-4.53,5.37,67.47,67.47,0,0,1-7.25.25Z" transform="translate(-955.3 -438)"/><path class="cls-1" d="M1069.05,519.55h19.87a2.49,2.49,0,0,0,2.44-2.38,4.07,4.07,0,0,0-4.23-3.35h-18.45c-1.29.11-4.21,1.52-4.09,3.35S1065.41,519.55,1069.05,519.55Z" transform="translate(-955.3 -438)"/><path class="cls-1" d="M1089.23,526.92c-2.49,0-24.68.37-24.68.37-1.52.12-4.08,1.46-4.08,2.92s1.52,2.62,3.79,2.62h27.29a2.58,2.58,0,0,0,2.44-2.7v0C1094,528.32,1091.73,526.92,1089.23,526.92Z" transform="translate(-955.3 -438)"/><path class="cls-1" d="M1087.77,539.28c-2.55,0-17.74-.37-19.81.37-1.56.55-2.73,1.29-2.73,2.38a2.54,2.54,0,0,0,2.33,2.72h.22c2,0,20.54-.29,22.06-.29a2.1,2.1,0,0,0,2.25-1.91,1.93,1.93,0,0,0,0-.24A4.33,4.33,0,0,0,1087.77,539.28Z" transform="translate(-955.3 -438)"/><path class="cls-1" d="M1088.74,550.06c-1.71-.17-19,0-21.27.55-1.32.33-2.49,1.4-2.32,2.38a3,3,0,0,0,3.36,2.37c2.43,0,19.86-.42,21.33-.42a2.08,2.08,0,0,0,2.08-2.06,1.94,1.94,0,0,0,0-.24C1091.9,551.47,1090.44,550.26,1088.74,550.06Z" transform="translate(-955.3 -438)"/><path class="cls-1" d="M1087.94,560c-1.34,0-3.21.54-3.15,2.37s0,5,0,5h-13v-6.11c0-1.46-1.64-1.75-3-1.75s-2.81.43-2.81,3.7.37,21.1.61,23.71,3.54,8,12.49,8,11.7-6.83,11.7-10.18,0-21-.11-22.48A2.52,2.52,0,0,0,1087.94,560Zm-3.21,24.17c-.26,2.44-.86,4.76-5.44,4.76s-7.24-2.13-7.31-3.35-.3-13-.3-13l13-.14s.31,9.26.08,11.7Z" transform="translate(-955.3 -438)"/><path class="cls-1" d="M1133.22,573.83c-1,0-2.87.74-2.87,2.26s.68,3.1,2.56,3.1a2.69,2.69,0,0,0,.31-5.36Z" transform="translate(-955.3 -438)"/><path class="cls-1" d="M1152.34,528c-.35-12.07-2.67-24.68-14.91-43.63a92,92,0,0,0-39-34.12,152.54,152.54,0,0,0-24.74-8.78c-3-.72-8.11-1.52-13.84-2.67a31.37,31.37,0,0,0-14.92.31,20.15,20.15,0,0,1-8.17.84c-2.55-.29-9.63.92-17.23,3.61a129.2,129.2,0,0,0-22.31,11.93,86,86,0,0,0-14.5,12.5A142.43,142.43,0,0,0,970,484.75a57.55,57.55,0,0,1-4.22,7.19c-1.09,1.29-1.95,3.24-4.38,10.9s-4.31,15.91-4.74,17.92,0,3.78-.55,5.48a124.27,124.27,0,0,0-.8,13.78c0,1,.55,4.39.61,5.54s.49,8.54.74,10.29a39.7,39.7,0,0,0,1.4,5.13c.55,2.07,0,4.82.49,6a15.35,15.35,0,0,1,1.64,5.12,62.38,62.38,0,0,0,3.16,11.56,88.39,88.39,0,0,0,12.92,26,65.61,65.61,0,0,0,19,17.36,27.76,27.76,0,0,0,6.62,3c1.06.25,7.14,3.66,11.22,5a28.57,28.57,0,0,0,6.64,1.46,56.71,56.71,0,0,0,6.22,2c4.82,1.27,7.26,1.33,15.6,1.82a227.13,227.13,0,0,0,28.1-.24,90.72,90.72,0,0,0,17.54-4.5,7,7,0,0,0,2.09.11c1.09-.11,3.65-1.28,9.87-4.09A58.48,58.48,0,0,0,1111,624a8.89,8.89,0,0,0,2.87-1.22,70.87,70.87,0,0,0,8.77-8.29c1-1.38,2.87-3.33,5.85-6.88a62.16,62.16,0,0,0,6.34-9.26,1.8,1.8,0,0,0,.11-1.64,58.29,58.29,0,0,0,3.24-6,146.48,146.48,0,0,0,8-22.85,70.11,70.11,0,0,0,3.1-20.84l.43.86A55,55,0,0,0,1152.34,528ZM993,467.39a20.88,20.88,0,0,1,5.74-.43,29.81,29.81,0,0,1,3.1.49,27.48,27.48,0,0,1-.12,6.28c-.49,2.5-.92,2.73-1.46,3a10.14,10.14,0,0,1-3.47.18H993Zm9.21,26.68a14.34,14.34,0,0,1-1.47,7.56c-1.83,2.67-2.92,2.26-4.32,2.26H993v-9.75Zm146.66,52.52c-.24.2-2,9-5.37,19.87s-6.64,21.08-10.72,28c-1,1.71-2.26,3.72-3.67,5.85a38.65,38.65,0,0,1-.66-4.55,52.57,52.57,0,0,0-4.76-18.46c-3.9-8-13.51-13.77-16.74-15.6a9.12,9.12,0,0,1-4.39-7.49c0-2.08.17-10.17.37-13.35a4.63,4.63,0,0,1,4.07-4.51c1.29,0,6.65.26,10.73,0s6.71-2.74,6.71-5V520.64a6,6,0,0,0-5.43-5.73c-2.63-.49-13-.61-16.33-.67s-6.28,1-6.28,2.93.91,2.55,3.06,2.73H1115a4.17,4.17,0,0,1,3.58,3.61v5a2.73,2.73,0,0,1-2.45,3h0a96.92,96.92,0,0,0-10.78,0c-5.07.37-7.8,5.73-8.06,9s-.42,7.66-.29,15c.1,5.85,2.87,10.18,10.1,14.39a27.61,27.61,0,0,1,13.42,17.06c2.32,7.49,2.12,15.4,2.74,19.38a9.09,9.09,0,0,0,.38,1.64,49.68,49.68,0,0,1-8.6,9.14,91.55,91.55,0,0,1-19.7,11.76,113.42,113.42,0,0,1-42.75,7.8c-17.75-.43-25.35-.8-36.15-4.5a79,79,0,0,1-23.57-11.7A63.64,63.64,0,0,1,975,600a148,148,0,0,1-10.3-23.51,49.51,49.51,0,0,1-1.63-6.45c-.32-.92-.32-2.5-1.1-5.25a51.27,51.27,0,0,1-1.77-7.54c-.31-2.38,0-3.18-.31-3.79a7.87,7.87,0,0,1-.49-2.26s-.18-15,.19-22.48,3.59-19.49,7.2-29.24,12.42-22.17,16.57-26.87c.92-1,2.21-2.42,3.9-4V470c0,1.57.8,31.07,0,47s-1.54,28.7-2,32.66c-.33,3.55,0,5.19,2.5,5.19s3-1.7,3.35-5.85,1-20.24,1.33-28.21.25-11.88.25-11.88h3.9c2,0,8.71-1.23,9.63-6.34a47.72,47.72,0,0,0,.92-7.44s1.58-.61,1.58-3.34-2-3.18-3.79-3.18-5.36.67-8.34.67H993v-7.8h8.7c1.71,0,4.21-1.58,4.7-5.6a66.42,66.42,0,0,0,.37-8.34,5.11,5.11,0,0,0,1.64-3.12c0-1.64-2.62-2-5.74-2.13s-8.15-.23-8.15-.23h-.15A89.41,89.41,0,0,1,1015,449.44c16.08-7,20.64-6.77,23.39-7.08a78,78,0,0,1,22.11,0c7.8,1.29,26,4.39,38.76,12s27,20.59,34.24,30.71a83.32,83.32,0,0,1,15,37.65,128.69,128.69,0,0,1,.92,24.11S1149.07,546.42,1148.82,546.59Z" transform="translate(-955.3 -438)"/><path class="cls-1" d="M990.44,566.46a2.05,2.05,0,0,1-.39.49,1.36,1.36,0,0,1-.55.31,2,2,0,0,1-.64.1,2.46,2.46,0,0,1-1.07-.24,2,2,0,0,1-.74-.62,2.28,2.28,0,0,1-.45-.94,4.34,4.34,0,0,1-.16-1.13,3.61,3.61,0,0,1,.18-1.13,2.2,2.2,0,0,1,.47-.86,2.32,2.32,0,0,1,.79-.56,3.15,3.15,0,0,1,1.1-.2,1.91,1.91,0,0,1,.58.1,1,1,0,0,1,.47.25,1.14,1.14,0,0,1,.31.47,2,2,0,0,1,.16.64h.25V561.6a3.64,3.64,0,0,0-.8-.15h-.82a4.6,4.6,0,0,0-1.38.19,3.35,3.35,0,0,0-1.15.61,2.92,2.92,0,0,0-.8,1,3,3,0,0,0-.29,1.42,2.91,2.91,0,0,0,.25,1.27,2.69,2.69,0,0,0,.66,1,3.54,3.54,0,0,0,1,.62,3.7,3.7,0,0,0,1.28.21,5.13,5.13,0,0,0,1,0,8,8,0,0,0,1-.23,2,2,0,0,1,.1-.78c.1-.25,0-.51.18-.8h-.26C990.61,566.14,990.53,566.3,990.44,566.46Z" transform="translate(-955.3 -438)"/><path class="cls-1" d="M1000.62,567.22a.54.54,0,0,1,0-.18,1,1,0,0,1,0-.25v-4.23a2.54,2.54,0,0,1,0-.39.38.38,0,0,1,.11-.23.74.74,0,0,1,.22-.14h.39v-.22h-2.21v.24h.41a.41.41,0,0,1,.22,0,.27.27,0,0,1,.1.17,1.13,1.13,0,0,1,0,.26v2h-3.32v-1.64a2.54,2.54,0,0,1,0-.39.33.33,0,0,1,.1-.23.6.6,0,0,1,.21-.14h.39v-.22h-2.18v.24h.41a.45.45,0,0,1,.23,0,.3.3,0,0,1,.12.17v4.53a2.54,2.54,0,0,1,0,.39.45.45,0,0,1,0,.23.51.51,0,0,1-.23.12,1.27,1.27,0,0,1-.39,0v.21h2.18v-.23H997a.41.41,0,0,1-.21-.1.38.38,0,0,1-.12-.17v-2.46H1000v2a2.54,2.54,0,0,1,0,.39.65.65,0,0,1-.09.23.72.72,0,0,1-.24.14h-.37v.21h2.09v-.23h-.43A.58.58,0,0,1,1000.62,567.22Z" transform="translate(-955.3 -438)"/><path class="cls-1" d="M1010.17,567.18,1010,567a2.12,2.12,0,0,0-.15-.45l-1.41-4.14a.68.68,0,0,0-.13-.46c-.14-.18-.1-.35-.16-.57h-.39a1.69,1.69,0,0,1-.13.31,1.66,1.66,0,0,0-.16.33l-1.72,4.29-.23.53a1.09,1.09,0,0,1-.23.29.54.54,0,0,1-.26.16,1.41,1.41,0,0,1-.41,0v.21h1.95v-.21a1.44,1.44,0,0,1-.54-.1.24.24,0,0,1-.16-.21,1.5,1.5,0,0,1,.14-.47l.47-1.25h2.06l.43,1.35a.74.74,0,0,1,0,.21v.16a.23.23,0,0,1-.16.23,1.93,1.93,0,0,1-.48,0v.22h2.24v-.22h-.39Zm-3.45-2.22,1-2.52h0l.82,2.52Z" transform="translate(-955.3 -438)"/><path class="cls-1" d="M1020.33,561.49h-1.8v.23h.41a.57.57,0,0,1,.26,0,.85.85,0,0,1,.13.25,1.85,1.85,0,0,1,0,.47v3.69h0l-3.9-4.8h-1.26v.23h.62l.14.14.09.16V562a.66.66,0,0,1,0,.28v3.6a3.11,3.11,0,0,1,0,.61.71.71,0,0,1-.13.31.63.63,0,0,1-.26.16h-.4v.21h1.95V567h-.41a.57.57,0,0,1-.26-.12.85.85,0,0,1-.13-.25,1.85,1.85,0,0,1,0-.47v-3.38h0l3.31,4,.33.45a5.22,5.22,0,0,1,.33.45h.32v-4.78a3,3,0,0,1,0-.6.9.9,0,0,1,.13-.32.49.49,0,0,1,.24-.15h.4v-.22Z" transform="translate(-955.3 -438)"/><path class="cls-1" d="M1034.27,567.2a1,1,0,0,1-.29-.2l-.35-.31-.49-.48-.61-.63c-.23-.23-.44-.47-.66-.72l-.64-.7.54-.51.55-.49c.17-.15.33-.31.49-.43l.37-.33.41-.31.39-.19.41-.14h.46v-.21h-2.55v.21h.45a.31.31,0,0,1,.19,0,.12.12,0,0,1,0,.16.92.92,0,0,1-.13.21l-.41.43-.47.45-.49.47-.47.39a2.4,2.4,0,0,1-.37.25h-.39v-1.56a2.29,2.29,0,0,1,0-.37.72.72,0,0,1,.14-.24.68.68,0,0,1,.27-.13h.45v-.22h-2.61v.24h.49a.71.71,0,0,1,.29,0,.3.3,0,0,1,.12.17,1.13,1.13,0,0,1,0,.26v4.27a2.54,2.54,0,0,1,0,.39.43.43,0,0,1-.14.23.7.7,0,0,1-.27.14h-.47v.21h2.59v-.23h-.47a.88.88,0,0,1-.27-.1.57.57,0,0,1-.12-.18,1,1,0,0,1,0-.25v-2.14h.41a1,1,0,0,1,.26.19l.48.51.49.52.49.53.45.49q.17.18.33.39a.83.83,0,0,1,.19.27H1035v-.23h-.39A.65.65,0,0,1,1034.27,567.2Z" transform="translate(-955.3 -438)"/><path class="cls-1" d="M1043.69,566.61a1.22,1.22,0,0,1-.32.39,1,1,0,0,1-.42.2,4,4,0,0,1-.69,0h-1a.5.5,0,0,1-.28-.12.33.33,0,0,1-.11-.21,1,1,0,0,1,0-.35v-1.95h2.44V564h-2.4v-2.4h1.34a2.91,2.91,0,0,1,.59,0,.91.91,0,0,1,.37.18.84.84,0,0,1,.21.35,2.66,2.66,0,0,1,.16.55h.27V562a4,4,0,0,1,0-.69h-4.76v.24h.49a.61.61,0,0,1,.27,0,.26.26,0,0,1,.12.17,1.13,1.13,0,0,1,0,.26v4.27a2.54,2.54,0,0,1,0,.39.43.43,0,0,1-.14.23,1.09,1.09,0,0,1-.31.14H1039v.21h4.91v-.29a2.54,2.54,0,0,1,0-.39v-.41l.12-.39h-.28C1043.88,566.28,1043.78,566.46,1043.69,566.61Z" transform="translate(-955.3 -438)"/><path class="cls-1" d="M1053.42,566.05a6.16,6.16,0,0,1-.32.56.92.92,0,0,1-.31.39,1,1,0,0,1-.43.2,3.86,3.86,0,0,1-.68,0h-1a.47.47,0,0,1-.28-.12.33.33,0,0,1-.11-.21,1,1,0,0,1,0-.35v-1.95h2.43V564h-2.4v-2.4h1.29a2.91,2.91,0,0,1,.59,0,.91.91,0,0,1,.37.18,1,1,0,0,1,.23.35,4.92,4.92,0,0,1,.14.55h.27v-1.45h-4.76v.24h.49a.62.62,0,0,1,.27,0,.39.39,0,0,1,.14.17,1.13,1.13,0,0,1,0,.26v4.27a1.27,1.27,0,0,1,0,.39.33.33,0,0,1-.14.23,1.09,1.09,0,0,1-.31.14h-.53v.21h4.9v-.29a2.54,2.54,0,0,1,0-.39,2.8,2.8,0,0,1,0-.41,1.86,1.86,0,0,1,.1-.39Z" transform="translate(-955.3 -438)"/></g></svg>