<?xml version="1.0" encoding="utf-8"?>
<!-- Generator: Adobe Illustrator 24.2.0, SVG Export Plug-In . SVG Version: 6.00 Build 0)  -->
<svg version="1.1" id="Layer_1" xmlns="http://www.w3.org/2000/svg" xmlns:xlink="http://www.w3.org/1999/xlink" x="0px" y="0px"
	 viewBox="0 0 429.3 90" style="enable-background:new 0 0 429.3 90;" xml:space="preserve">
<style type="text/css">
	.st0{fill-rule:evenodd;clip-rule:evenodd;fill:#F63440;}
</style>
<path class="st0" d="M298.8,1.3h-15c-0.9,0-1.3,0.9-1.3,1.3v32.7h-15V2.6c0-0.9-0.9-1.3-1.3-1.3h-15c-0.9,0-1.3,0.9-1.3,1.3v83.9
	c0,0.9,0.9,1.3,1.3,1.3h15c0.9,0,1.3-0.9,1.3-1.3V52.9h15v33.6c0,0.9,0.9,1.3,1.3,1.3h15c0.9,0,1.3-0.9,1.3-1.3V2.6
	C300.1,2.1,299.7,1.3,298.8,1.3 M172.2,1.3h-15c-0.9,0-1.3,0.4-1.3,1.3V62c0,3-0.9,5.2-2.1,6.9c-1.3,1.7-3,2.1-5.2,2.1
	c-2.1,0-3.9-0.9-5.2-2.1c-1.3-1.7-2.1-3.9-2.1-6.9V2.6c0-0.9-0.9-1.3-1.3-1.3h-15c-0.9,0-1.3,0.4-1.3,1.3v59.9
	c0,7.7,1.7,15,6.4,19.8c4.7,4.7,11.2,7.3,18.5,7.3c7.7,0,14.2-2.6,18.5-7.3c4.7-4.7,6.4-11.6,6.4-19.8V2.6
	C173.6,2.1,173.1,1.3,172.2,1.3 M25,0C17.2,0,10.7,2.6,6.4,7.3C1.7,12,0,18.9,0,27.1v35.8c0,7.7,1.7,15,6.4,19.8
	C11.2,87.4,17.6,90,25,90c7.7,0,14.2-2.6,18.5-7.3c4.7-4.7,6.4-11.6,6.4-19.8V43.1c0-0.9-0.9-1.7-1.7-1.7h-22
	c-0.9,0-1.7,0.9-1.7,1.7v14.7c0,0.9,0.9,1.7,1.7,1.7h5.7V63c0,3-0.9,5.7-2.1,7.3c-1.3,1.7-3,2.1-5.2,2.1c-2.1,0-3.9-0.9-5.2-2.1
	c-1.3-1.7-2.1-4.3-2.1-7.3V27.6c0-3,0.9-5.7,2.1-7.3c1.3-1.7,3-2.1,5.2-2.1c2.1,0,3.9,0.9,5.2,2.1c1.3,1.7,2.1,4.3,2.1,7.3V31
	c0,0.9,0.9,1.3,1.3,1.3h15c0.9,0,1.3-0.4,1.3-1.3v-3.4c0-7.7-1.7-15-6.4-19.8C39.2,2.6,32.3,0,25,0 M218.7,68.5
	c-1.3,1.7-3,2.1-5.7,2.1h-8.6V52.4h8.6c2.1,0,3.9,0.9,5.2,2.1c1.3,1.7,2.1,3.9,2.1,6.4C220.5,64.6,220.1,66.7,218.7,68.5L218.7,68.5
	z M204.5,19h7.7c2.1,0,3.9,0.4,5.2,2.1c1.3,1.3,1.7,3.4,1.7,6.1s-0.4,4.7-1.7,6.4c-1.3,1.3-3,2.1-4.7,2.1h-7.7V19L204.5,19z
	 M229.4,43.5c2.6-2.6,7.3-8.6,7.3-16.4c0-9.1-3.4-14.7-6.1-17.7c-4.7-5.2-11.2-7.7-18.5-7.7h-23.5c-0.9,0-1.3,0.9-1.3,1.3v84
	c0,0.9,0.9,1.3,1.3,1.3h25c7.7,0,15-3,19.8-9.1c2.6-3.4,5.7-9.1,5.7-17.7C238.5,51.2,232.1,45.1,229.4,43.5L229.4,43.5z M92.6,35.3
	c-1.3,1.7-3.4,2.6-6.1,2.6h-7.3V19h7.3c2.6,0,4.7,0.9,6.1,2.6c1.7,1.7,2.1,3.9,2.1,6.9S94.4,33.6,92.6,35.3L92.6,35.3z M102.1,50.8
	c1.7-1.3,3-2.1,4.3-3.9c3-3.4,6.9-9.5,6.9-19c0-9.1-3.4-15-6.9-18.5c-4.3-5.2-10.7-7.7-18.1-8.2h-25c-0.9,0-1.3,0.9-1.3,1.3v83.9
	c0,0.9,0.9,1.3,1.3,1.3h15c0.9,0,1.3-0.9,1.3-1.3v-31h5.2l9.5,31.8c0,0.4,0.9,0.9,1.3,0.9h15.9l1.3-0.4c0.4,0,0.4-0.9,0.4-1.3
	L102.1,50.8L102.1,50.8z M408.6,68.5c-1.3,1.7-3,2.1-5.7,2.1h-8.6V52.4h8.6c2.1,0,3.9,0.9,5.2,2.1c1.3,1.7,2.1,3.9,2.1,6.4
	C410.7,64.6,409.9,66.7,408.6,68.5L408.6,68.5z M394.8,19h7.7c2.1,0,3.9,0.4,5.2,2.1c1.3,1.3,1.7,3.4,1.7,6.1s-0.4,4.7-1.7,6.4
	c-1.3,1.3-3,2.1-4.7,2.1h-7.7V19L394.8,19z M419.7,43.5c2.6-2.6,7.3-8.6,7.3-16.4c0-9.1-3.4-14.7-6.1-17.7
	c-4.7-5.2-11.2-7.7-18.5-7.7h-23.8c-0.9,0-1.3,0.9-1.3,1.3v84c0,0.9,0.9,1.3,1.3,1.3h25.1c7.7,0,15-3,19.8-9.1
	c2.6-3.4,5.7-9.1,5.7-17.7C428.4,51.2,422,45.1,419.7,43.5L419.7,43.5z M362.1,1.3h-15c-0.9,0-1.3,0.4-1.3,1.3V62
	c0,3-0.9,5.2-2.1,6.9c-1.3,1.7-3,2.1-5.2,2.1c-2.1,0-3.9-0.9-5.2-2.1c-1.3-1.7-2.1-3.9-2.1-6.9V2.6c0-0.9-0.9-1.3-1.3-1.3h-15.1
	c-0.9,0-1.3,0.4-1.3,1.3v59.9c0,7.7,1.7,15,6.4,19.8c4.7,4.7,11.2,7.3,18.5,7.3c7.7,0,14.2-2.6,18.5-7.3c4.7-4.7,6.4-11.6,6.4-19.8
	V2.6C363.9,2.1,363,1.3,362.1,1.3"/>
</svg>
