<?xml version="1.0" encoding="utf-8"?>
<!-- Generator: Adobe Illustrator 24.1.3, SVG Export Plug-In . SVG Version: 6.00 Build 0)  -->
<svg version="1.1" id="Layer_1" xmlns="http://www.w3.org/2000/svg" xmlns:xlink="http://www.w3.org/1999/xlink" x="0px" y="0px"
	 viewBox="0 0 512 512" style="enable-background:new 0 0 512 512;" xml:space="preserve">
<style type="text/css">
	.st0{fill:#65261E;}
</style>
<path class="st0" d="M298.7,138.7c0,58.9-47.8,106.7-106.7,106.7S85.3,197.6,85.3,138.7S133.1,32,192,32S298.7,79.8,298.7,138.7z"/>
<path class="st0" d="M282.7,288H101.3C45.5,288,0,333.5,0,389.3V464c0,8.8,7.2,16,16,16h352c8.8,0,16-7.2,16-16v-74.7
	C384,333.5,338.5,288,282.7,288z"/>
<path class="st0" d="M506.9,212.3l-74.7-69.3c-3-2.8-6.9-4.2-10.9-4.2c-10.6,0-16,9-16,16v48H320c-11.8,0-21.3,9.6-21.3,21.3
	s9.5,21.3,21.3,21.3h85.3v48c0,8.9,7.2,16,16,16c4,0,7.9-1.5,10.9-4.3l74.7-69.3c3.2-3,5.1-7.3,5.1-11.7S510.1,215.3,506.9,212.3z"
	/>
</svg>
