<svg id="Layer_1" data-name="Layer 1" xmlns="http://www.w3.org/2000/svg" viewBox="0 0 138.14 127.21"><defs><style>.cls-1{fill:#ed2024;}</style></defs><path class="cls-1" d="M456.57,230.64c.1-.24.24-.45.36-.68.78.55,1.67.9,2.09,1.56a10.89,10.89,0,0,1,1.35,3.31c.32,1.34-.23,1.8-1.57,1.59-1,1.5-1,2,.09,2.8a4.48,4.48,0,0,0,.47-.33c.95-.8,1-.78,1.66.23a8.06,8.06,0,0,1,1.51,3.36c.06.41.33.75.74.35a1.34,1.34,0,0,0,.4-1c-.19-1.27-.51-2.51-.72-3.78-.05-.29.17-.62.2-.94.16-1.35,1.68-2.32,1-4-.26-.61-.41-.68-.91-.46-.75.32-1.19.18-1.5-.55a12.21,12.21,0,0,1-.58-1.77c-.19-.75-.69-1.58.26-1.92,0-.56-.2-1,0-1.28s.77-.87,1.18-.88c1.14,0,1.39-.65,1.46-1.56a1.29,1.29,0,0,1,.19-.56,3.68,3.68,0,0,0,.35-3,23.7,23.7,0,0,1-1.24-7.79,15.69,15.69,0,0,0-.54-2.73,1.68,1.68,0,0,1,.41-1.71,1.66,1.66,0,0,0,0-2,1.52,1.52,0,0,1-.47-.92,11.67,11.67,0,0,1,.22-1.85c.16-1.1.42-1.25,1.43-.86a2.35,2.35,0,0,0-.5-2.77,1.65,1.65,0,0,1-.42-.88c-.25-2.15-.6-4.29.8-6.28a1,1,0,0,0-.77-1.76c-2-.13-3.94-.16-5.91-.23-.25,0-.55,0-.73-.07a8.82,8.82,0,0,0-5.47-1.1c-3,.09-6.09.29-9.13.48a.93.93,0,0,0-.69.46c-.16.65-.6.72-1.13.8-1.31.19-2.63.39-3.92.66-.34.07-.86.39-.88.62-.07,1.24-.95,1.24-1.74,1.13-1.62-.23-3.22-.58-4.82-.91a4.11,4.11,0,0,1-.74-.4,4.49,4.49,0,0,0-1.18-.54,9.45,9.45,0,0,0-5,.84,6.31,6.31,0,0,1-3.57.33c-.51-.11-1.06,0-1.57-.14a6.44,6.44,0,0,0-3.91,0c-.1,0-.43-.35-.53-.59,0-.08.3-.36.5-.48a3.76,3.76,0,0,1,.85-.2c-.53-.49-.88-.87-1.29-1.18s-.65-.13-.67.38c0,.28.05.72-.09.8-.62.36-.48.87-.45,1.41a.83.83,0,0,1-1.12.83,10.38,10.38,0,0,0-1.59-.3,3.69,3.69,0,0,1-1.28-.26,1.3,1.3,0,0,0-1.41-.1c-.42.17-.86.26-1.28.42a8.94,8.94,0,0,0-2.23,1,2.77,2.77,0,0,1-2.41.66,1.47,1.47,0,0,0-.59,0,1,1,0,0,1-1.19-.52c-.27-.48-.61-.63-1.05-.1-.28.34-.69.58-1,.91a.76.76,0,0,1-1.29,0,14.11,14.11,0,0,1-.92-1.7l-3.35,1.34c-.31.12-.78.4-.92.29-.79-.63-1.48-.11-2.22.06-.37.08-.84.22-1.11.06a12.66,12.66,0,0,0-6.07-1.26c-3.47-.11-6.95.06-10.38-.68-.56-.12-1.06-.24-1.51.35-.13.17-.71.05-1.07,0s-.92-.38-1.35-.33c-.61.07-1,0-1.17-.63a.82.82,0,0,0-.61-.45c-1.81.09-3.64-.72-5.23.13l-1.68-1.59c-.42.26-1.06.45-1.36.88a7.22,7.22,0,0,0-1,2.36c-.18.8-.42,1.05-1.28.9a5,5,0,0,0-1.83.34c-.28.07-.57.26-.82.21s-.14-.48-.26-.72-.32-.7-.51-.71c-2.36-.13-4.78-.75-7,.59a.94.94,0,0,1-.4.13l-4.89.14c-.65,0-1.3-.05-2,0a1,1,0,0,0-.69.53c-.38,1.33-.72,2.68-1,4a7.45,7.45,0,0,0-.45,2.62,6.77,6.77,0,0,1-.17,3.23c-.23.74-.05,1.16.85,1.2s1.33.67,1.07,1.59a7.08,7.08,0,0,1-.47,1.18c-.31.66-.69,1.29-1,2s-.47,1.46.65,1.73a3.42,3.42,0,0,1-.46.66c-1.26,1.05-2.52,2.08-3.8,3.1-.11.09-.34,0-.47.1s-.68.39-.69.6a1.21,1.21,0,0,0,.51.82c.16.14.49.07.73.13.44.1,1.1,0,1.08.66s-.68.4-1.05.43a1.36,1.36,0,0,0-1.36,1.89,8.11,8.11,0,0,0,.4,1c.64,1.48,1.62,2.85,1.47,4.61,0,.15.35.45.58.5.77.19,1.07.54.92,1.3a5.66,5.66,0,0,1-.39,1.29,5.83,5.83,0,0,0-.67,4.19,27.05,27.05,0,0,0,1.83,5.47,1,1,0,0,1-.18.93,2.23,2.23,0,0,0-.89,2.54c.25,1.24.64,2.45,1,3.67a1.51,1.51,0,0,1-.83,2.09,1.06,1.06,0,0,0-.54.68,32.42,32.42,0,0,0-.21,5.11,12.72,12.72,0,0,0,1.16,3.2,5.51,5.51,0,0,0-.56,4.82c.26.73.75,1.38,1.06,2.1.13.3.18.93,0,1-.57.31-.64.8-.75,1.33-.15.72-.4,1.42-.51,2.14a26.69,26.69,0,0,0-.55,4.84,20.49,20.49,0,0,1-.82,7.75,13.17,13.17,0,0,0-.54,2.74,2.4,2.4,0,0,0,1.16,2.54,5,5,0,0,1,2.14,2.4,4.31,4.31,0,0,0,.36.55c.91-1,.93-1,2.13-.28a1.4,1.4,0,0,0,.3.15c.37.14.9.23.67.75a6.23,6.23,0,0,1-1,1.35s-.34-.09-.47-.21c-.59-.53-1.14-.46-1.4.31s-.32,1.59-.5,2.39a10.69,10.69,0,0,1-.36,1.09,7.16,7.16,0,0,0-.61,1.75c-.16,3-.21,6-.36,9.06-.14,2.62-.35,5.24-.55,7.85-.06.78.24,1.18,1,1.22s1.3.1,1.94.13c2.66.11,5.31.22,8,.31,1.18,0,1.24-.08,1.12-1.19,0-.21.18-.64.3-.64a22.65,22.65,0,0,1,2.85.07c.18,0,.42.37.47.61s-.29.33-.45.49a2.65,2.65,0,0,1-.35.23,3,3,0,0,0,2.8-.73c.7-.6.91-.58,1.54.23l-.89,1.11.1.22a7.18,7.18,0,0,0,.92-.46,17.16,17.16,0,0,1,1.43-1,2,2,0,0,1,2.7.56,1.62,1.62,0,0,0,.87.56,20.6,20.6,0,0,0,2.36.09c.74,0,.88-.29.55-.94-.1-.19-.08-.66,0-.68a6.14,6.14,0,0,1,2.28-.65c1.82.1,3.62.52,5.44.64,2.16.13,4.34.07,6.51.09a1.61,1.61,0,0,0,.66-.1,10.68,10.68,0,0,1,4.63-.79c.66,0,1.25,0,1.17-1,0-.26.48-.56.74-.84.19.25.48.48.53.76a1.7,1.7,0,0,0,1.37,1.52,6.23,6.23,0,0,1,1.3.35,7.86,7.86,0,0,0,6,.26c.46-.16.92-.34,1.39-.52.64,1.13.64,1.1,2.1.91a13.68,13.68,0,0,1,2.78-.14c2,.16,3.92.48,5.89.68,1.2.13,2.42.16,3.63.21.59,0,1.08-.09.95-.9,0-.23.13-.69.27-.72a1.21,1.21,0,0,1,.82.25c.54.41,1,.91,1.54,1.33s.77.51,1.2-.07a3.56,3.56,0,0,1,4-1.43,5.84,5.84,0,0,0,1.5.21c4.18,0,8.36.05,12.53-.08,4.79-.15,9.53-.07,14.15,1.46a1.53,1.53,0,0,0,1.89-1.16c.2-.81.64-.92,1.3-.65s1.39.64,2.1.89c.35.13.88.29,1.12.12,1-.68,2.09-.57,3.17-.71a11,11,0,0,0,1.5-.42A8.46,8.46,0,0,1,453,314a7.58,7.58,0,0,0-.3-1.29c-.83-1.56-1.71-3.1-2.61-4.62a.62.62,0,0,0-.54-.25,3.46,3.46,0,0,1-2.58-.54c-1.33-.61-2.63-1.29-4.2-.89a22.83,22.83,0,0,1-3.19.53,5.25,5.25,0,0,1-1.4-.23,5.09,5.09,0,0,0-1-.24,34.38,34.38,0,0,1-8.14-1,29.94,29.94,0,0,0-3.68-.55c-.3,0-.87.19-.91.39-.18.85-.55.63-1.09.37-.28-.14-.9-.22-1-.1-.42.74-1.05.52-1.65.49a33,33,0,0,1-3.72-.2,8.17,8.17,0,0,1-2.13-.89,8.28,8.28,0,0,1-1-.63c-.17.55-.31,1-.41,1.3-.49,0-.94-.13-1.24,0a1.08,1.08,0,0,1-1.61-.35,5.68,5.68,0,0,1-.38-1.62,4.83,4.83,0,0,0-3.29.39,4.89,4.89,0,0,1-1.77.6c-2.6.1-5.2,0-7.79.18s-5.28-.23-7.55,1.68c-.53.45-1.76.31-2.59.12-1.56-.37-3.14-.74-4.65-.12-1.33.55-2.36.62-3.2-.69,0-.07-.14-.11-.17-.18-.3-.64-.82-.55-1.37-.44a3.9,3.9,0,0,0-2.38,1.64c-.44.58-.9,1.09-1.76.61-.18-.1-.56.09-.81.22-.42.22-.78.56-1.21.75a.77.77,0,0,1-.72-.16,3.47,3.47,0,0,1-.52-1.48c0-.94-.16-1.32-1.12-1.37a13.24,13.24,0,0,0-3,.22c-1.38.25-2.74,1.05-4.07-.16a.77.77,0,0,0-.64.05c-.08.27-.15.7,0,.85a2.37,2.37,0,0,0,1.07.6c.4.11.85,0,1.26.11.26.06.63.25.69.45s-.15.56-.33.77a1.5,1.5,0,0,1-.64.39c-1.68.65-2.57.45-3.84-.92-1.75-1.88-3.73-3.1-6.43-2.43a1,1,0,0,1-.5,0c-1.13-.42-2.05.38-3.08.52-.22,0-.38.54-.56.84a5.17,5.17,0,0,0,.75.36,5,5,0,0,0,.86.12c-1.62,1.52-3.13,2-4.07,1.2l1-1.17-1.17-.41a1.67,1.67,0,0,1,1.66-1.12,18.41,18.41,0,0,0,2.46-.55,2.32,2.32,0,0,0-2.51-.11,1.57,1.57,0,0,1-.83.2c-.9,0-1.78-.13-1.88-1.32,0,0,0,0-.22-.19l-2.58,2a4.15,4.15,0,0,1,.34-1,6.58,6.58,0,0,1,1.27-1.45c1.07-.74,1.06-1.85,1.28-2.92-.41-.05-.89.05-1.08-.15a24.66,24.66,0,0,1-1.7-2.05c1.2-.56,1.6-1.4,1-2.19a3.3,3.3,0,0,0-1.14-.82c-.78-.42-.89-.85-.33-1.56l1.33.64c0-.79.14-1.43,1.08-1.36,0-.23,0-.39,0-.55a17.22,17.22,0,0,1-.2-2.57c.05-.77,0-1.26-.9-1.35a1.64,1.64,0,0,1-.76-.37c-.72-.54-.9-1.37-.43-1.8s.82-.72,1.24-1.09a.91.91,0,0,1,.62,1.29,1.06,1.06,0,0,0,.43.84c.14.1.61-.05.79-.23.44-.46.3-2.47-.1-3-.56-.76-1.06-1.57-1.62-2.33s-.51-1.12.38-1.33c-.05-.25-.09-.45-.14-.64-.2-.75-.06-.9.71-.77l.33.08c.76.15,1,0,.69-.69a2.13,2.13,0,0,1,.88-2.76,1.37,1.37,0,0,0,.45-1,6,6,0,0,0-.44-1.88c-.57-1.35-1.32-2.64-.91-4.2a.44.44,0,0,0-.06-.32c-.8-.94-.4-1.91-.15-2.9a6.71,6.71,0,0,0,.2-4.08,1.72,1.72,0,0,1,.88-2.38c.25-.15.33-.59.48-.89a6.71,6.71,0,0,0-1.09-.11c-.2,0-.39.23-.61.27a1,1,0,0,1-.71,0,2.27,2.27,0,0,1-.85-2.11c.11-.78.83-.6,1.35-.71a1,1,0,0,0,.25,0c.48-.19.83-.39.37-1a13.3,13.3,0,0,1-1.08-1.61c-.72-1.24-.69-2.25,0-3l.54.67.06-.27a6.61,6.61,0,0,0,1.2-.32.8.8,0,0,0,.39-.6c0-.73-.07-1.47-.1-2.2a3.22,3.22,0,0,0-1.84-3.22,4.23,4.23,0,0,1,.47-.65c.67-.61.68-1-.06-1.58-.39-.31-.85-.55-1.25-.85a2,2,0,0,1-.25-3.12,1,1,0,0,0,.21-1.35,2,2,0,0,1-.08-1.57c.24-1.16.51-2.51-.55-3.47s-.8-2.27-1.08-3.51a1.36,1.36,0,0,1,.82.4c.24.34.35.77.58,1.12.13.19.39.44.59.44a1.18,1.18,0,0,0,.94-1.64c-.29-.69-.46-1.43-.73-2.13a1.74,1.74,0,0,0-.59-.73c-.44-.32-.6-.61-.21-1.1a2.41,2.41,0,0,0,.41-2.32,2,2,0,0,1,.18-1.06c.08-.26.39-.49.38-.73,0-1.08.37-1.72,1.5-1.79,0,0,.05-.09.19-.34-.47-.41-1-.88-1.49-1.3s-.78-1.08-.2-1.65a6,6,0,0,1,1.62-1c.41-.2.74-.39.48-.85-.06-.11-.56-.07-.8,0-1,.42-1.59.07-1.54-1a2,2,0,0,1,0-.42,2.8,2.8,0,0,0-.54-2.47c-.2-.25-.41-.73-.31-1,.28-.61,0-.94-.37-1.33-.52-.58-1-1.18-1.49-1.8a2.74,2.74,0,0,1-.27-.88,5,5,0,0,1,1,.1c.54.17,1.05.6,1.56.59a1.82,1.82,0,0,1,1.82,1.06,15.39,15.39,0,0,0,1-1.33c.73-1.23.87-1.31,2.21-.85.32-1.69,1.53-2.63,3.07-3.51a5.9,5.9,0,0,1-.15.87c-.18.47-.43.92-.59,1.39-.27.85-.15,1.06.73,1.22.55.1,1.12.11,1.33.8,0,.12.3.22.48.26a18.14,18.14,0,0,1,2.78.65,2.22,2.22,0,0,0,2.47-.45c1.57-1.18,3.16-2.35,4.8-3.45a7.35,7.35,0,0,1,3.41-1.26c.05.94.13,1.78.1,2.61,0,.2-.37.49-.61.56-1.3.36-2.61.64-3.9,1-.19,0-.28.45-.41.68.25.11.53.35.73.3.71-.18,1.39-.47,2.08-.71s1-.35,1.55.28c.67.81,1.37.61,1.89-.27a1.61,1.61,0,0,1,.86-.73c.92-.24,1.88-.33,2.81-.52.67-.14,1.18-.11,1.17.75.89-.72,1.64-1.54,2.88-1a2.46,2.46,0,0,0,.67,0,2.59,2.59,0,0,1,1.91.75,1.54,1.54,0,0,0,1,.37,15.77,15.77,0,0,0,2.28,0c2.27-.18,4.55-.27,6.68-1.45.13.55.24,1,.4,1.62.39-.45.67-.73.91-1,1.26-1.65,2.52-3.31,3.8-4.95a.75.75,0,0,1,.56-.23c.1,0,.25.28.26.44a34.09,34.09,0,0,1,.27,3.63,7.21,7.21,0,0,1-.49,1.93c-.1.35-.27.68-.4,1,.39.11.78.23,1.18.31a1.2,1.2,0,0,0,.42,0c1.09-.16,1.26-.53.86-1.53a8.6,8.6,0,0,1-.31-1.62,26.09,26.09,0,0,1,2.85,1.79c.85.57,1,.44,1.31-.51a11.8,11.8,0,0,1,.81-1.73l.41.08c.1.77.19,1.54.3,2.46l2.42-1.61c.12.33.16.43.19.54.41,1.75.41,1.75,2.13,1.83a10.12,10.12,0,0,0,1.1.05,1.75,1.75,0,0,0,.79-.21,19.59,19.59,0,0,0,4.1-3.72,3.1,3.1,0,0,1,1.4-.85c.53-.17.85,0,.77.75a6.7,6.7,0,0,0,.21,2.56c.25.82.92.83,1.38.08.57-.93,1-1.93,1.64-2.85,1.14-1.74,2.19-3.57,4-4.76.28-.18.8-.43,1-.31a2.09,2.09,0,0,0,2.12.08c.1,0,.24.06.42.12a6.54,6.54,0,0,1-.5.86c-2.18,2.47-4.35,4.94-6.57,7.37-.4.44-.36.76,0,1.06a5.64,5.64,0,0,0,1.15.66,7.12,7.12,0,0,0,.81.3l-.62.72a4.89,4.89,0,0,0,3.45.71c.12-.07.18-.21.29-.3.59-.46,1.17-.93,1.78-1.36s1.35-.57,1.5-1.59l-4.95,1.63a8.09,8.09,0,0,1,.14-.84,6.74,6.74,0,0,1,5.2-3.85c1.1-.05,1.37.25,1.13,1.35-.08.38-.26.74-.36,1.12a8.48,8.48,0,0,0-.13.88,6,6,0,0,0,.95,0c.55-.06,1.1-.18,1.65-.26,0,0,.11.09.18.15l-.56.82a6.09,6.09,0,0,0,1.2-.09,9.66,9.66,0,0,0,1.36-.69,2.15,2.15,0,0,1,2.39.06l2.2,1.5.28-.08a7.78,7.78,0,0,0-.17-1.36,20.37,20.37,0,0,1-.5-7.89c.11-1,.33-1.11,1.19-.66,1.17.62,2.33,1.26,3.43,2a1.93,1.93,0,0,1,.61,2.87,9.2,9.2,0,0,0-.75,1.42,5.1,5.1,0,0,0-.13,1.25c.79-.43,1.3-.82,1.76.16.07.16.68.26.9.14a2.47,2.47,0,0,0,.92-.95.72.72,0,0,1,1-.4c.92.5,1.38,0,1.85-.66a9.37,9.37,0,0,1,4.29-3.29,1,1,0,0,1,.76.15c.08.82.7.79,1.24.84s1,.38.79,1c-.61,2.27.06,4.87-2,7a9.63,9.63,0,0,1,1.25,0,5,5,0,0,1,1.94.45,8.66,8.66,0,0,1,3.29,5.06,1,1,0,0,1-.41.94c-.81.27-.88.81-.84,1.52a3.87,3.87,0,0,0,1,2.45l1.17,1.34a2.53,2.53,0,0,1,.28,3.27,2.15,2.15,0,0,1-2.52.65c-.19,0-.39-.08-.58-.11-1.15-.2-1.28-.38-1.11-1.51a8.21,8.21,0,0,1,.18-.83c.27-1.07,0-1.57-1.15-2.11-.05.4-.11.79-.14,1.18-.23,3-.49,6-.66,9a2.68,2.68,0,0,0,.55,1.58C455.92,231.43,456.27,231.32,456.57,230.64ZM353.86,201.1l-2.62-2.66,2.69-.87,0,.37a8.79,8.79,0,0,0,.62,1.13C354.91,199.64,354.82,200.05,353.86,201.1Z" transform="translate(-329.15 -190.18)"/><path class="cls-1" d="M353.85,244.51a17.83,17.83,0,0,0,2.14,2.6,3.89,3.89,0,0,0,5.28-.62,10.74,10.74,0,0,0,.47-5.09c-.17-.38-.4-.74-.6-1.1-.11-.19-.21-.39-.35-.65a5.05,5.05,0,0,1,.93-.28c1.09-.13,2.19-.24,3.28-.31,1.37-.07,1.39-.05,1.45,1.29.06,1.59.28,3.06,2.11,3.62a.67.67,0,0,1,.33.56,1,1,0,0,0,.68,1.3c1,.44,2.14.72,3.14,1.21a9.22,9.22,0,0,0,5.31.5,3.45,3.45,0,0,0,1.66-.73,7.74,7.74,0,0,0,2.41-3.8c.74-2.31,1.24-4.68,1.82-7,.12-.52.35-.7.82-.43a20.61,20.61,0,0,1,2.16,1.3,3.76,3.76,0,0,0,2.43.8,4.46,4.46,0,0,1,1.15.27A10.2,10.2,0,0,1,390,239a.88.88,0,0,1-.51.4,23.45,23.45,0,0,1-2.62.43c-.49,0-1,0-1.12.61-.25,1.06-.52,2.12-.8,3.18a2,2,0,0,0,.48,2,14.18,14.18,0,0,1,1.44,1.76,3.81,3.81,0,0,0,4.74,1.41c.43-.2.84-.45,1.25-.69a8.87,8.87,0,0,0,4.64-9.06c-.23-2.53-.67-5-1-7.54a57.2,57.2,0,0,1,.05-12.34,6.56,6.56,0,0,0-5-7.28c-1.94-.6-3.92-1-5.89-1.51a4.39,4.39,0,0,0-3.18.61,2.5,2.5,0,0,0-1.42,2.65,11.22,11.22,0,0,0,.52,2.13c.76,2.08,2,2.86,4.15,2.34.6-.15,1.21-.26,1.82-.39,2.69-.57,2.42,0,2.73,1.78a36.57,36.57,0,0,1,.28,4.2l-.28,0c-.28-.34-.58-.68-.85-1a4.38,4.38,0,0,0-5.13-1.6c-.47.16-.77.13-1-.4a36.27,36.27,0,0,0-1.68-3.57,6.83,6.83,0,0,0-1.67-1.92c-.64-.5-1.33-.05-1.36.79a7.11,7.11,0,0,0,.12,1.6,30.92,30.92,0,0,1,.48,9.35c-.34,2.91-.86,5.8-1.33,8.69a8.16,8.16,0,0,1-2.36,4.66c-.61.59-1.22,1.16-1.85,1.14l-2-2.39.59-.23a7.77,7.77,0,0,0,3.58-2.32c1-1.19,1.41-2.41-.38-3.52a1.3,1.3,0,0,1-.5-1c-.15-2.84-.23-5.69-.37-8.53,0-.63.11-1,.77-1.18a3,3,0,0,0,1.91-2.48,2.36,2.36,0,0,0-1-2.81c-.74-.46-1.43-1-2.14-1.51a1.66,1.66,0,0,1-.47-.55,24.38,24.38,0,0,0-1.29-2.36,5.17,5.17,0,0,0-3.5-2.44c-1.34-.15-1.86.47-1.54,1.77.2.79.48,1.55.71,2.34s.1,1.08-.77,1.14-1.47.08-2.2.16-1-.15-1.23-.83a8.71,8.71,0,0,0-1.42-2.45,1.34,1.34,0,0,0-2.32.2,14.32,14.32,0,0,0-1.17,2.86,1.63,1.63,0,0,1-1.14,1.29,5,5,0,0,0-3.09,1.92,1.45,1.45,0,0,0,.28,2.23c.6.52,1.31.9,1.87,1.44a1.73,1.73,0,0,1,.5,1.13c0,2-.22,3.95-.23,5.92a20.49,20.49,0,0,0,.42,3c0,.18,0,.37.05.62-.41,0-.77,0-1.13,0-.75-.06-1.51-.21-2.27-.2-.95,0-1.95,1.08-1.59,1.76.74,1.39,1.26,3,2.65,3.94.57.41,1.12.85,1.59,1.21-1,1-1.89,2-2.79,2.93A1.45,1.45,0,0,0,353.85,244.51Zm31.34-17.9c.51.15,1,.23,1.56.36,1.5.38,2.8.26,3.54-1.44l.21.13c0,1.5.11,3,.09,4.51,0,.67-.53.45-.95.39-1.08-.14-2.17-.27-3.26-.31a2.75,2.75,0,0,0-1.19.37c-.55.29-.81.12-.84-.45-.05-1-.07-1.92-.09-2.87C384.26,226.67,384.55,226.43,385.19,226.61Zm-17-2.1a1.9,1.9,0,0,0-1.11-1.11,16.65,16.65,0,0,0-2.66-.25,2.84,2.84,0,0,1-.75-.31c.23-.15.45-.42.69-.45,1.18-.1,2.36-.14,3.55-.22.64,0,.94.22.91.89s0,1.18,0,1.78h.08c0,.59,0,1.18,0,1.77s-.21.85-.9.83a23.05,23.05,0,0,0-3.42.25c-.53.08-.83,0-.94-.52s.14-.89.7-.89c.79,0,1.58.1,2.37.1C367.86,226.38,368.54,225.59,368.18,224.51Zm-4.65,8c.32-1.75.45-1.83,1.87-1.16.78.36,1.65.53,2.47.82a2.11,2.11,0,0,1,.5.36c-.17.16-.32.47-.49.47-1.43,0-2.85,0-4.35,0A4.42,4.42,0,0,1,363.53,232.47Z" transform="translate(-329.15 -190.18)"/><path class="cls-1" d="M372.78,298.75c1,.63,2,1.3,3,1.87,1.8,1,2.52.87,4-.48a20.36,20.36,0,0,0,1.86-1.72,9.24,9.24,0,0,0,1.25-2,17.21,17.21,0,0,0,.57-1.76c.27-.74.6-.82,1.24-.38,1.12.76,2.24,1.52,3.38,2.24a7.56,7.56,0,0,0,5.8,1.24,3.29,3.29,0,0,0,2.34-1.65,10.68,10.68,0,0,1,1-1.73,4.75,4.75,0,0,0,1.05-3.29,1,1,0,0,0-.93-1.1,6.73,6.73,0,0,0-1.1,0,39.68,39.68,0,0,1-4.63-.28,9.18,9.18,0,0,1-3.89-1.91c1-.46,1.85-.94,2.74-1.24,1.93-.65,2.34-1.56,1.41-3.37-1.3-2.52-4-2.8-5.83-.57-.58.73-1.08,1.52-1.63,2.27-.69.95-.87.94-2,.57a12,12,0,0,0-2.89-.58,1.61,1.61,0,0,0-1.29.7c-.17.35.11,1,.31,1.43.13.28.47.47.7.72.67.75,1.35,1.5,2,2.29.34.41.56,1,0,1.31a16.79,16.79,0,0,1-3.27,1.31c-.88.24-1.21-.15-1.26-1.11,0-.39,0-.79,0-1.18.08-2.09.17-4.17.27-6.26a2.52,2.52,0,0,1,.17-1,.83.83,0,0,1,.63-.34,26.6,26.6,0,0,0,3.44.17,8.27,8.27,0,0,0,5.29-2.16,3.22,3.22,0,0,1,1.22-.7c1.95-.68,3.74-1.6,4.5-3.65a56.18,56.18,0,0,0,1.6-5.42,5,5,0,0,0,.08-1.68,10.19,10.19,0,0,0-2.53-5.34,4.56,4.56,0,0,0-4.56-1.79c-2.05.33-4.08.8-6.08,1.33a11.52,11.52,0,0,0-2.53,1.15c-1.37.73-2.75,1.44-4,2.28s-1.27,1.44-.25,2.5a6.28,6.28,0,0,0,1.15,1,8.36,8.36,0,0,0,6.62.81,34.36,34.36,0,0,0,4-1.51c.29-.11.76-.23.91-.09a1.09,1.09,0,0,1,.15.93c-.53,2-1.08,4-1.67,5.93a1.18,1.18,0,0,1-.68.63c-1.54.53-3.11,1-4.65,1.49-1.79.61-2.42.44-3.39-1.09a3.44,3.44,0,0,1-.28-.8,5.18,5.18,0,0,1,.88,0,2.37,2.37,0,0,1,.53.26,3.85,3.85,0,0,0,3.05.13c.7-.28,1.37-.65,2.09-.9a1.38,1.38,0,0,0,1-1.48,2.21,2.21,0,0,0-2.74-2.2,36.59,36.59,0,0,0-4.61,1.4c-.62.24-1.07.93-1.59,1.41-.14.13-.27.34-.42.36a1.36,1.36,0,0,0-1.12,1.24c-.52,2.38-1,4.78-1.4,7.18-.15.83-.18,1.68-.27,2.52-.31,2.68-.71,5.36-.89,8.05A4.2,4.2,0,0,0,372.78,298.75Z" transform="translate(-329.15 -190.18)"/><path class="cls-1" d="M405.3,296.37a3.3,3.3,0,0,0,2.71,2.77,25.68,25.68,0,0,1,2.77.75,3.5,3.5,0,0,0,3.43-.61c1.83-1.32,2.46-3.37,3.1-5.39.3-.93.42-1.05,1.38-.82s2.14.51,3.2.8a27.43,27.43,0,0,1,9.51,4.6,12.7,12.7,0,0,0,3,1.8c2.38.94,4.85.43,7.28.11a2.25,2.25,0,0,0,1.09-.59,6.85,6.85,0,0,0,1.92-4.22,1.69,1.69,0,0,0-.2-1.13,2.87,2.87,0,0,1-.42-2.1c.07-.66-.26-.94-.89-.93l-.76,0a27.62,27.62,0,0,1-5,.21A75,75,0,0,1,430,290c-2-.48-2-.52-1.76-2.54.06-.58.32-.84.92-.82,1,0,1.92,0,2.88,0v0h1.44c.48,0,1,0,1.44,0,1.37,0,1.84-.55,1.9-1.92a2.43,2.43,0,0,0-.77-1.9c-.73-.74-1.48-1.47-2.21-2.21a2.23,2.23,0,0,0-3.18-.15,11.59,11.59,0,0,1-2.31,1.34c-.91.41-1.18.18-1.67-1-.31-.78.41-.78.77-1.05.11-.08.27-.1.38-.17a39,39,0,0,0,3.29-2.18c1-.79,1-1.5.28-2.53-.36-.54-.79-1-1.2-1.53a2.28,2.28,0,0,0-2.83-.51,11.26,11.26,0,0,1-4.2,1.49c-2.28.48-4.59.84-6.9,1.21-1.52.24-1.81.86-1.05,2.19,1.14,2,3.11,2.64,5.06,3.39a2.15,2.15,0,0,1,1.17.94,12.09,12.09,0,0,1,.46,5.85.75.75,0,0,1-1,.7c-.89-.12-1.79-.24-2.69-.31a1.54,1.54,0,0,1-1.52-1.22,7.58,7.58,0,0,0-.71-1.8,10.49,10.49,0,0,0-1.5-2.11,2.44,2.44,0,0,0-3.12.13c-1,.75-1.09,1.38-.59,2.6a22.53,22.53,0,0,1,.86,2.38,3.41,3.41,0,0,1-2.58,4.47c-1.18.3-2.35.59-3.51,1-.91.28-1,.55-.6,1.43A5.82,5.82,0,0,1,405.3,296.37Z" transform="translate(-329.15 -190.18)"/><path class="cls-1" d="M444.05,244.66A115.31,115.31,0,0,0,444,222.6a1.54,1.54,0,0,0-.14-.57c-1.15-2.72-2.21-5.48-3.5-8.13a5.1,5.1,0,0,0-7.88-2.1c-1.23.89-2.42,1.83-3.61,2.78-.42.34-.77.58-1.35.26a1,1,0,0,0-.93.06,5.12,5.12,0,0,0-2,3,28.5,28.5,0,0,0,0,8.35,3,3,0,0,0,2.43,2.47,3,3,0,0,1,1.13.74c.25.22.37.57.6.81a7.44,7.44,0,0,0,8.53,2,6.32,6.32,0,0,1,.16,1.11c0,1.58-.08,3.16-.22,4.74a15,15,0,0,1-.56,3,2.22,2.22,0,0,1-2.36,1.86c-1.82,0-1.82,0-2.22,1.73-.34,1.44.39,3.84,1.47,4.44a7.53,7.53,0,0,0,5.68.5,7.28,7.28,0,0,0,4-3.1A4,4,0,0,0,444.05,244.66Zm-14.54-24.35a1.16,1.16,0,0,1,.58-.78c1.72-.75,3.48-1.4,5.2-2.14,1.26-.53,1.66-.34,1.88,1,0,.14,0,.28.05.42.12,1.3,0,1.42-1.3,1.21a8.18,8.18,0,0,0-5.21,1.3,10,10,0,0,1-1,.41A5.21,5.21,0,0,1,429.51,220.31Zm7.89,8.32c0,.11-.14.22-.22.35a19.5,19.5,0,0,1-1.7-1c-1.54-1.12-3.37-.91-5.1-1.15-.89-.12-1.14-.5-.76-1.31a1.14,1.14,0,0,1,.94-.55c2.11.59,4.05-.36,6.07-.58.47-.05.78,0,.79.44C437.46,226.1,437.42,227.36,437.4,228.63Z" transform="translate(-329.15 -190.18)"/><path class="cls-1" d="M413.69,225.72c-.82.29-1.66.53-2.49.81s-.94.13-1.06-.72a17.47,17.47,0,0,0-.71-3.45,5.81,5.81,0,0,0-1.44-2.09c-.82-.8-1.69-.51-2.11.58-.12.31-.18.65-.33,1a25.39,25.39,0,0,0-2.45,11,48.15,48.15,0,0,0,1.61,11.87c.25,1,.56,2.12,1.63,2.54a14.69,14.69,0,0,0,3.39.87c.74.11,1.24-.45,1.63-1.13.82-1.45.55-2.92.29-4.43-.51-3-1.67-5.82-1.48-8.54,0-1.12,0-1.89,0-2.64,0-.21.42-.58.59-.55a10.87,10.87,0,0,0,4.43-.36,8.08,8.08,0,0,0,4.45-2.91,38.05,38.05,0,0,0,3.57-5.61,3.56,3.56,0,0,0,.33-2.51,26.15,26.15,0,0,0-2-4.71c-1.92-3.56-4.56-4.76-8.45-3.8a20.93,20.93,0,0,0-7.2,3.64,5.23,5.23,0,0,0-1.36,1.69,1.14,1.14,0,0,0,.57,1.69,4.43,4.43,0,0,0,3.27.5c1.09-.27,2.14-.7,3.23-1a31.77,31.77,0,0,1,4.18-.9,1,1,0,0,1,1.18,1.16c-.14,1.48-.35,1.72-1.44,1.61A26.39,26.39,0,0,0,412,219a5.12,5.12,0,0,0-2.27.77.89.89,0,0,0,0,1.63c1.38.87,2.78,1.72,4.23,2.47.77.39.71.83.33,1.38A1.39,1.39,0,0,1,413.69,225.72Z" transform="translate(-329.15 -190.18)"/><path class="cls-1" d="M432.79,277.46c-.44.78-.31,1.17.55,1.37,1.87.45,3.64,1.28,5.67,1.13a3.29,3.29,0,0,0,3.3-2.36,10,10,0,0,0,.22-2.67c0-1.35-.18-2.7-.36-4-.23-1.85-1.69-2.75-3.13-3.38a23,23,0,0,0-9.81-2.2,1,1,0,0,1-1.17-.78,8.24,8.24,0,0,0-3.45-4.25,4,4,0,0,0-2.55-.61,9,9,0,0,0-4.64,2.46c-.94.91-.86,1.6.11,2.5.68.63,1.38,1.25,2.07,1.87l-.08.45c-1.28.38-2.57.73-3.84,1.14a20,20,0,0,0-2.82,1.08c-.94.46-1.07,1.17-.65,2.11a5.55,5.55,0,0,0,2.45,2.48c1,.56,2,1.28,3.24.74.7-.3,1.38-.64,2.05-1,1.23-.63,2.4-1.39,3.68-1.9a15.33,15.33,0,0,1,9.3-.7c2,.46,2.6,1.7,1.64,3.48C434,275.44,433.36,276.43,432.79,277.46Z" transform="translate(-329.15 -190.18)"/><path class="cls-1" d="M361.92,284.08a.83.83,0,0,0-.35,1.21,4.89,4.89,0,0,0,3.59,2.8c2.87.66,6.69-2.18,6.45-5.49a8.66,8.66,0,0,0-2.23-5.17c-1.69-1.93-1.64-1.89.28-3.65a6.06,6.06,0,0,0,1.65-2.37c.75-2.2-.39-4-1.66-5.65a3.58,3.58,0,0,0-3.16-1.48,11.1,11.1,0,0,0-3.06.57,22.11,22.11,0,0,0-7.56,4.36c-1.63,1.47-1.48,1.52-.36,2.9s3.1,2,4.37,1.54c1-.39,1.95-.87,2.92-1.32l1.55-.72.16.15a7.85,7.85,0,0,1-.32.8c-.58,1.21-1.21,2.4-1.75,3.64a2,2,0,0,0,1,2.95,2,2,0,0,1,.6,3.36A10.31,10.31,0,0,1,361.92,284.08Z" transform="translate(-329.15 -190.18)"/><path class="cls-1" d="M420.2,230.13a1.29,1.29,0,0,0-1,1.51,4,4,0,0,0,4,3c2.15-.33,2.36-.11,1.91,2.06,0,.18-.1.37-.22.79a8.4,8.4,0,0,1-.67-.86,2.11,2.11,0,0,0-3.11-1,5.32,5.32,0,0,1-.94.35.75.75,0,0,1-1-.65,24.07,24.07,0,0,0-.77-2.5c-.23-.65-.74-1.23-1.42-1.12a2.33,2.33,0,0,0-1.41,1,18.45,18.45,0,0,0-1.43,3.13,5.14,5.14,0,0,0,2.74,6.73,2.1,2.1,0,0,1,1.23,1.15,2.52,2.52,0,0,0,1.18,1.27,15.89,15.89,0,0,0,6.13,1.75,2.49,2.49,0,0,0,2.82-2.5c.06-.54.34-.71.78-.93a4.4,4.4,0,0,0,1.74-1.33,4.46,4.46,0,0,0,.54-2.18c.06-1.44,0-2.88-.06-4.32a3.8,3.8,0,0,0-1.52-3.15c-.57-.4-1.12-.85-1.68-1.27C425.59,229.3,423,229.26,420.2,230.13Zm4.17,10.61c0,.14-.34.33-.52.33-1.09,0-2.18,0-3.26-.07-.7-.05-.84-.59-.75-1.18s.62-.47,1.05-.41.72.08,1.09.11a2,2,0,0,0,2.34-1.21l.25.08C424.51,239.18,424.47,240,424.37,240.74Z" transform="translate(-329.15 -190.18)"/><path class="cls-1" d="M356.78,298.87a3.49,3.49,0,0,0,1.66.75,2.92,2.92,0,0,0,2.84-3.73,10.25,10.25,0,0,1-.76-2.4,84.88,84.88,0,0,1,.22-8.59,14.34,14.34,0,0,0-1.52-8.65,1.78,1.78,0,0,0-1.19-.73c-.61-.08-.79.51-.92,1-.63,2.54-1.14,5.12-1.93,7.61a21,21,0,0,0-1.11,7.4c0,.56,0,1.13,0,1.69A6.53,6.53,0,0,0,356.78,298.87Z" transform="translate(-329.15 -190.18)"/><path class="cls-1" d="M405.19,279.53a3.6,3.6,0,0,0,3.5,2.18,4.75,4.75,0,0,0,3.43-6.47,3.67,3.67,0,0,1-.48-2.68,1.28,1.28,0,0,0-.13-1,29.08,29.08,0,0,0-2.06-2.63,2.76,2.76,0,0,0-4.31.29,13.22,13.22,0,0,0-1,2.64c.12,2,.14,3.43.32,4.83A11,11,0,0,0,405.19,279.53Z" transform="translate(-329.15 -190.18)"/><path class="cls-1" d="M462,249.52a.51.51,0,0,0,.11-.94,3.23,3.23,0,0,1-.39-.44c-.47-.64-.82-.63-1.24.05a10.78,10.78,0,0,1-.77,1.21.78.78,0,0,1-.62.26c-.18,0-.45-.33-.44-.49.05-.68.18-1.35.34-2.35-.57-.54-1.42-1.35-2.29-2.14a1,1,0,0,0-.62-.23c-.18,0-.51.17-.51.25a5.59,5.59,0,0,0,.28,2.07,2.88,2.88,0,0,1,.37,2.31c-.29,1-.13,1.29.89,1.45A8.59,8.59,0,0,0,462,249.52Z" transform="translate(-329.15 -190.18)"/><path class="cls-1" d="M463,254c-.12.5-.23,1-.38,1.57a6.46,6.46,0,0,0-1.29-.91,2.6,2.6,0,0,0-1.41-.08,1.38,1.38,0,0,0-.08,1.11,2.08,2.08,0,0,0,1.17.85,11.48,11.48,0,0,0,2.21,0C463.74,255.86,463.7,255.07,463,254Z" transform="translate(-329.15 -190.18)"/><path class="cls-1" d="M348,222.2c-1.19.76-2.25,1.46-3.36,2.18a6.43,6.43,0,0,1,.94,1.05c.4.68.82.43,1.22.08a2,2,0,0,0,.58-.82C347.66,223.9,348.23,223.17,348,222.2Z" transform="translate(-329.15 -190.18)"/><path class="cls-1" d="M460.29,290.19a.59.59,0,0,0-.12-.2l-.32-.05a8.13,8.13,0,0,0-.17,1.38c.06,1.14.16,2.28.29,3.41a1.71,1.71,0,0,0,.33.84.79.79,0,0,0,.57.1,2,2,0,0,0,.19-.92C460.83,293.23,460.56,291.71,460.29,290.19Z" transform="translate(-329.15 -190.18)"/><path class="cls-1" d="M393,205.07a1.53,1.53,0,0,0,.49-.06c.13-.06.31-.25.29-.34a3.6,3.6,0,0,0-1.05-2.45l-.65,1.37C391.45,205,391.57,205.17,393,205.07Z" transform="translate(-329.15 -190.18)"/><path class="cls-1" d="M413.76,206.88a7.74,7.74,0,0,1,1.06-1c-1-.93-1.76-1-2.47-.19a1,1,0,0,0,.19,1.47A.83.83,0,0,0,413.76,206.88Z" transform="translate(-329.15 -190.18)"/><path class="cls-1" d="M452.54,209.24l1.31,2.7c1-.92,1.1-1.64.46-2.62C453.81,208.54,453.3,209.42,452.54,209.24Z" transform="translate(-329.15 -190.18)"/><path class="cls-1" d="M458.24,269.73c-1.34.27-.31,1.55-.92,2.14-.06.07.12.39.2.58s.1,0,.28.11c.49-1,1-2,1.46-3l-.15-.19A5,5,0,0,1,458.24,269.73Z" transform="translate(-329.15 -190.18)"/><path class="cls-1" d="M466.51,259.31l-.9,1.69a4.69,4.69,0,0,0,.57.61c.41-.27,1.11-.59,1.1-.89C467.28,260.24,466.79,259.78,466.51,259.31Z" transform="translate(-329.15 -190.18)"/><path class="cls-1" d="M463.86,249.43c-.33-.22-.8-.33-.86.29s0,1.38,0,2.27a14.43,14.43,0,0,0,1.07-1A.92.92,0,0,0,463.86,249.43Z" transform="translate(-329.15 -190.18)"/><path class="cls-1" d="M459.11,241c.11.71.14,1.3.84,1.21.21,0,.5-.47.52-.74,0-.48-.13-1-.75-1C459.48,240.51,459.26,240.87,459.11,241Z" transform="translate(-329.15 -190.18)"/><path class="cls-1" d="M459.07,260.59a1.48,1.48,0,0,0-.3,2,.84.84,0,0,0,.6.13c.09,0,.24-.26.22-.37C459.45,261.82,459.27,261.26,459.07,260.59Z" transform="translate(-329.15 -190.18)"/><path class="cls-1" d="M464.82,279.91c-.33.63.05,1,.77,1.29.31-.54.81-1,.18-1.56A1.05,1.05,0,0,0,464.82,279.91Z" transform="translate(-329.15 -190.18)"/><path class="cls-1" d="M462.49,260.91c1.47-.4,1.29-1.32.53-2.6C462.81,259.33,462.64,260.16,462.49,260.91Z" transform="translate(-329.15 -190.18)"/><path class="cls-1" d="M462.34,283.4c.23.22.46.61.68.6s.45-.4.79-.76c-.35-.23-.6-.5-.72-.45A3.09,3.09,0,0,0,462.34,283.4Z" transform="translate(-329.15 -190.18)"/><path class="cls-1" d="M456.4,211.58c-.36.77.09,1.17.75,1.58C457.4,212.07,457.23,211.74,456.4,211.58Z" transform="translate(-329.15 -190.18)"/><path class="cls-1" d="M463.07,228.19c.19,1,.64,1.24,1.44.73C464.16,228.46,464,227.77,463.07,228.19Z" transform="translate(-329.15 -190.18)"/><path class="cls-1" d="M451.66,212.44l-.26.27.77,1.37.33-.06c0-.32.11-.7,0-1S451.94,212.65,451.66,212.44Z" transform="translate(-329.15 -190.18)"/><path class="cls-1" d="M459.93,272.8c-.18.06-.24.44-.36.66l1.32.35C460.83,273,460.53,272.59,459.93,272.8Z" transform="translate(-329.15 -190.18)"/><path class="cls-1" d="M348.6,251.8c.17-.64-.28-.81-.74-.93-.07,0-.33.25-.31.35C347.66,251.77,348,252,348.6,251.8Z" transform="translate(-329.15 -190.18)"/></svg>