<?xml version="1.0" encoding="utf-8"?>
<!-- Generator: Adobe Illustrator 24.2.0, SVG Export Plug-In . SVG Version: 6.00 Build 0)  -->
<svg version="1.1" id="Layer_2_1_" xmlns="http://www.w3.org/2000/svg" xmlns:xlink="http://www.w3.org/1999/xlink" x="0px" y="0px"
	 viewBox="0 0 100.6 315.8" style="enable-background:new 0 0 100.6 315.8;" xml:space="preserve">
<style type="text/css">
	.st0{fill:#AF5452;}
</style>
<g>
	<path class="st0" d="M78,15.4c-2.5-1.9-3.7-2.9-5.1-4.1c0,1.5,0.1,3.7,0.1,4.7c0,0.8-0.1,1.6-0.2,1.8c-0.4,1.1-0.8,1.1-1.5-0.1
		c-0.2-0.4-0.2-0.9-0.1-1.3c0.3-0.7,0.5-3,0.5-5.2c-1.4,2-6.1,4.9-8.6,5.2c-0.7,0-0.8-0.2-0.4-0.4c2.9-1.2,6.7-3.6,7.9-5.4
		c-0.4,0.1-0.9,0.1-1.1,0.2c-1.7,0.3-2.1,0.3-2.9,0c-0.5-0.2-0.4-0.4,0.3-0.4c1.1-0.1,2.4-0.2,4.8-0.5c0-0.5,0-1,0-1.4
		c-1.8,0.2-4.2,0.5-5.6,0.7c-0.7,0.1-1.1,0-1.6-0.1c-0.9-0.4-0.8-0.6,0.3-0.6c1.2,0,4-0.3,6.9-0.6c0-0.4,0-0.9,0-1.3
		C70.8,6.8,70,6.9,69.5,7c-1.1,0.2-1.9,0.1-2.3-0.2c-0.3-0.2-0.2-0.3,0.3-0.3s2.4-0.2,4.3-0.4c0-0.6,0-1.1-0.1-1.5
		c-2.1,0.2-5.5,0.7-6.1,0.9c-0.8,0.2-1.6,0.1-2.1-0.1c-0.9-0.4-0.8-0.6,0.4-0.6c1.1,0,4.5-0.4,7.7-0.8c-0.1-0.9-0.2-1.3-0.4-1.6
		c-1,0.2-2.1,0.3-3.1,0.4c-0.7,0-0.7-0.2-0.3-0.3c4.5-1.2,5.8-1.8,6.1-2c0.4-0.6,0.7-0.6,2-0.2c1.3,0.5,1.4,0.9,0.7,0.9
		c-0.7,0.1-1.1,0.2-1.7,0.4c-0.9,0.3-1.7,0.5-2.8,0.6c1.2,0.4,1.3,0.7,1,1.5c2.8-0.4,5.3-0.8,5.6-0.8c0.7-0.1,1.7-0.1,2.6,0.2
		c1.7,0.6,1.1,1-1.8,1c-1.5-0.1-3.3,0-6.6,0.4c0,0.3,0,0.8,0,1.5c1.4-0.2,2.6-0.4,2.9-0.5c0.9-0.4,1.2-0.4,2.3,0.1
		c1.1,0.5,1.1,0.6,0.4,1.2c-0.1,0.1-0.2,0.2-0.3,0.4C78.5,7.1,78.7,7,79,7c1-0.2,1.9-0.2,2.4,0.1c1.1,0.7,1,0.9-1.9,0.9
		c-0.4,0-1,0-1.7,0.1c-0.1,0.4-0.2,0.8-0.2,1.1c0,0.2,0.1,0.2,0.3,0.3c0.5,0.3,0.3,0.6-0.1,0.6c-1.3,0-3.1,0.2-4.8,0.4v0.1
		c0.9,0.6,3,1.9,4.7,2.7s4.8,1.6,7.2,1.9c0.7,0.1,0.9,0.4,0.1,0.5C79.6,16.4,79.3,16.4,78,15.4z M75.5,6.3c-0.6,0-1.5,0.1-2.6,0.2
		c0,0.4,0,0.9,0,1.3c1.6-0.2,2.8-0.3,3.7-0.4c0-0.2,0-0.4,0-0.5C76.7,6.3,76.6,6.2,75.5,6.3z M72.9,8.5c0,0.4,0,0.9,0,1.4
		c3.1-0.3,3.3-0.4,3.3-0.5c0.1-0.2,0.2-0.6,0.3-1.3C75.5,8.3,74.3,8.4,72.9,8.5z"/>
	<path class="st0" d="M67.9,42.5c-1.4,2.4-3.2,4.1-6.3,5.5c-0.9,0.4-1.1,0-0.5-0.4c3-1.6,5-4.2,6-6.5c0.2-0.4,0.1-0.4-0.4-0.3
		c-0.5,0.1-1.2,0.4-2,0.7c-0.5,0.2-1.1,0.2-1.8-0.2c-0.9-0.4-0.8-0.6,0.3-0.6c1.1,0,3.1-0.4,3.6-0.8c0.6-0.4,0.9-0.4,1.7,0
		c0.9,0.5,0.8,0.6,0.3,1C68.7,41,68.3,41.7,67.9,42.5z M72.5,37.6c0.1,0.3,0.2,0.7,0.4,1.2c0.8-0.2,1.5-0.3,1.9-0.2
		c0.6,0.1,0.7,0.4,0,0.6c-0.4,0.1-1,0.3-1.7,0.5c0.1,0.4,0.1,0.9,0.1,1.5c0.7-0.1,1.3-0.1,1.6,0c0.5,0.1,0.4,0.5,0,0.7
		c-0.4,0.1-0.9,0.2-1.5,0.3c0,0.5,0.1,1.1,0,1.7c1.1-0.2,2-0.3,2.8-0.2c0.6,0.1,0.5,0.5,0,0.6c-0.5,0.2-1.2,0.3-2.8,0.5
		c0,4.1-0.1,4.6-1.1,5.9c-0.6,0.8-1.1,0.8-1.5,0.4c-0.5-0.6-1.6-1.5-2.1-1.9c-0.5-0.3-0.2-0.5,0.2-0.4c1.9,0.4,2.5,0.2,2.8-0.8
		c0.2-0.8,0.3-1.8,0.3-3c-1.3,0.2-2.2,0.2-2.9,0c-0.6-0.2-0.6-0.4-0.1-0.5c1-0.1,2-0.2,2.9-0.4c0-0.7,0-1.3,0-1.9
		c-0.9,0-1.7,0-2-0.1c-0.7-0.2-0.7-0.4-0.1-0.5c0.7-0.1,1.3-0.2,2-0.3c0-0.6,0-1.1-0.1-1.5C71,40,70.2,40,69.9,40
		c-0.7-0.2-0.7-0.5,0-0.6c0.5,0,1.2-0.2,1.8-0.3c-0.1-0.8-0.3-1-0.7-1.2c-1.1-0.6-0.9-0.9,0.9-0.6c1.3-0.8,2.7-1.8,3-2.2
		s0.2-0.6-0.6-0.5c-0.5,0.1-4,1-4.5,1.1c-1,0.3-1.5,0.3-2.3-0.2c-1-0.6-0.8-0.8,0.1-0.8c1.8,0.1,5.9-0.5,6.7-0.9
		c1.1-0.4,1.3-0.4,2.4,0.2c1.7,0.9,1.7,1.4,0.7,1.5C76.4,35.7,74.9,36.3,72.5,37.6z M85.4,48.2c-4.7,0.1-4.8,0.1-5.7-1.2
		c-0.8-1.1-2.3-3.5-2.6-4.2c-1-1.6-1.3-2.1-1.9-2.6s-0.6-0.7,0.2-0.5c0.5,0.1,1.2,0.7,1.8,1.4c1.2-0.8,2.4-1.9,2.5-2.3
		c0-0.7,0.1-0.7,1.5-0.4c1.3,0.4,1.5,0.8,0.9,1c-0.6,0.3-1.2,0.5-4.5,2.1c0.9,1.3,1.8,2.5,3,3.5c1.5,1.3,3,1.8,5.1,2.4
		C86.3,47.8,86.4,48.2,85.4,48.2z"/>
	<path class="st0" d="M78,70.2c-1.3,0.3-4.6,0.9-6.8,1.2c-0.9,1.7-2,2.9-3.4,4.3c-0.1,1.8-0.2,5.2-0.2,6.3c0,0.9-0.2,2.2-0.5,2.6
		c-0.4,0.5-0.7,0.4-1.1-0.3c-0.3-0.4-0.3-1.3-0.1-1.8c0.4-0.9,0.6-3.7,0.6-5.4c-2.2,2.4-4.8,3.9-6.4,4.4c-0.7,0.2-0.8,0-0.3-0.4
		c2.9-1.9,4.8-3.5,6.5-5.4c-0.4-1-0.1-1.2,0.8-0.9c1.2-1.2,1.6-1.9,2.3-3.1c-1.9,0.2-3,0.1-3.4,0c-1.2-0.3-1.2-0.6-0.3-0.6
		c1.7-0.2,3-0.4,4.3-0.6c1.2-2.3,1.2-3.7,1-4.1c-0.5-0.9-0.2-1.2,1.5-0.6c1.2,0.4,1.3,0.7,0.9,1.4c-0.4,0.6-0.9,1.5-1.6,2.9
		c1.6-0.3,3.3-0.6,5.3-1.1c1.4-0.4,1.9-0.3,2.5-0.1C80.5,69.1,80.1,69.8,78,70.2z M81.7,81.9c-2.9-0.4-8.1-0.1-11,0.4
		c-1.1,0.2-1.6,0.2-2.2-0.1c-1-0.4-0.9-0.8,0-0.7c1,0,3.5-0.2,6-0.4l0.1-3.6c-2,0.2-2.8,0.1-3.3-0.1c-0.9-0.3-1-0.5-0.2-0.6
		s2.1-0.2,3.5-0.5c0-2.3-0.1-3.3-0.4-3.6c-0.8-0.8-0.3-1.2,1.2-0.6c1.2,0.4,1.4,0.7,1,1.3c-0.1,0.2-0.2,1.6-0.3,2.6
		c0.9-0.2,1.7-0.3,2.3-0.5c0.9-0.2,1.7-0.2,2.2,0s0.6,0.6-0.5,0.9c-1,0.3-2.3,0.5-4.1,0.8l0,3.8c1.6-0.2,3-0.4,3.9-0.5
		c1.5-0.3,3,0,3.7,0.5C84.5,81.6,84.1,82.3,81.7,81.9z"/>
	<path class="st0" d="M81.6,109.5c-1.5,0.2-2.3-0.1-3.3-0.8c-2.5-1.7-3.8-2.6-5.4-4.1c-0.1,0.7,0,1.4,0.1,2s0,1.8-0.3,2.4
		c-0.2,0.4-0.6,0.3-0.9,0c-0.4-0.5-0.5-0.8-0.3-1.5c0.3-1.1,0.3-2,0.4-2.9c-1.1,1.5-3.5,3.4-5.1,4.3c-1.5,0.8-3.8,1.6-4.9,1.8
		c-1.4,0.2-1.7,0-0.2-0.5c3.5-1.3,6.9-3.4,8.3-5.4c-1.5,0.2-2.6,0.4-3,0.5c-1.3,0.3-2.1,0.3-2.7,0c-1-0.5-0.9-0.7,0.8-0.7
		c0.4,0,4.2-0.4,6.8-0.7c0.1-1.2-0.1-1.6-0.5-2.1c-0.7,0.1-2.1,0.3-2.5,0.4c-1.2,0.1-1.4-0.1,0.5-0.6c1.7-0.5,4.8-1.6,4.9-1.8
		c0.3-0.5,0.6-0.6,2,0.1c1.3,0.7,1.3,1.1-0.1,1.1c-0.4,0-2,0.3-3.8,0.7c1.2,0.3,1.3,0.5,1,1.1c-0.1,0.1-0.2,0.6-0.2,1.1
		c1-0.1,2.2-0.3,3.2-0.5c2.7-0.4,2.9-0.4,3.9-0.1c1,0.4,1,1-0.7,0.9c-1.8,0-4,0.1-6.1,0.3c4.5,2.7,7.5,3.7,10.3,4.1
		c2.4,0.4,2.6,0.6,0.8,0.7C83.2,109.3,82.5,109.4,81.6,109.5z M77.2,114.5c0.1,1.1-0.4,2.3-0.9,2.8c-0.9,1.2-1.2,1.1-1.9-0.8
		c-0.2-0.6-0.7-0.9-1.1-0.9c-0.8,0-2.6,0.1-4.2,0.2c-0.1,1-0.3,1.5-0.6,1.5c-0.4,0-1-1-0.8-2.3c0.3-2.2-0.1-4.3-0.4-4.7
		c-0.4-0.6-0.2-0.9,1.1-0.4c2-0.1,4.7-0.5,5.7-0.9c0.7-0.2,1.2-0.2,1.7,0c0.8,0.2,1.2,0.5,1.5,0.6c0.4,0.2,0.3,0.5,0,0.7
		C77,110.7,76.9,111.5,77.2,114.5z M75.2,110.9c-0.1-0.9-0.4-1.1-1.4-1c-0.8,0.1-3.2,0.3-4.9,0.5c0.1,0.7,0.1,1.4,0.2,2.1
		c2.5-0.6,3.6-0.7,4-0.6c1.1,0.3,1.1,0.6,0.1,0.7c-1.3,0.2-2.9,0.3-4.1,0.3c0.1,0.9,0.1,1.7,0.1,2.3c1.4-0.2,2.9-0.4,3.5-0.5
		c0.7-0.1,1.5,0,1.7,0.2c0.8,0.6,1,0.6,1-0.3C75.4,113.2,75.4,111.9,75.2,110.9z"/>
	<path class="st0" d="M63.5,147.8c-0.3,0.9-0.7,1-1.4-0.5c-0.6-1.3-0.6-1.6,0-1.6c0.4,0,1-0.3,1.4-0.8c0.7-0.8,1.7-1.9,2.4-2.6
		c0.7-0.7,0.9-0.4,0.4,0.3C65.2,144.4,63.9,146.6,63.5,147.8z M64.1,140.3c-0.6-0.4-1.3-1-1.8-1.6c-0.4-0.5-0.2-0.6,0.6-0.5
		c1.5,0.2,2.3,0.6,2.3,1.3C65.3,140.4,64.9,140.8,64.1,140.3z M66.6,136.3c-0.7-0.4-1.4-0.9-2-1.6c-0.4-0.4-0.2-0.6,0.4-0.5
		c1.6,0.1,2.3,0.5,2.6,1.4C67.7,136.3,67.3,136.7,66.6,136.3z M85.3,144.9c-4,0.4-4.2,0.4-5.6-0.7c-1.4-1.1-3.5-2.9-5.4-4.7
		c-0.7,0.1-1.8,0.3-2.7,0.4c1.1,0.6,1,0.8,0.7,1.1s-1.1,1.1-1.8,2c0.1,0,0.2,0,0.4,0c1.5-0.1,2.6-0.3,3.5-0.7
		c0.4-0.2,0.8-0.2,1.6,0.2c1.2,0.6,1.2,0.8,0.8,1.1c-0.6,0.5-0.9,0.8-1.1,1.1c-0.1,0.1-0.1,0.3,0.2,0.5c0.3,0.2,0.2,0.4-0.2,0.5
		c-2,0.5-3.2,0.6-4.2,0.5c-0.1,0.5-0.1,1.2,0.1,1.8c0.2,0.8,1.7,1.3,3.9,1.1c2.4-0.2,2.7-0.4,3.6-2.4c0.2-0.4,0.4-0.5,0.5,0.1
		c0.1,0.4,0.3,1,0.6,1.5c0.2,0.4,0.2,0.8-0.6,1.1c-1,0.5-3.2,0.9-4.7,0.8c-4.1-0.3-4.6-1.1-4.4-4.3c0.1-1.2,0-1.9-0.1-2.3
		c-0.1-0.2-0.1-0.3-0.1-0.4c-1.3,1.5-3.2,2.8-4.8,3.3c-0.8,0.3-0.8,0-0.1-0.4c1.5-0.9,3.8-2.8,4.9-4.7c0.5-0.7,0.7-1.2,0.8-1.6
		c-0.5,0.1-0.9,0.2-1.1,0.2c-1.6,0.3-2,0.3-2.8,0c-0.6-0.2-0.3-0.5,0.6-0.6c0.2,0,2-0.2,4-0.5l-0.3-2.2c-0.8,0.1-1.3,0.1-1.8-0.1
		c-0.5-0.2-0.4-0.4,0.2-0.5c0.4,0,0.9-0.1,1.4-0.2c-0.2-1-0.5-2-0.7-2.3c-0.6-0.7-0.4-0.9,0.9-0.5c1.2,0.4,1.2,0.6,1.1,0.9
		c-0.1,0.3-0.2,1-0.2,1.7c1.2-0.2,2.6-0.4,3.7-0.6c0.4-1.5,0.4-2.4,0.1-2.9c-0.4-0.7,0-0.8,1.1-0.4c1.3,0.5,1.4,0.8,1.2,1.1
		c-0.2,0.4-0.5,1-1,1.9c1.5-0.3,2-0.3,2.4-0.2c0.5,0.2,0.6,0.6-0.3,0.8c-0.3,0-1.5,0.2-2.5,0.4l-1.1,2.4c0.8-0.1,1.4-0.2,1.8-0.3
		c1.8-0.4,2.7-0.4,3.5-0.1c1.1,0.3,1.2,0.9-0.5,0.9c-1.4,0-3.7,0-5.9,0.3c5,3.7,5.9,3.8,10.4,5C86,144.5,86,144.8,85.3,144.9z
		 M73.6,143.2c-0.7,0.2-1.4,0.2-2.1,0.3c0.1,0.6,0.1,1.5,0,2.3c1-0.2,1.9-0.3,2.4-0.5s0.7-0.5,0.9-1.8
		C74.9,143.2,74.5,143,73.6,143.2z M72.5,136.9l0.1,2.2c0.9-0.1,1.8-0.2,2.6-0.4l0.7-2.4C74.9,136.5,73.6,136.7,72.5,136.9z"/>
	<path class="st0" d="M66.3,173.8c0,1.2-0.1,6.2-0.2,7.3c0,1.6-0.4,2.6-0.7,2.8c-0.3,0.2-0.6,0.2-0.9-0.4c-0.4-0.8-0.4-1.6-0.2-1.9
		c0.3-0.4,0.6-3.4,0.7-5.6c0.1-1.9,0.1-2.8-0.1-3.4c-1.7,1.9-3.1,2.8-4.6,3.5c-0.6,0.3-0.8,0-0.3-0.3c2-1.5,3.7-3.3,5.7-6.2
		c0.7-1,1.2-2.3,1-2.9c-0.2-0.6,0.3-0.9,1.4-0.2c1.2,0.7,1.2,1.1,0.7,1.4c-0.2,0.2-1,0.9-1.5,1.6c-0.9,1.1-1.3,1.7-1.9,2.4
		C66.1,172.4,66.3,172.8,66.3,173.8z M77.4,178.4c0.6-0.2,0.7-0.2,1.4,0.2c1.2,0.5,1.1,0.9,0.6,1.1c-0.4,0.2-0.8,0.6-1.9,1.6
		c2.3,1,4.2,1.5,7.6,1.9c0.6,0.1,0.6,0.4-0.1,0.5c-4.3,0.6-4.7,0.6-6.2-0.4c-0.5-0.3-1.4-0.9-2.2-1.4c-1.7,1-4,1.6-5.7,1.5
		c-0.5,0-0.5-0.3,0.1-0.4c1.9-0.3,3.4-0.9,4.6-1.7c-1.2-0.8-2-1.3-2.5-1.5c-1.3,1.3-4,2.6-5.4,2.9c-0.6,0.1-0.7-0.1-0.2-0.3
		c0.7-0.3,2.5-1.5,3.3-2.2c1.4-1.2,1.6-1.6,1.6-2.1c0-0.4,0.2-0.5,1.1,0c0.5,0.2,0.7,0.4,0.6,0.6C75.4,178.8,77,178.5,77.4,178.4z
		 M69.2,176.2c-0.2,0.5-0.4,0.8-0.9,1.2c-0.4,0.3-0.8,0.2-0.9-0.4c-0.1-0.4,0-0.6,0.3-1.1c0.3-0.4,0.6-1.1,0.7-1.6
		c0.1-0.3,0.4-0.4,0.9,0.2c0.6-0.1,1.8-0.2,2.6-0.3c0-0.3,0-0.9-0.2-2.3c-0.1-0.9-0.2-1.2-0.5-1.7c-0.3-0.4,0.1-0.6,1.2-0.4
		c0.3,0,0.6-0.1,0.9-0.1c0.5-0.6,0.8-1.4,0.8-1.9c-2.3,0.2-2.8,0.2-3.5-0.1c-0.6-0.2-0.4-0.4,0.1-0.4c1.9-0.1,3.9-0.4,6.9-0.9
		c1.7-0.3,2.4-0.3,3.3-0.1c1,0.3,0.9,0.6-0.7,0.8c-1,0.2-1.8,0.2-4.5,0.5c0.6,0.4,0.6,0.5,0.3,0.6c-0.4,0.1-1.2,0.7-1.7,1.3
		c0.9-0.2,1.9-0.4,2.7-0.6c0.7-0.2,1-0.2,1.8,0.2c1.1,0.5,1,0.8,0.6,1.1c-0.4,0.4-0.6,1.1-0.8,3c1.5-0.2,2.2-0.4,2.6-0.5
		c0.7-0.2,1-0.1,2.3,0.6c1.4,0.8,1.3,1.3,0.3,1.4c-0.8,0.1-1.4,0.2-2.9,0.8c0,0.1,0.1,0.1,0.1,0.2c0.1,0.4-0.1,0.5-0.6,0.4
		c-0.7-0.2-1.6-0.6-2.1-1c-0.2-0.1-0.2-0.2,0.1-0.2c0.9-0.1,1.8,0,2.3,0.4c0.3-0.3,0.6-0.7,1-1.2c0.2-0.3-0.1-0.5-1-0.4
		c-0.7,0-2.5,0.2-7.1,0.8c-2.4,0.3-3.4,0.4-4,0.4C69.4,175.5,69.3,175.9,69.2,176.2z M70.6,178.2c-0.3,0.1-0.6,0-0.5-0.3
		c0.1-0.2,0.1-0.5,0.2-0.6c0.2-0.3,0.5-0.7,0.7-1.3c0.1-0.2,0.4-0.2,0.4,0c0.2,0.4,0.3,1,0,1.5C71.2,177.9,70.8,178.2,70.6,178.2z
		 M77.7,176.5c-0.1-0.2-0.2-0.5-0.3-0.6c-0.1-0.2,0-0.2,0.2-0.1c0.5,0.3,1.5,1,1.8,1.1c0.4,0.2,0.4,0.4,0.1,0.5
		c-1.5,0.5-2.9,0.6-4.1,0.4c-1.5-0.2-2.5-0.7-3-1.9c-0.1-0.3-0.1-0.4,0-0.5c0.1,0,0.3,0.1,0.4,0.2c0.4,0.6,0.9,0.9,1.7,1.2
		c0.5,0.2,1.5,0.3,2.5,0.1C77.5,176.9,77.8,176.7,77.7,176.5z M77.4,173.6c0.1-1.2,0.1-1.9,0.1-2.9c0-0.8-0.2-0.9-1.7-0.7
		c-0.9,0.1-2.1,0.3-2.8,0.4c0,0.3,0,0.6,0,1c2.2-0.6,2.6-0.6,3.1-0.5s0.5,0.3,0.2,0.4c-1.4,0.4-2.6,0.6-3.3,0.5c0,0.3,0.1,0.7,0.1,1
		c2-0.5,2.8-0.5,3.3-0.3c0.3,0.1,0.3,0.2-0.1,0.3c-1.1,0.3-2.1,0.4-3.2,0.4c0,0.3,0,0.6,0.1,0.9C75,173.9,76.4,173.7,77.4,173.6z
		 M77.4,179.6c0.2-0.4,0.1-0.5-0.4-0.4c-2.2,0.2-2.9,0.2-3.3,0.1c-0.1,0.1-0.2,0.2-0.2,0.3c0.6,0.1,1.2,0.3,3,1.2
		C76.8,180.4,77.1,180,77.4,179.6z M74.7,175.1c1.5,0,2,0.4,1.9,0.9c-0.1,0.3-0.2,0.3-0.5,0.2c-0.5-0.1-1-0.4-1.6-0.9
		C74.3,175.2,74.3,175.1,74.7,175.1z"/>
	<path class="st0" d="M78,214.7c-4.1-2.5-7.2-4.5-9.7-6.1c-0.1,2.2-0.1,4.1-0.2,5.7c1.4-0.6,3-1.2,4.1-1.5c0.7-0.2,1,0,0.4,0.4
		c-2.3,1.2-5.1,2.8-5.9,3.6c-0.7,0.6-1.1,0.3-1.3-0.2c-0.2-0.7-0.2-1.2,0.1-1.4c0.9-0.6,1.3-1.2,1.4-2.2c0.2-2.3,0.4-4.7,0.2-7.8
		c-0.1-1.1-0.4-1.8-1-2.5c-0.4-0.4-0.1-0.8,1.4-0.3c2.1-0.2,6-1,6.9-1.4c0.4-0.2,0.7-0.2,1.1-0.1c0.8,0.2,1.8,0.5,2.4,0.8
		c0.5,0.3,0.4,0.6,0.2,0.7c-0.4,0.2-0.9,0.7-1.3,1.7c-0.2,0.5-1,2.1-1.7,3.3c-0.2,0.4-0.5,0.5-1,0.1c-0.1-0.1-0.7-0.1-1.8,0.1
		c-1.7,0.3-2.8,0.4-3.9,0.5c1.5,0.6,2.6,1.2,4.7,2.5c2.6-1.5,3.7-2.7,3.8-3.2c0.1-0.4,0.3-0.5,1.4,0s1.2,0.9,0.4,1.1
		c-0.3,0.1-2.5,1-5.2,2.4c3.9,2.2,6.9,3.3,11.4,3.9c1,0.1,1.1,0.4,0.1,0.6C80,215.8,79.6,215.7,78,214.7z M73.9,201.8
		c-0.6,0-2.2,0.4-3.7,0.7c-0.6,0.1-1.3,0.2-2,0.3c0.2,0.6,0.2,1.2,0.2,2.3c3.7-1,4.1-1.1,4.6-1c0.7,0.1,0.6,0.6-0.1,0.7
		c-2.1,0.6-2.9,0.8-4.5,0.5c0,0.6,0,1.4-0.1,2.4c4.4-0.9,4.8-0.9,5.1-0.8c0.4,0.1,0.7,0.1,0.8-0.2c0.7-2,1-3.9,0.9-4.4
		C75,201.8,74.8,201.7,73.9,201.8z M72.5,199.8c-0.6-0.3-1.7-0.7-2.4-1.2c-0.6-0.4-0.6-0.7,0.3-0.7c2-0.1,3.2,0.4,3.4,1.1
		C74.2,199.7,73.7,200.2,72.5,199.8z"/>
	<path class="st0" d="M70.3,241.4c-0.1,0.9-0.2,2.5-0.4,3.5c-0.2,0.9-0.8,1.8-1,1.8s-0.4-0.3-0.7-1.3c-0.2-0.6-0.4-0.6-1.1-0.4
		c-0.9,0.2-1.6,0.3-2.4,0.2c-0.1,1-0.3,1.2-0.5,1.2c-0.3,0-0.7-0.5-0.7-1.5c0.2-3.2-0.2-5.8-0.9-6.6c-0.4-0.5-0.2-0.6,0.4-0.5
		c0.3,0,0.5,0.1,0.7,0.1s0.4,0,0.6-0.1c1.8-2.3,2.7-4.2,2.5-4.5c-0.4-0.8-0.2-1.1,1.4-0.7c1.5,0.3,1.4,0.6,0.7,1.1
		c-0.8,0.6-2.1,1.9-3.7,3.9c1.2-0.2,2.3-0.5,2.8-0.7c0.6-0.2,0.8-0.2,1.9,0.1c1.3,0.5,1.5,0.7,0.9,1.4
		C70.5,238.7,70.4,240,70.3,241.4z M67,237.9c-1.5,0.3-2.1,0.4-2.6,0.4c0.1,0.5,0.2,1.5,0.3,2.7c0.5-0.1,0.8-0.2,1.1-0.3
		c0.6-0.2,0.9-0.2,1.3-0.2c0.7,0,0.9,0.5,0.2,0.7c-1,0.3-1.9,0.4-2.7,0.3c0.1,1.1,0.1,2.2,0,3.1c1.8-0.4,2.8-0.5,3.3-0.2
		c0.4,0.2,0.6,0.2,0.8-1.4c0.1-1.2,0.2-2.8,0.1-4.5C68.8,237.8,68.4,237.6,67,237.9z M81.7,241.7c-0.1,1.2-0.3,3-0.6,4.1
		c-0.3,1.5-1.2,2.8-2.6,3.4c-0.6,0.3-1,0.2-1.2-0.3c-0.2-0.7-1-1.7-1.5-2.1c-0.7-0.6-0.6-0.9,0.7-0.3c1.7,0.7,2.5,0.2,3-1.7
		c0.6-2,0.9-4,0.8-5.7c-0.1-1.4-0.3-1.7-1.2-1.7c-1.1,0.1-1.7,0.2-2.6,0.3c-0.8,0.1-1.3,0-2-0.4c-0.9,0.9-2,1.9-3,2.4
		c-0.5,0.3-0.7,0.1-0.3-0.3c1.6-1.6,3.2-3.3,4-5c0.9-1.6,1-2.2,0.9-2.4c-0.2-0.9-0.2-1,1.2-0.7c1.6,0.3,1.8,0.6,1.1,1.1
		c-0.3,0.3-0.9,0.9-1.8,2.2c-0.4,0.6-1,1.4-1.8,2.2c0.4,0.2,0.9,0.2,2.1,0c1-0.1,2-0.4,2.3-0.5c0.9-0.4,1.1-0.4,2.4,0.1
		c1.4,0.6,1.5,0.9,0.7,1.7C82,238.7,81.8,239.6,81.7,241.7z M75.1,242.4c-0.7-0.8-1.1-1.3-1.5-1.9c-0.4-0.5-0.2-0.6,0.7-0.4
		c1.4,0.3,2,0.8,2.1,1.5C76.6,242.6,75.7,243.1,75.1,242.4z"/>
	<path class="st0" d="M60.4,274.8c-0.7,0.4-0.9,0.1-0.2-0.4c2-1.7,2.7-2.4,4.8-5.3c1.2-1.7,1.8-3,1.6-3.7c-0.2-0.7,0.1-0.9,1.4-0.2
		c1.3,0.6,1.3,1,0.7,1.4c-0.2,0.2-0.6,0.5-1.1,1.2c-0.7,1-1.3,1.8-1.8,2.5c0.7,0.8,0.8,1.1,0.8,2.1c-0.1,2.5-0.1,5.3-0.2,7.3
		c-0.1,1.7-0.1,2-0.2,2.3c-0.3,0.6-0.9,0.6-1.1,0.1c-0.6-0.9-0.6-1.1-0.3-2.3c0.3-1.2,0.5-3,0.5-5.2c0.1-1.9,0-2.8-0.2-3.5
		C63.4,273,62.2,273.9,60.4,274.8z M71.7,268.2c-0.7-0.1-0.7-0.4,0.1-0.5c1.3-0.2,2.3-0.3,3-0.4c0-0.9-0.1-1.7-0.4-2
		c-0.6-0.7-0.3-0.9,1-0.5c1.2,0.4,1.2,0.5,1,1.1c-0.1,0.3-0.2,0.7-0.3,1.3c2-0.4,2.3-0.5,3.1-0.4c0.8,0.1,0.9,0.5-0.4,0.8
		c-0.5,0.1-1.4,0.3-2.8,0.5l-0.1,1.1c0.7-0.1,1.5-0.3,2.1-0.4c1.3-0.3,1.8-0.3,2.8,0.2c1.2,0.5,1.1,0.9,0.5,1.2
		c-0.2,0.2-0.6,0.6-1.5,2.2c-0.3,0.5-0.6,0.6-1.1,0.3c-0.2-0.1-0.4-0.1-1.5,0c-0.3,0-1,0.1-1.7,0.2l-0.1,1.2
		c0.9-0.1,1.7-0.2,2.5-0.4c-0.7-0.6-0.6-0.7,0.4-0.5c1.8,0.4,2.3,0.9,2.1,1.4c-0.1,0.4-0.5,0.4-1,0.2c-0.4-0.2-0.7-0.4-1.1-0.6
		c-0.6,0.1-1.1,0.2-1.6,0.3c1.5,0.4,1.6,0.6,1.4,1.1c0,0.1-0.1,0.2-0.1,0.4c1.1-0.1,2.1-0.3,2.9-0.4c1.1-0.2,1.8-0.2,2.7,0.2
		c1,0.4,0.7,1-1,0.8c-0.9-0.1-2.6,0-4.7,0.1c0,0.4,0,0.9,0.1,1.5c0.1,1,0.1,1.9,0,2.6c-0.1,1.3-0.3,1.7-1.1,2.5
		c-0.4,0.4-0.7,0.4-1-0.1c-0.3-0.4-1.1-1.1-2-1.6c-0.6-0.3-0.5-0.6,0.4-0.5c1.7,0.3,2,0.2,2.2-0.5c0.1-0.7,0.1-1.3,0.1-2.4
		c0-0.6,0-1-0.1-1.4c-4.5,0.4-6.1,0.6-7,0.8c-1,0.2-1.4,0.2-2.2-0.1c-0.9-0.4-0.9-0.5,0.2-0.5c1.5-0.1,3.7-0.3,9-0.8
		c-0.1-0.8-0.2-1.1-0.6-1.5c-2,0.4-3.4,0.7-4.6,1.1c-0.6,0.2-0.8,0.2-1.6-0.3c-0.7-0.4-0.6-0.6,0.2-0.7c0.9,0,1.6-0.1,4.1-0.5
		l0.1-1.3c-0.8,0.1-1.6,0.2-2.4,0.3c0,0.2-0.1,0.4-0.3,0.4c-0.3,0-0.7-0.4-1-0.9c-0.5-1-0.9-1.7-1.3-2c-0.7-0.5-0.6-0.8,0.7-0.7
		c1.5-0.2,2.6-0.4,4.4-0.6v-1.1C73.3,268.3,72.5,268.3,71.7,268.2z M74.6,271.3c-1.3,0.2-1.7,0.1-2.1,0c-0.3-0.1-0.3-0.3,0.4-0.4
		c0.5,0,1-0.1,1.7-0.2v-0.9c-1.6,0.2-2.7,0.4-3.4,0.5c0.3,0.8,0.5,1.4,0.8,2.2c0.9-0.1,1.7-0.2,2.6-0.3V271.3z M72.9,279.4
		c-0.5-0.5-0.9-1.1-1.2-1.6c-0.2-0.5-0.2-0.5,0.6-0.4c1.4,0.4,1.7,0.7,1.7,1.4C74,279.6,73.3,279.7,72.9,279.4z M75.8,270.5
		c0.7-0.2,1.4-0.3,1.9-0.1c0.4,0.2,0.4,0.4-0.3,0.5c-0.2,0-1,0.2-1.7,0.3l-0.1,0.9c0.8-0.1,1.7-0.2,2.6-0.3c0.4,0,0.6-0.1,0.7-0.4
		c0.2-0.3,0.3-0.7,0.5-1.4c0.1-0.7-0.1-0.8-1.1-0.7c-0.5,0-1.3,0.1-2.4,0.3L75.8,270.5z"/>
	<path class="st0" d="M61.7,315.1c-0.6-0.8-1.3-2.2-1.5-3c-0.1-0.2,0.1-0.2,0.3-0.1c2.3,1.1,2.7,1.7,2.4,2.8
		C62.7,315.5,62.1,315.6,61.7,315.1z M67.2,307.8c-0.3-0.8-0.2-0.9,0.4-0.7c1.7,0.6,1.9,1.3,1.5,2.2c-0.2,0.5-0.6,0.5-1,0.1
		c-0.2-0.2-0.4-0.5-0.5-0.7c-3,1.1-3.6,1.4-4,1.7c-0.5,0.4-0.7,0.3-1.2-0.2c-0.4-0.6-0.4-1,0-1.2c0.5-0.3,1.1-0.8,3.3-3.4
		c-1.5,0.2-2.6,0.4-3.5,0.6c-0.5,0.2-1,0-1.3-0.7c-0.2-0.4-0.1-0.5,0.6-0.8c0.8-0.3,1.8-1.5,2.7-3c1.1-1.8,1.2-2.4,1-2.9
		c-0.3-0.6,0.1-0.9,1.3-0.2c1.3,0.7,1.3,1.1,0.7,1.6c-0.6,0.5-1,1-4.3,4.7c0.9,0.1,2.3,0.1,3.4,0.1c1.2-1.4,1.6-2.2,1.4-3
		c-0.1-0.6,0.2-0.7,1.2-0.1c1.3,0.7,1.2,1,0.6,1.5c-0.8,0.6-2.3,1.9-5.4,5.7c0.7,0,2-0.2,3.4-0.7C67.3,308.1,67.3,308,67.2,307.8z
		 M64.7,313.2c-0.5-0.6-0.7-1-1-1.6c-0.1-0.3,0-0.3,0.2-0.2c1.6,0.5,1.9,0.8,1.9,1.7C65.8,313.6,65.1,313.8,64.7,313.2z M67.9,312.5
		c-0.6-0.5-1-1-1.3-1.5c-0.2-0.4-0.1-0.5,0.2-0.4c1.8,0.4,2,0.6,2,1.5C68.9,312.7,68.5,312.9,67.9,312.5z M73.5,311.2
		c-0.9,1.4-4.1,3.5-6.2,3.9c-0.7,0.1-0.7-0.1-0.1-0.4c1.1-0.5,3.4-2.1,4.3-3.1c1.1-1.2,1.7-2.3,1.7-3.3c0-0.2,0.3-0.3,0.8-0.1
		c1,0.6,1.2,1,0.7,1.4C74.5,309.6,74.1,310.2,73.5,311.2z M77.4,305.4c-0.5-0.5-0.4-0.5,0.2-0.4c2.3,0.4,3.5,1.7,3.2,2.5
		c-0.3,0.7-0.6,0.7-1.3,0.1c-0.2-0.2-0.5-0.5-0.8-0.8c-4.6,0.9-6.1,1.3-6.9,1.7c-0.7,0.3-0.9,0.3-1.2-0.3c-0.3-0.7-0.2-0.8,0.1-0.9
		c0.6-0.2,0.8-0.3,1.9-1.2c0.9-0.7,1.5-1.4,2.1-2.6c-2.3,0.4-2.8,0.4-3.5,0.1c-0.5-0.2-0.5-0.4,0.1-0.4c0.7,0,4.3-0.7,7.3-1.4
		c1.4-0.3,1.9-0.3,2.6-0.1c1,0.3,1.1,0.6-0.8,1c-0.9,0.2-2.3,0.4-4.3,0.7c0.9,0.7,0.8,0.9,0.2,1.2c-0.7,0.3-1.4,0.9-3.6,2.6
		c1.7-0.1,3.5-0.3,5.6-0.7C77.9,305.9,77.7,305.7,77.4,305.4z M76,300.2c-0.4-0.2-1.5-1-2.5-1.9c-0.2-0.2-0.1-0.4,0.4-0.4
		c2.9,0.2,3.6,0.7,3.4,2C77.1,300.8,76.9,300.8,76,300.2z M83.7,315.2c-0.8,0.4-2.1,0.6-3.1,0.6c-1.9,0-2.6-0.1-3.5-0.7
		c-0.7-0.5-1.1-1.4-1-2.7c0.2-3.6,0.2-4.4-0.1-4.9c-0.1-0.3,0.1-0.4,0.7-0.1c1,0.3,1.4,0.8,1,1.4c-0.3,0.5-0.5,1.6-0.4,3.9
		c0.1,1.4,0.9,2,3.3,1.7c2.2-0.3,2.3-0.4,3-3.4c0.2-0.8,0.4-0.9,0.4-0.2c0.1,1.3,0.5,2.7,0.8,3.1C85.2,314.3,85.1,314.6,83.7,315.2z
		"/>
	<path class="st0" d="M16.1,8c-4.1,3.9-6.4,6.1-6.5,6.6c-0.4,1-0.8,1.1-1.7,0.4c-1-0.8-1.1-1.1-0.1-1.6c0.8-0.4,1.3-2.6,1.2-5
		c0-1.2-0.6-2.9-0.9-3.2c-0.7-0.8-0.4-1.1,1-0.6c1.5,0.5,1.6,0.7,1.2,1.8c-0.1,0.2-0.2,2.8-0.2,5.4c1.8-1.4,3.1-2.3,5.5-4.1
		c0.5-0.4,0.8-0.4,0.9-0.3C16.7,7.4,16.6,7.6,16.1,8z M25.2,15.3c-0.6-0.7-1.5-1.7-3.6-3.6c-2.3,2.5-5.2,4.2-8.4,5
		c-1,0.2-1-0.1-0.1-0.5c4.2-1.9,7.3-4.7,8.8-7.5c1.2-2.3,1.4-5.4,0.9-6c-0.6-0.7,0.1-1,1.3-0.4c1.9,1,2,1.1,1.3,1.9
		c-0.2,0.3-0.4,0.6-0.8,2c-0.2,0.8-0.9,2.4-1.5,3.3c-0.6,1-0.9,1.5-1.4,2c4.7,1.6,5.8,2.8,5.5,4.3C27.3,16.6,26.6,16.9,25.2,15.3z
		 M17.3,5.7c-0.9-0.5-1.7-1.1-2.5-1.9c-0.4-0.4-0.3-0.6,0.4-0.5c2.5,0.4,3.4,0.9,3.5,1.7C18.8,6,18.2,6.2,17.3,5.7z"/>
	<path class="st0" d="M16.5,31.3c-1.5,0.2-2.8,0.4-4,0.5c0.6,0.4,0.8,0.6,0.8,0.9c0,0.2,0,0.5-0.1,0.8c0.7-0.1,1.3-0.2,1.7-0.3
		c1.1-0.2,1.3-0.2,1.7,0c0.3,0.2,0.2,0.5-0.4,0.6c-0.9,0-1.8,0.1-3,0.3c0,0.5,0,1-0.1,1.5c1.8-0.2,3.2,0.4,3,1.1
		c-0.1,0.7-0.6,0.7-1.1,0.4c-0.8-0.5-1.3-0.8-1.9-1.3c0,0.7,0,1.3,0,1.6c0.1,1.1-0.2,2.3-0.9,3c-0.3,0.3-0.6,0.2-0.9-0.2
		c-0.5-0.7-0.9-1.1-1.4-1.5c-0.4-0.3-0.2-0.4,0.2-0.3c1.3,0.3,1.5,0.2,1.7-0.5c0.2-1.5,0.2-2.4,0.2-3.5c-1,0.2-2.1,0.4-3.5,0.6
		c-0.6,0.1-1.1,0.1-1.6-0.1c-0.7-0.3-0.7-0.5,0.1-0.6c1.3-0.1,3.3-0.4,5-0.6c-0.1-1-0.2-1.4-0.4-1.7c-2.3,0.4-3.9,0.7-4.7,0.9
		c-1,0.3-1.6,0.2-2.3-0.3C4,32.2,4.1,31.9,4.7,32c0.7,0,3.9-0.2,8.1-0.9c0.7-0.9,1.1-1.9,1.3-2.7c0.1-0.3,0.2-0.4,0.7-0.1
		c1,0.5,1,0.7,0.6,1c-0.2,0.2-0.7,0.6-1.7,1.7c2.2-0.3,2.8-0.4,3.2-0.3C17.5,30.7,17.3,31.2,16.5,31.3z M8.6,37.8
		c-0.4,0.8-0.6,1.1-1.2,1.5c-0.2,0.2-0.6,0-0.7-0.3c-0.2-0.6-0.1-1,0.3-1.5c0.4-0.4,0.9-1.2,1.1-1.7c0.1-0.3,0.5-0.2,0.6,0
		C9,36.2,9,37,8.6,37.8z M16.5,27.4c-0.4,0.1-1.3,0.2-2.3,0.4c-2.9,0.5-4,0.6-4.6,0.6c-1.8-0.2-1.8-0.6-0.6-0.7
		c0.9,0,2.9-0.4,4.2-0.6c2.5-0.5,2.8-0.5,3.2-0.5C17.5,26.8,17.5,27.2,16.5,27.4z M10.7,30.6c-0.4-0.3-0.9-0.9-1-1.2
		C9.6,29,9.8,28.9,10.3,29c1.2,0.3,1.4,0.7,1.3,1.3C11.5,30.8,11.1,30.9,10.7,30.6z M13.8,26c-0.3-0.2-1.2-0.9-1.9-1.6
		c-0.3-0.3-0.2-0.5,0.4-0.4c2,0.2,2.6,0.6,2.6,1.4C14.9,26,14.3,26.3,13.8,26z M27.8,31.5c-1.3,0-2.5,0.1-4.1,0.3
		c0.8,0.4,1,0.9,0.8,1.3c-0.1,0.2-0.2,2.3-0.2,3.7c0.1,2.3-0.2,5.4-0.6,6.5c-0.3,0.8-0.8,0.7-0.9-0.2c-0.1-0.8-0.1-2.7,0-5.5
		c0.1-3,0.1-4.5-0.3-5.6c-0.8,0.1-1.7,0-2.4-0.2c-0.6,5-2,6.7-4.7,8.2c-0.5,0.3-0.8,0.1-0.4-0.3c1.8-1.5,2.8-3,3.1-4.2
		c0.9-3.5,1-6,0.1-6.9c-0.4-0.5-0.3-0.7,1.3-0.5c2.5-1.1,3.4-1.9,3.6-2.4s0.3-0.6,1.7,0c1.4,0.7,1.4,1.1,0.6,1.1
		c-0.5,0.1-2,0.4-5.1,1.4c0.2,0.5,0.2,1.1,0,3.2c1.2-0.1,3.2-0.4,5.8-0.9c0.7-0.1,1.8-0.1,2.3,0.1C29,31,28.9,31.5,27.8,31.5z"/>
	<path class="st0" d="M7.1,64.8c-0.6,1-1.6,0.7-1.3-0.2c0.2-0.5,0.7-1.8,1-2.3c0.4-0.6,0.5-0.6,0.6-0.1C7.7,63.1,7.6,64,7.1,64.8z
		 M7.1,55c-0.8,0.4-1,0.2-0.5-0.2c1.8-1.7,2.7-2.8,3.6-4.6c0.2-0.3,0.3-0.7,0.2-1c-0.2-0.6,0.2-0.8,1.4-0.2c1,0.5,1,0.6,0.6,1
		c-0.4,0.3-0.6,0.6-1.9,2.2c0.7,0.1,1.4-0.2,2.1-0.5c0.7-0.4,1-0.4,2,0.1c0.7,0.4,0.6,0.7,0.1,0.9c-0.7,0.2-1.6,0.8-3.4,2.6
		c0.9-0.2,1.8-0.4,2.1-0.5c0.6-0.2,0.7-0.2,1.2-0.1c0.4,0.1,0.8,0.3,1.2,0.5s0.5,0.5,0.1,0.8c-0.1,0.1-0.4,0.6-0.6,1.3
		c-0.4,1.7-0.6,2.4-1,3c-0.3,0.5-0.4,0.5-0.8,0.2c-0.2-0.2-0.3-0.2-0.7-0.2c-0.8,0-2,0.2-4.1,0.6c-0.1,0.2-0.2,0.3-0.3,0.3
		c-0.2,0-0.6-0.2-0.7-0.7c-0.5-2.8-1-4-1.3-4.3c-0.4-0.4-0.1-0.8,1.1-0.5c0.9,0,1.8-0.2,2.9-0.3c2.1-2.9,2.1-2.9,1.5-2.8
		c-0.8,0.2-1.2,0.1-1.9-0.1C9,53.7,7.7,54.7,7.1,55z M8.1,56.3c0.2,1.1,0.4,2.6,0.5,4.1c0.7-0.2,1.4-0.3,1.8-0.4l0.1-1.5
		c-0.4,0-0.8,0-1.2,0c-0.6-0.1-0.5-0.5,0-0.5s1-0.1,1.3-0.2c0-1,0-1.4-0.2-1.7C9.7,56.2,8.9,56.3,8.1,56.3z M9.2,64
		c-0.2-0.4-0.3-0.9-0.3-1.6c0-0.4,0.1-0.5,0.3-0.2c1,0.8,1.2,1.2,0.9,1.7C9.9,64.4,9.3,64.3,9.2,64z M11.6,63.3
		c-0.2-0.4-0.4-0.8-0.5-1.2c-0.1-0.5,0.1-0.5,0.3-0.4c1,0.6,1.2,0.9,1.1,1.5C12.4,63.6,11.8,63.6,11.6,63.3z M12.9,59.7
		c0.4,0,0.5,0,0.6-0.4c0.4-1.4,0.4-2.2,0.4-3c0-0.5-0.3-0.6-0.9-0.6c-0.4,0-0.7,0.1-1.8,0.2c0.5,0.2,0.7,0.4,0.5,0.8
		c-0.1,0.1-0.1,0.4-0.2,0.8c0.7-0.2,1-0.3,1.4-0.1c0.6,0.2,0.6,0.4,0,0.6c-0.4,0.1-1,0.3-1.5,0.4l-0.1,1.5
		C12.1,59.8,12.6,59.7,12.9,59.7z M14.3,63.1c-0.3-0.5-0.6-0.9-0.8-1.4c-0.4-0.6-0.1-0.7,0.4-0.5c1.6,0.7,1.7,1.1,1.2,1.9
		C14.8,63.6,14.6,63.6,14.3,63.1z M25.1,56.6c0.5,0.2,0.6,0.6,0.2,0.7c-0.4,0.1-1.6,0.3-3.5,0.5c0,0.9,0,1.7,0,2.1
		c1.7-0.2,2.9-0.4,4.2-0.6c1.2-0.2,2.1-0.1,2.8,0.4c0.8,0.5,0.5,0.9-0.5,0.9c-1.7-0.1-3.2-0.1-6.6,0.2c0.1,4.1-0.1,5.5-0.7,7.1
		c-0.2,0.6-0.5,0.6-0.6-0.1c-0.1-0.4-0.1-3.5-0.1-6.8c-1.6,0.2-2.7,0.3-3.1,0.4c-0.7,0.2-1.1,0.2-2-0.2c-0.8-0.3-0.8-0.5-0.1-0.5
		c1.3-0.1,2.6-0.2,5.3-0.5c0-0.6,0-1.3,0-2.2c-2,0.2-2.5,0.1-2.9-0.1c-0.6-0.3-0.6-0.5,0.1-0.5c0.8-0.1,1.9-0.2,2.8-0.3
		c0-0.7,0-1.4,0-2.1c-2.1,0.3-2.7,0.2-3.2,0c-0.7-0.2-0.7-0.4-0.1-0.5c2.1-0.2,4.4-0.6,6.8-1.1c1-0.2,1.6-0.2,2.1,0.1
		c0.6,0.3,0.5,0.6-0.5,0.8c-0.9,0.1-1.8,0.3-3.7,0.5c0,0.6,0,1.3-0.1,2C23.5,56.4,24.3,56.4,25.1,56.6z M18.8,52.5
		c-0.6-0.5-1.2-1.4-1.6-2.3c-0.2-0.3-0.1-0.4,0.7-0.1c1.6,0.5,2,1.2,1.9,2C19.8,52.7,19.2,52.8,18.8,52.5z M24.1,51.4
		c-0.8,0.6-1.7,1.2-2.7,1.7c-0.5,0.3-0.7,0.2-0.3-0.2c2.3-2.2,2.9-3.1,2.9-3.8c0-0.5,0.3-0.6,1.6,0.1c0.9,0.5,0.9,0.7,0.2,1.1
		C25.5,50.4,24.8,50.9,24.1,51.4z"/>
	<path class="st0" d="M14.5,82.8c-0.1,0.9-0.2,2.5-0.4,3.5c-0.2,0.9-0.8,1.8-1,1.8s-0.4-0.3-0.7-1.3c-0.2-0.6-0.4-0.6-1.1-0.4
		c-0.9,0.2-1.6,0.3-2.4,0.2c-0.1,1-0.3,1.2-0.5,1.2c-0.3,0-0.7-0.5-0.7-1.5c0.2-3.2-0.2-5.8-0.9-6.6c-0.4-0.5-0.2-0.6,0.4-0.5
		c0.3,0,0.5,0.1,0.7,0.1s0.4,0,0.6-0.1c1.8-2.3,2.7-4.2,2.5-4.5c-0.4-0.8-0.2-1.1,1.4-0.7c1.5,0.3,1.4,0.6,0.7,1.1
		C12.3,75.7,11,77,9.4,79c1.2-0.2,2.3-0.5,2.8-0.7c0.6-0.2,0.8-0.2,1.9,0.1c1.3,0.5,1.5,0.7,0.9,1.4C14.7,80.1,14.6,81.4,14.5,82.8z
		 M11.2,79.3c-1.5,0.3-2.1,0.4-2.6,0.4c0.1,0.5,0.2,1.5,0.3,2.7c0.5-0.1,0.8-0.2,1.1-0.3c0.6-0.2,0.9-0.2,1.3-0.2
		c0.7,0,0.9,0.5,0.2,0.7c-1,0.3-1.9,0.4-2.7,0.3C8.9,83.9,9,85,8.9,86c1.8-0.4,2.8-0.5,3.3-0.2c0.4,0.2,0.6,0.2,0.8-1.4
		c0.1-1.2,0.2-2.8,0.1-4.5C13,79.2,12.6,79,11.2,79.3z M25.9,83.1c-0.1,1.2-0.3,3-0.6,4.1c-0.3,1.5-1.2,2.8-2.6,3.4
		c-0.6,0.3-1,0.2-1.2-0.3c-0.2-0.7-1-1.7-1.5-2.1c-0.7-0.6-0.6-0.9,0.7-0.3c1.7,0.7,2.5,0.2,3-1.7c0.6-2,0.9-4,0.8-5.7
		c-0.1-1.4-0.3-1.7-1.2-1.7c-1.1,0.1-1.7,0.2-2.6,0.3c-0.8,0.1-1.3,0-2-0.4c-0.9,0.9-2,1.9-3,2.4c-0.5,0.3-0.7,0.1-0.3-0.3
		c1.6-1.6,3.2-3.3,4-5c0.9-1.6,1-2.2,0.9-2.4c-0.2-0.9-0.2-1,1.2-0.7c1.6,0.3,1.8,0.6,1.1,1.1c-0.3,0.3-0.9,0.9-1.8,2.2
		c-0.4,0.6-1,1.4-1.8,2.2c0.4,0.2,0.9,0.2,2.1,0c1-0.1,2-0.4,2.3-0.5c0.9-0.4,1.1-0.4,2.4,0.1c1.4,0.6,1.5,0.9,0.7,1.7
		C26.2,80.1,26,81,25.9,83.1z M19.3,83.8c-0.7-0.8-1.1-1.3-1.5-1.9c-0.4-0.5-0.2-0.6,0.7-0.4c1.4,0.3,2,0.8,2.1,1.5
		C20.8,84,20,84.5,19.3,83.8z"/>
	<path class="st0" d="M23.8,104.4c-2.4-1.8-4.9-3.8-6.9-5.8c-0.1,0.2-0.3,0.4-0.6,0.7c-2.7,3.7-6.9,7-10.9,8.2
		c-0.6,0.2-0.7-0.2-0.2-0.4c3.5-1.5,7.3-5,9.4-7.7c1-1.3,1.3-2,1.2-2.5c-0.2-0.7,0.2-0.8,1.4-0.2c1,0.5,1.1,0.7,0.2,1.4
		c5.4,4,8.7,5.5,12.4,6.1c0.9,0.2,1.1,0.5,0.1,0.6C25.2,105.3,24.8,105.2,23.8,104.4z M20.1,106.9c-0.7,1.8-0.8,2-1.1,2.3
		c-0.5,0.5-0.7,0.4-0.9,0.1c-0.2-0.2-0.4-0.2-4.1,0.6c0,1.5-0.1,3.3-0.1,3.9c1.1-0.4,2.4-0.8,3.2-1.1c0.9-0.4,0.8,0,0.2,0.3
		c-1.6,0.9-3.1,2.2-3.5,2.6c-0.7,0.8-1.2,0.7-1.7,0c-0.4-0.6-0.4-0.7,0-1.1c0.5-0.5,0.5-0.6,0.7-2.7c0.1-1.3,0.2-3.2,0.1-4
		c-0.1-1.1-0.2-2-0.5-2.5s-0.3-0.8,1.2-0.5c1.6,0,3.7-0.4,4.6-0.7c0.9-0.4,1-0.4,1.5-0.2c0.4,0.1,0.9,0.3,1.3,0.5
		c0.6,0.3,0.8,0.5,0.2,0.9C20.7,105.4,20.5,105.8,20.1,106.9z M17.8,104.8c-0.4,0-1.3,0.2-2.7,0.4c-0.3,0-0.6,0.1-1.1,0.1
		c0,0.6,0,1.2,0,1.8c2.2-0.5,2.5-0.5,2.9-0.6c0.9-0.1,1,0.4,0.3,0.6c-1.1,0.3-2.1,0.5-3.3,0.4c0,0.8,0,1.5,0,1.9
		c2.7-0.5,3.2-0.6,3.4-0.6c0.7,0.1,0.7,0.1,0.8-0.2c0.3-0.7,0.4-1.3,0.5-1.6c0.1-0.7,0.3-1.3,0.3-1.6
		C19,104.8,18.8,104.7,17.8,104.8z M22.8,114.2c-1.3-0.8-4.7-2.2-6.9-2.9c-1.2-0.4-1.2-0.7,0-0.5c0.6,0.1,1.7,0.3,2.3,0.5
		c2-1.2,2.9-2.1,3-2.4c0.3-0.6,0.4-0.6,1.4-0.2c0.9,0.4,0.8,0.7-0.1,1c-0.2,0.1-2.3,0.9-3.9,1.6c4.2,0.9,5.3,1.5,5.7,2.2
		C25.3,114.9,24.2,115,22.8,114.2z M17.1,103.3c-0.7-0.4-1-0.7-1.5-1.3c-0.4-0.4-0.2-0.6,0.4-0.5c1.6,0.2,2.1,0.6,2.1,1.3
		C18.2,103.4,17.8,103.7,17.1,103.3z"/>
	<path class="st0" d="M14.2,127.6c-0.5,0-1.4,0.2-2.2,0.3c-0.1,2.2-0.1,6.3-0.1,7.3c0.1,1.5-0.1,2.6-0.3,3c-0.4,1-0.9,1.1-1.4-0.1
		c-0.3-0.6-0.3-0.7,0.2-2c0.2-0.6,0.5-2.6,0.6-6.8c-1.6,2.8-3.7,5.1-6.2,6.2c-0.8,0.4-0.9,0.2-0.4-0.3c2.1-1.6,4.5-4.6,6-7.2
		c-2.7,0.6-3.9,0.7-4.6,0.5c-1.2-0.3-1.1-0.4,0-0.6c0.7-0.1,3.1-0.5,5.1-0.9c0-3.3-0.3-4.3-0.6-4.7c-0.9-0.9-0.6-1.3,1-0.8
		c1.4,0.4,1.4,0.5,1,1.4c-0.1,0.4-0.3,1.3-0.5,3.9c1.9-0.4,2.4-0.4,3-0.3C16.5,126.9,16.5,127.3,14.2,127.6z M13.8,131.6
		c-0.5-0.2-1.2-0.9-1.5-1.2c-0.6-0.6-0.4-0.7,0-0.6c1.6,0.2,2.1,0.5,2.2,0.8C14.9,131.6,14.3,131.8,13.8,131.6z M26.8,127.5
		c-1.2,0.2-2.3,0.4-3.2,0.5c0.1,2.5,0.4,7.9,0.5,8.7c0.1,1.1-0.5,2.4-1.2,3.1c-0.4,0.4-1,0.4-1.3-0.1c-0.6-0.9-1-1.4-1.8-2
		c-0.6-0.4-0.5-0.7,0.4-0.4c1.4,0.5,2.1,0.4,2.2-0.1c0.2-1.7,0.2-4.2,0.2-8.4c-2,3.3-5.2,5.4-8.3,6.4c-0.7,0.2-1,0.1-0.2-0.4
		c2.5-1.4,5.1-3.5,7.4-6.5c-3.9,0.6-4.3,0.5-5.2,0.4c-1-0.2-1-0.5,0.2-0.6c0.9-0.1,3.9-0.5,6.1-0.9c0-3-0.3-4.6-0.8-5.2
		c-0.6-0.8-0.4-1.1,1.2-0.6c1.7,0.5,1.7,0.7,1.2,1.5c-0.2,0.3-0.4,2.5-0.4,4c2.6-0.6,3.5-0.6,4.4-0.3
		C28.9,126.9,28.8,127.2,26.8,127.5z"/>
	<path class="st0" d="M19,174.9c2.5-0.4,3.1-0.5,3.8-0.3c0.9,0.3,0.9,0.6-0.1,0.7c-2.4,0.3-4.6,0.6-6.9,0.8
		c-2.8,0.3-4.4,0.4-5.5,0.3c-0.1,1.2-0.3,2-0.7,3.6c-1.1,3.8-2.3,5.8-5.1,7.6c-0.5,0.3-0.7,0.1-0.3-0.3c1.9-1.8,3-3.6,3.9-6.7
		c0.7-2.3,0.7-3.9,0.4-4.5c-0.3-0.5-0.1-0.8,1.7-0.3C11.6,175.9,14.8,175.7,19,174.9z M18,179.1c0.4,0.2,0.4,0.4-0.4,0.5
		c-0.6,0.1-1.1,0.2-1.6,0.2c0.4,0.2,0.4,0.4,0.2,0.8c-0.1,0.3-0.1,1.1-0.2,3.5c1.6-0.4,2.3-0.5,2.3-0.4s-0.3,0.5-2.3,1.1
		c0,2.2-0.2,2.9-0.3,3.5c-0.3,0.8-0.7,0.9-0.9,0.4c-0.5-0.9-0.5-1.3-0.2-1.7c0.2-0.4,0.4-0.8,0.4-1.9c-3.2,1-4.4,1.3-5.2,1.8
		c-0.6,0.3-0.9,0.3-1.6-0.1c-1-0.5-1-0.8-0.3-0.8s1.3-0.1,3-0.5c0.2-1.7,0.2-3.8,0.1-5.1c-1.4-0.1-1.4-0.5-0.4-0.5
		c0.9-0.1,2.3-0.3,3.9-0.5c0.3-1.2,0.2-1.4-0.1-1.3c-2.1,0.4-2.3,0.4-3,0.2c-0.7-0.3-0.7-0.5-0.2-0.5c2.2-0.2,3-0.4,3.6-0.7
		c0.4-0.2,0.8-0.2,1.4,0c0.9,0.4,0.9,0.6,0.4,0.9c-0.5,0.2-0.7,0.4-1,1.1C17.3,179,17.6,178.9,18,179.1z M9.7,174.4
		c-0.2-0.7-0.7-1.5-0.9-1.9c-0.6-0.6-0.4-0.9,1.4-0.5c1-0.1,2.9-0.4,3.4-0.7c0.6-0.2,0.9-0.3,2.1,0.2c0.8,0.3,0.9,0.6,0.3,0.9
		c-0.1,0.1-0.3,0.5-0.6,1c-0.1,0.2-0.2,0.3,0,0.4c0.4,0.3,0.2,0.5-0.8,0.6c-0.5,0-1.5,0.2-3.7,0.5C10.7,175.7,10,175.7,9.7,174.4z
		 M10.8,174.2c0.8-0.1,1.7-0.2,2.4-0.4c0.6-0.1,0.7-0.4,0.9-1.4c0.1-0.4-0.1-0.6-0.7-0.4c-0.9,0.2-1.8,0.3-2.9,0.5
		C10.5,173.1,10.7,173.6,10.8,174.2z M12.2,180.4c0,0.2,0.1,0.6,0,1.1c0.1,0,0.4,0,0.8-0.1c0.7-0.2,1.1-0.1,1.3,0.2
		c0.1,0.2,0,0.3-0.2,0.4c-0.6,0.1-1.2,0.2-1.8,0.1l-0.1,1.2c0.2,0,0.5,0,0.9-0.1c0.7-0.2,1-0.2,1.2,0.2c0.1,0.2,0.1,0.3-0.2,0.4
		c-0.7,0.1-1.2,0.2-2,0.1l-0.1,1.5c0.9-0.2,1.9-0.5,3.2-0.9c0-0.6,0-1.4,0-2.3c0-1-0.1-1.5-0.2-2.1
		C13.7,180.2,12.8,180.3,12.2,180.4z M23.5,179c1.6-0.5,2.3-0.4,3,0c0.5,0.2,0.4,0.5-0.6,0.6c-0.9,0.1-2.1,0.3-3,0.4
		c1.1,0.5,1.2,0.7,0.9,1.1c-0.1,0.1-0.4,0.8-0.6,1.4c-0.3,0.6-0.6,1.1-0.9,1.6c1.5,1.3,3.1,2.2,6.8,3.1c0.7,0.2,0.7,0.5,0.1,0.5
		c-4.3,0.2-4.7,0.2-5.2-0.4c-0.9-0.9-1.8-1.9-2.3-2.4c-1.1,1.1-2.5,1.7-4.6,2.1c-0.6,0.1-0.6-0.2-0.1-0.4c1.9-0.7,3-1.5,4-2.6
		c-0.9-1.1-1.5-1.8-2.3-2.7c-0.3,0.3-0.7,0.6-1.1,0.8c-0.4,0.3-0.7,0.1-0.3-0.2c3-3.4,3.4-5.2,3.2-5.7c-0.1-0.2,0.2-0.5,1-0.1
		c1.1,0.5,1.2,0.8,0.7,1.2c-0.1,0.1-0.4,0.4-1,1.1c-0.4,0.5-0.7,1-1,1.4C21,179.6,22.4,179.3,23.5,179z M18.1,173.6
		c-0.2-0.9-0.5-1.7-0.8-2c-0.5-0.5-0.2-0.9,1.3-0.4c2.1-0.2,3.1-0.3,3.7-0.6c0.6-0.2,0.9-0.2,2.1,0.3c1,0.4,1,0.7,0.4,1
		c-0.4,0.2-0.6,0.4-1,1c-0.1,0.1-0.2,0.3,0,0.4c0.5,0.3,0.4,0.6-0.6,0.6c-1.6,0-2.8,0.1-4.1,0.3C19,174.9,18.4,174.8,18.1,173.6z
		 M19.2,173.5c0.9,0,1.9-0.1,2.8-0.3c0.2,0,0.3-0.2,0.6-0.9c0.2-0.7,0.1-0.9-0.4-0.8c-0.5,0-1.7,0.2-3.1,0.4
		C19,172.3,19.1,172.7,19.2,173.5z M19.7,180.2c-0.2,0.2-0.4,0.4-0.6,0.6c0.6,0.7,1.5,1.7,2.3,2.4c0.5-1,0.7-2.3,0.6-3
		C20.9,180.4,20.3,180.4,19.7,180.2z"/>
	<path class="st0" d="M12.9,199.7c-2,0.3-4.6,0.8-6.4,1.3c-0.8,0.2-1.1,0.2-2.3-0.6c-0.6-0.4-0.4-0.5,0.4-0.5c1.5,0,2.5,0,6.3-0.7
		c1.4-0.3,2-0.3,2.8-0.1C14.4,199.3,14.4,199.5,12.9,199.7z M8.8,211.5c-0.1,0.6-0.7,0.7-1-0.5c-0.8-2.7-1-3.3-1.7-3.7
		c-0.4-0.3-0.2-0.6,0.6-0.5c0.5,0.1,0.6,0.2,1,0.3c1.3-0.1,3-0.6,3.6-0.9c0.3-0.2,0.7-0.2,1.7,0.2c0.9,0.4,0.9,0.6,0.5,0.9
		c-0.4,0.3-0.5,0.5-0.7,1.1c-0.1,0.4-0.1,0.6,0.2,0.8c0.4,0.2,0.4,0.6-0.1,0.6c-1.3,0.2-2.7,0.5-4.2,0.8
		C8.9,211.3,8.9,211.4,8.8,211.5z M12.4,204.7c-2.4,0.7-3.4,0.7-4.6,0.5c-0.7-0.2-0.7-0.4,0.1-0.4c1-0.1,1.8-0.3,2.9-0.7
		c0.9-0.3,1.4-0.3,1.9-0.2C13.7,204,13.6,204.4,12.4,204.7z M12.7,202.2c-2.4,0.6-3.5,0.7-4.7,0.5c-0.7-0.1-0.7-0.3,0.1-0.4
		c0.9-0.1,1.5-0.2,2.9-0.7c1-0.4,1.5-0.4,2-0.2C13.9,201.5,13.7,201.9,12.7,202.2z M8.8,210c2.3-0.7,2.8-0.8,2.8-1.2
		c0.1-0.4,0.1-0.8,0.1-1.2c0-0.3-0.2-0.4-0.8-0.3c-1.5,0.3-2.1,0.4-2.6,0.5C8.4,208.4,8.6,209.2,8.8,210z M11.5,197.8
		c-0.9-0.6-1.5-1.1-2.2-2c-0.4-0.5-0.2-0.6,0.6-0.4c2.1,0.4,2.7,0.6,2.8,1.8C12.6,197.7,12,198.1,11.5,197.8z M16.9,205
		c-0.1,0.4-0.3,0.5-0.5,0.4s-0.5-0.4-0.6-0.7c-0.6-1.4-0.7-1.6-1-2c-0.4-0.6-0.1-0.9,1.5-0.3c1.1-0.1,2.2-0.2,3.2-0.3
		c0-0.8-0.1-1-0.2-1.4c-0.2,0-0.4,0-0.6,0c-0.2,0.3-0.3,0.3-0.4,0.2c-0.3-0.3-0.4-0.8-0.4-1.3c0-0.3-0.1-0.5-0.1-0.8
		c-1.9,0.3-2,0.3-2.9-0.1c-0.6-0.3-0.6-0.4,0.1-0.4c0.8,0,1.7-0.1,2.8-0.2c-0.2-1.2-0.5-1.9-1.2-2.4c-0.5-0.3-0.2-0.6,0.3-0.6
		c0.3,0,1,0.2,1.6,0.3c0.3,0.1,0.4,0.2,0.3,0.9c0,0.2,0,0.6,0.1,1.6c0.9-0.1,1.5-0.2,3.1-0.4c0.4-1.7,0.3-2.5,0.1-2.8
		c-0.5-0.6-0.1-0.9,0.7-0.6c1.5,0.6,1.6,0.8,1.4,1.2c-0.3,0.3-0.5,0.8-0.9,2c3.1-0.5,3.6-0.5,4.4-0.1c1.1,0.4,1,0.9-0.5,0.9
		c-1,0-2.7,0-4.2,0.1c-0.1,0.4-0.2,0.7-0.3,1.1c0.7,0.6,0.7,1,0,1c-0.9,0.1-1.6,0.1-2.3,0.2c0.9,0.3,1,0.5,0.9,0.8
		c-0.1,0.2-0.1,0.4-0.2,0.5c1.3-0.2,2.3-0.3,2.5-0.4c0.7-0.3,0.9-0.3,1.9,0.1c1.2,0.5,1.2,0.7,0.7,1c-0.4,0.2-0.7,0.6-1,1
		c0.6,0.4,0.6,0.7-0.4,0.8c-1.1,0-2.5,0.2-3.9,0.3v1.4c0.6-0.1,1.3-0.2,2-0.3s1.1-0.1,1.9,0c0.5,0.1,0.5,0.6-0.8,0.7
		c-1,0.1-1.8,0.2-3.1,0.3v1.4c0.4-0.1,0.8-0.2,1.2-0.2c0.7-0.1,1.3-0.2,1.8,0c0.4,0.2,0.4,0.5-0.2,0.6c-0.5,0.1-0.9,0.2-2.8,0.4v1.5
		c1.6-0.1,2.9-0.2,3.4-0.3c2.2-0.3,2.8-0.2,3.8,0.5c0.8,0.4,0.7,0.9-0.9,0.8c-1.8-0.2-3.7-0.4-6-0.2c-4.1,0.2-4.5,0.3-5.8,0.5
		c-1.1,0.2-1.4,0.2-2.3-0.3c-0.6-0.4-0.5-0.6,0.1-0.6s3.2,0,6.4-0.3V209c-1.3,0.1-2.2,0-2.7-0.1c-0.7-0.2-0.7-0.4-0.1-0.4
		c0.8,0,1.7-0.1,2.7-0.2v-1.4c-2,0.2-2.5,0.1-3.2-0.1c-0.7-0.2-0.6-0.5,0.1-0.5s2,0,3.1-0.2v-1.4C18.6,204.8,17.8,204.9,16.9,205z
		 M19.5,202.6c-1.1,0.1-2.2,0.2-3,0.3c0.1,0.5,0.2,1.1,0.3,1.5c0.8-0.1,1.7-0.2,2.7-0.2C19.5,203.5,19.5,203,19.5,202.6z
		 M18.9,198.7c0,0.4,0.1,0.9,0.1,1.4c1.9-0.1,2.4-0.3,2.5-0.7s0.2-0.7,0.2-1C20.5,198.4,19.9,198.5,18.9,198.7z M20.8,204
		c2.6-0.2,2.8-0.3,3-0.7c0.5-1.1,0.3-1.2-0.5-1.1c-0.3,0-1.3,0.1-2.4,0.2C20.8,202.8,20.8,203.3,20.8,204z"/>
	<path class="st0" d="M14.5,228.2c-0.1,0.9-0.2,2.5-0.4,3.5c-0.2,0.9-0.8,1.8-1,1.8s-0.4-0.3-0.7-1.3c-0.2-0.6-0.4-0.6-1.1-0.4
		c-0.9,0.2-1.6,0.3-2.4,0.2c-0.1,1-0.3,1.2-0.5,1.2c-0.3,0-0.7-0.5-0.7-1.5c0.2-3.2-0.2-5.8-0.9-6.6c-0.4-0.5-0.2-0.6,0.4-0.5
		c0.3,0,0.5,0.1,0.7,0.1s0.4,0,0.6-0.1c1.8-2.3,2.7-4.2,2.5-4.5c-0.4-0.8-0.2-1.1,1.4-0.7c1.5,0.3,1.4,0.6,0.7,1.1
		c-0.8,0.6-2.1,1.9-3.7,3.9c1.2-0.2,2.3-0.6,2.8-0.7c0.6-0.2,0.8-0.2,1.9,0.1c1.3,0.5,1.5,0.7,0.9,1.4
		C14.7,225.4,14.6,226.8,14.5,228.2z M11.2,224.6C9.7,224.9,9,225,8.5,225c0.1,0.5,0.2,1.5,0.3,2.7c0.5-0.1,0.8-0.2,1.1-0.3
		c0.6-0.2,0.9-0.2,1.3-0.2c0.7,0,0.9,0.5,0.2,0.7c-1,0.3-1.9,0.4-2.7,0.3c0.1,1.1,0.1,2.2,0,3.1c1.8-0.4,2.8-0.5,3.3-0.2
		c0.4,0.2,0.6,0.2,0.8-1.4c0.1-1.2,0.2-2.8,0.1-4.5C13,224.6,12.6,224.4,11.2,224.6z M25.9,228.5c-0.1,1.2-0.3,3-0.6,4.1
		c-0.3,1.5-1.2,2.8-2.6,3.4c-0.6,0.3-1,0.2-1.2-0.3c-0.2-0.7-1-1.7-1.5-2.1c-0.7-0.6-0.6-0.9,0.7-0.3c1.7,0.7,2.5,0.2,3-1.7
		c0.6-2,0.9-4,0.8-5.7c-0.1-1.4-0.3-1.7-1.2-1.7c-1.1,0.1-1.7,0.2-2.6,0.3c-0.8,0.1-1.3,0-2-0.4c-0.9,0.9-2,1.9-3,2.4
		c-0.5,0.3-0.7,0.1-0.3-0.3c1.6-1.6,3.2-3.3,4-5c0.9-1.6,1-2.2,0.9-2.4c-0.2-0.9-0.2-1,1.2-0.7c1.6,0.3,1.8,0.6,1.1,1.1
		c-0.3,0.3-0.9,0.9-1.8,2.2c-0.4,0.6-1,1.4-1.8,2.2c0.4,0.2,0.9,0.2,2.1,0c1-0.1,2-0.4,2.3-0.6c0.9-0.4,1.1-0.4,2.4,0.1
		c1.4,0.6,1.5,0.9,0.7,1.7C26.2,225.5,26,226.3,25.9,228.5z M19.3,229.2c-0.7-0.8-1.1-1.3-1.5-1.9c-0.4-0.5-0.2-0.6,0.7-0.4
		c1.4,0.3,2,0.8,2.1,1.5C20.8,229.4,20,229.9,19.3,229.2z"/>
	<path class="st0" d="M18.4,253.4c0.8-0.1,1.5-0.2,2.1,0c0.6,0.1,0.7,0.6-0.8,0.8c-0.7,0.1-2.5,0.3-4.4,0.5c1.2,0.7,2.3,1.2,3.2,1.7
		c1.8-0.9,2.5-1.5,2.6-1.9c0.1-0.2,0.2-0.3,1.4,0.2c1.2,0.4,1.2,0.5,0.7,0.6c-0.6,0.1-1.3,0.4-1.6,0.5c-1,0.5-1.5,0.7-2.4,0.9
		c3.3,1.6,5,1.9,9.2,2.4c0.7,0.1,0.7,0.4,0.1,0.5c-4.9,0.7-5.2,0.6-6.5-0.2c-2.4-1.5-4.5-2.8-6.8-4.3c-0.3,0.2-0.6,0.4-1.2,0.8
		c0.5,0.2,0.6,0.4,0.4,0.7c-0.2,0.3-0.3,0.8-0.3,2.1c0.9-0.4,1.5-0.6,2.4-1c1-0.4,1.3-0.2,0.1,0.6c-1.4,0.9-2.5,1.8-3,2.4
		c-0.5,0.5-0.8,0.5-1.6-0.2c-0.4-0.4-0.4-0.6,0.2-1c0.6-0.4,0.8-1,0.8-2.9c-3,1.8-4.6,2.4-7.4,2.9c-0.7,0.1-0.7-0.2-0.2-0.3
		c2.5-0.8,5-2.1,6.7-3.2c0.8-0.5,1.2-0.9,1.5-1.2c-1,0.1-2,0.2-2.5,0.3c-0.8,0.1-1.4,0.1-2-0.1C8,254.8,8,254.5,9,254.5
		c1.1,0,3.8-0.3,7-0.7c-0.3-0.2-0.7-0.6-1.2-1.3c-0.2-0.2,0.1-0.5,0.4-0.4c1.7,0.4,1.9,0.8,1.5,1.6
		C17.3,253.6,17.8,253.5,18.4,253.4z M8,247.9c-0.6,0.2-0.7,0.1-0.3-0.3c0.5-0.5,0.9-1,1.2-1.4c0.2-0.5,0.4-0.8,0.4-1.3
		c0-0.4,0.2-0.5,0.7-0.3c1.1,0.4,1.1,0.6,0.9,0.8c-0.1,0.1-0.3,0.3-0.5,0.6c0.5-0.1,1.2-0.2,2.3-0.5c0-1.1-0.2-1.8-0.5-2
		c-0.5-0.5-0.3-0.9,0.4-0.7c1.5,0.4,1.8,0.7,1.5,1c-0.1,0.1-0.3,0.7-0.3,1.5c1.7-0.4,2.5-0.5,2.8-0.2c0.3,0.2,0.3,0.4-0.2,0.5
		c-1,0.3-1.7,0.4-2.6,0.6c0,0.3,0,0.6-0.1,1c0.5-0.1,1-0.2,1.4-0.2c1.7-0.3,2.3-0.3,2.6-0.1c0.3,0.2,0.2,0.4-0.9,0.6
		c-0.9,0.1-2,0.3-3.1,0.4c0,0.4,0,0.7,0,1c0.5-0.1,1-0.2,1.3-0.3c0.5-0.2,0.8-0.2,1.6,0.1c0.7,0.2,0.8,0.4,0.7,0.6
		c-0.2,0.2-0.2,0.5-0.2,0.9c0,0.8-0.2,1.3-0.5,1.6c-0.3,0.4-0.6,0.4-0.9,0c-0.3-0.3-0.7-0.6-1.2-0.9c-0.3-0.1-0.3-0.2,0.1-0.2
		c0.8,0.1,1,0,1.1-0.3c0.1-0.4,0.1-0.6,0.1-0.9c0-0.2-0.2-0.3-0.9-0.3c-0.3,0-0.7,0.1-1.1,0.2c0,0.8,0,1.5,0,1.8
		c0,0.8-0.1,1.3-0.1,1.5c-0.4,0.7-0.6,0.7-1,0.2c-0.4-0.6-0.4-0.9-0.1-1.5c0.1-0.2,0.1-0.7,0.1-1.6c-0.6,0.1-1.5,0.3-2,0.3
		c0,0.8-0.1,1.4-0.2,2.1c-0.2,0.8-0.4,0.8-0.9,0.5c-0.3-0.2-0.5-0.6-0.3-0.9c0.2-0.4,0.3-1.5,0.1-1.9c-0.3-0.6-0.1-0.8,1.1-0.4
		c0.7-0.1,1.5-0.2,2.3-0.4c0-0.3,0-0.7,0-1.1c-1.7,0.3-3.9,0.7-5,1c-1,0.2-1.4,0.2-2-0.2s-0.5-0.5,0.1-0.5c0.9,0,2.9-0.3,6.9-1
		c0-0.3,0-0.7,0-1c-1.7,0.2-2.3,0.2-2.8,0.1C9.5,247.1,8.9,247.6,8,247.9z M20.4,248.4c0.1,1.1,0,1.5-0.2,1.7
		c-0.3,0.3-0.5,0.3-0.8,0c-0.2-0.3-0.4-0.8-0.2-1.2c0.1-0.5,0.1-2.4-0.4-3.1c-0.3-0.4,0-0.7,0.8-0.4c1.1,0.4,1.1,0.5,1,0.9
		C20.4,246.6,20.3,247.6,20.4,248.4z M24.6,243.4c0.2,0.1,0.3,0.2,0,0.8c-0.1,0.3-0.2,0.7-0.3,2.3c-0.1,1.5-0.1,3.9,0,4.6
		c0.1,0.7-0.2,1.5-0.8,2c-0.3,0.3-0.6,0.2-0.9-0.2c-0.2-0.2-0.6-0.6-1.8-1.3c-0.4-0.3-0.3-0.6,0.6-0.4c1.2,0.3,1.4,0.1,1.5-0.3
		c0.2-0.7,0.2-4.4,0.1-6c-0.1-0.8-0.3-1.2-0.6-1.5c-0.5-0.5-0.2-0.7,0.6-0.6C23.7,242.9,24.3,243.2,24.6,243.4z"/>
	<path class="st0" d="M12,270.3c-0.6,0.9-1.3,1.7-1.9,2.4c1,0.7,1.2,1.1,1.2,2.2c-0.1,1.2-0.1,2.8-0.1,6.4c0,0.9-0.2,1.9-0.4,2.3
		s-0.6,0.4-0.9-0.1c-0.5-0.8-0.8-1.8-0.4-2.6c0.2-0.5,0.4-1.9,0.5-4.4c0.1-1.8,0-2.7-0.3-3.5c-1.9,2-3.9,3.4-5.7,4.3
		c-0.5,0.2-0.7,0-0.2-0.4c2.9-2.4,3.7-3.2,5.5-5.6c1.3-1.8,1.8-2.9,1.6-3.6c-0.2-0.6,0.2-0.9,1.4-0.2c1.2,0.8,1.2,1.1,0.9,1.4
		C12.9,269.2,12.5,269.5,12,270.3z M26.6,271.8c-1.2,0.2-4.3,0.6-5.9,0.8c-0.6,0.1-1.1,0.1-1.6,0.2c1.1,0.5,1.1,0.9,1,1.4
		c-0.1,0.3-0.1,0.7-0.1,1.7c0.8-0.1,1.6-0.3,3.6-0.8c0.5-0.1,1.3,0,1.7,0.2c0.6,0.3,0.5,0.6-0.1,0.6c-0.9,0.1-1.9,0.3-3.1,0.5
		c-0.8,0.1-1.5,0.1-2.1,0c0,0.8,0,1.8,0.1,3.1c1-0.1,2-0.3,3.8-0.7c0.7-0.2,1.6,0,2,0.2c0.8,0.4,0.6,0.7-0.1,0.8
		c-0.9,0.1-2.4,0.2-3.6,0.3c-1.1,0.1-1.7,0.1-2.1,0c0.1,4.2,0.1,4.7-0.3,5.7c-0.2,0.5-0.6,0.5-0.9-0.1c-0.6-1.1-0.5-1.7-0.3-2.5
		s0.4-3.3,0.3-7.6c0-1.5-0.3-2.5-0.6-2.9c-0.7,0-1.1-0.1-1.4-0.2c-1.4,1.6-2.7,2.8-4.3,3.6c-0.5,0.3-0.7,0-0.2-0.4
		c1.4-1.2,3.4-3.5,4.4-5.3c1.2-2,1.6-3.2,1.5-3.8c-0.2-0.7,0.1-1,1.4-0.4s1.5,0.9,0.9,1.3c-0.3,0.2-0.7,0.7-1.1,1.3
		c-0.8,1.2-1.6,2.3-2.3,3.2c2.1-0.2,4.8-0.8,6.6-1.3c1.3-0.3,2.3-0.4,3.3,0C27.8,271.3,27.6,271.7,26.6,271.8z"/>
	<path class="st0" d="M14.2,156.1c0.9-0.4,1.6-1.1,1.8-2.1c-0.1,0-0.2,0-0.3,0c-0.9,0-1.8-0.6-1.8-1.5s0.9-1.5,1.8-1.5
		c1.2,0,2.1,0.7,2.1,1.8c0,1.5-1.3,3.2-3.1,3.7L14.2,156.1z"/>
	<path class="st0" d="M14.2,306.1c0.9-0.4,1.6-1.1,1.8-2.1c-0.1,0-0.2,0-0.3,0c-0.9,0-1.8-0.6-1.8-1.5s0.9-1.5,1.8-1.5
		c1.2,0,2.1,0.7,2.1,1.8c0,1.5-1.3,3.2-3.1,3.7L14.2,306.1z"/>
</g>
</svg>
