<?xml version="1.0" encoding="utf-8"?>
<!-- Generator: Adobe Illustrator 24.2.0, SVG Export Plug-In . SVG Version: 6.00 Build 0)  -->
<svg version="1.1" id="Layer_1" xmlns="http://www.w3.org/2000/svg" xmlns:xlink="http://www.w3.org/1999/xlink" x="0px" y="0px"
	 viewBox="0 0 100.7 315.7" style="enable-background:new 0 0 100.7 315.7;" xml:space="preserve">
<style type="text/css">
	.st0{fill:#FFFFFF;}
</style>
<g>
	<path class="st0" d="M73.8,8.8c-0.4-0.1-0.4-0.4,0-0.4c0.6,0,1.3-0.1,2.6-0.4c0-0.8-0.2-1.2-0.4-1.5c-0.5-0.5,0-0.7,1.1-0.4
		c1.1,0.4,1.1,0.5,0.8,0.9c-0.1,0.1-0.1,0.4-0.2,0.7c1.2-0.2,2-0.3,2.5-0.1c0.6,0.2,0.6,0.5,0.2,0.6c-0.4,0.1-0.8,0.2-2.8,0.5
		c0,0.2,0,0.5-0.1,0.8c0.9-0.2,1.5-0.3,1.8-0.4C80,9,80.2,9,81,9.3c1.4,0.5,1.4,0.8,0.9,1.1c-0.3,0.2-0.6,0.8-0.9,1.5
		c-0.3,0.8-0.5,1.2-0.7,1.4c-0.2,0.2-0.6,0.2-0.7,0.1c-0.4-0.4-0.7-0.5-2.2-0.2c0,0.2,0,1,0,1.4c0.9-0.1,1.4-0.2,2.6-0.4
		c1-0.2,1.8-0.2,2.1,0.2c0.2,0.2,0.1,0.4-0.2,0.4c-1.7,0.2-3.2,0.4-4.5,0.5c0,0.4,0,0.9,0.1,1.5c0.1,2-0.1,2.3-0.2,2.4
		c-0.2,0.3-0.5,0.2-0.8,0c-0.6-0.5-0.6-0.9-0.5-1.6c0.1-0.3,0.1-0.9,0.2-2.1C75,15.6,74,15.8,73.3,16c-1.7,0.4-2,0.5-3-0.1
		c-0.7-0.4-0.5-0.6,0.2-0.6c0.9,0,3.3-0.2,5.8-0.6c0-0.4,0-0.8,0.1-1.3c-0.6,0.1-1.3,0.2-1.8,0.2c0,0.2-0.2,0.4-0.4,0.4
		c-0.3,0-0.8-0.6-0.9-1.1c-0.3-1-0.7-2-1.2-2.5c-0.3-0.3,0-0.6,1.4-0.3c0.4,0,1.5-0.1,3-0.4c0-0.3,0-0.6,0-0.8C75,9,74.2,9,73.8,8.8
		z M74.7,11.8c-0.3-0.1-0.5-0.3,0-0.4c0.4,0,1.2-0.2,1.7-0.3c0-0.3,0-0.6,0-0.9c-0.3,0-1.9,0.2-2.6,0.3c0.1,0.5,0.2,1,0.6,2.4
		c0.7-0.1,1.4-0.2,2-0.4c0-0.3,0-0.5,0-0.8C75.2,11.9,75.1,11.9,74.7,11.8z M80.3,1.3c-0.5-0.6-0.2-0.8,0.4-0.7
		c2,0.6,2.1,0.7,1.8,1.2c-0.2,0.3-0.3,1-0.4,2.3l4.6-0.4C87,3.1,87,2.4,87,2.2c-0.3-0.6,0.1-0.8,1.2-0.3c1.3,0.7,1.2,0.9,0.8,1.1
		c-0.4,0.2-0.7,0.6-1.4,1.7c-0.3,0.5-1,0.8-1.2,0.7c-0.2-0.2-0.4-0.4-0.2-0.7c0.1-0.1,0.2-0.2,0.2-0.4c-5.3,0.4-9.2,0.9-10.3,1.4
		c-0.9,0.4-1,0.3-1.3-0.1c-0.5-0.6-0.5-0.7-0.1-0.9c0.7-0.3,0.9-1.2,0.2-2c-0.2-0.3,0-0.4,0.4-0.4c0.6,0.1,1,0.3,1.4,0.6
		c0.2,0.2,0.1,0.6-0.1,1.5c1.4,0,2.9-0.1,4.2-0.2C80.8,2.5,80.7,1.8,80.3,1.3z M78.9,11c0.4,0,0.5,0.4,0.1,0.5
		c-0.4,0.1-1,0.2-1.5,0.3c0,0.3,0,0.5-0.1,0.8c0.4-0.1,0.7-0.1,0.8-0.1c0.9,0,1.4-0.1,1.4-0.3c0.2-0.6,0.4-1,0.5-1.8
		c0.1-0.3-0.5-0.5-0.9-0.5c-0.4,0-1.1,0.1-1.8,0.2c0,0.3,0,0.6,0,0.9C78,10.9,78.5,10.9,78.9,11z M90.2,9.6c1.1-0.3,1.8-0.3,2.9,0.1
		c0.6,0.2,0.6,0.6-0.1,0.6c-1.1,0.1-1.7,0.2-3.6,0.3c0.3,0.3,0.4,0.6,0.1,1c-0.2,0.4-0.2,1.7-0.1,4c0,0.9-0.1,2.6-0.4,3.4
		c-0.2,0.6-0.7,0.6-0.9-0.1c-0.2-0.8-0.2-2.1-0.1-3.2c0-0.5,0.1-3.7-0.2-5c-1.2,0.1-2,0.1-2.7,0.1c-0.2,3-1.7,5.7-4.4,7.3
		c-0.6,0.4-0.9,0.1-0.3-0.4c2.3-1.9,3.3-4.7,3.3-7.1c0-1.6-0.1-2.1-0.5-2.6c-0.4-0.5-0.2-0.7,1.7-0.2c1.8-0.9,2.7-1.5,2.7-1.8
		c0.1-0.5,0.4-0.6,1.7-0.1c1.1,0.4,1,0.8,0.4,0.9C89,7,87.5,7.5,85.2,8.3c0,0.7,0,1.2,0,2C86.7,10.2,88.6,10,90.2,9.6z"/>
	<path class="st0" d="M81.4,34c-1.5,0.2-2.8,0.4-4,0.5c0.6,0.4,0.8,0.6,0.8,0.9c0,0.2,0,0.5-0.1,0.8c0.7-0.1,1.3-0.2,1.7-0.3
		c1.1-0.2,1.4-0.2,1.7,0c0.3,0.2,0.2,0.6-0.4,0.6c-0.9,0-1.8,0.1-3,0.3c0,0.5,0,1-0.1,1.5c1.8-0.2,3.2,0.4,3,1.1
		c-0.1,0.7-0.6,0.7-1.1,0.4c-0.8-0.5-1.3-0.8-1.9-1.3c0,0.7,0,1.3,0,1.6c0.1,1.1-0.2,2.3-0.9,3c-0.3,0.3-0.6,0.2-0.9-0.2
		c-0.5-0.7-0.9-1.1-1.4-1.5c-0.4-0.3-0.2-0.4,0.2-0.3c1.3,0.3,1.5,0.2,1.7-0.5C77,39.1,77,38.1,77,37c-1,0.2-2.2,0.4-3.5,0.6
		c-0.6,0.1-1.1,0.1-1.6-0.1c-0.7-0.3-0.7-0.5,0.1-0.6c1.3-0.1,3.3-0.4,5-0.6c-0.1-1-0.2-1.4-0.4-1.7c-2.3,0.4-3.9,0.7-4.7,0.9
		c-1,0.3-1.6,0.2-2.3-0.3c-0.6-0.4-0.5-0.7,0.1-0.6c0.7,0,3.9-0.2,8.1-0.9c0.7-0.9,1.1-1.9,1.3-2.7c0.1-0.3,0.2-0.4,0.7-0.1
		c1,0.5,1,0.7,0.6,1c-0.2,0.2-0.7,0.6-1.7,1.7c2.2-0.3,2.8-0.4,3.2-0.3C82.5,33.4,82.3,33.9,81.4,34z M73.6,40.5
		c-0.4,0.8-0.6,1.1-1.2,1.5c-0.2,0.2-0.6,0-0.7-0.3c-0.2-0.6-0.1-1,0.3-1.5c0.4-0.4,0.9-1.2,1.1-1.7c0.1-0.3,0.5-0.2,0.6,0
		C74,38.9,73.9,39.7,73.6,40.5z M81.4,30.1c-0.4,0.1-1.3,0.2-2.3,0.4c-2.9,0.5-4,0.6-4.6,0.6c-1.8-0.2-1.8-0.6-0.6-0.7
		c0.9,0,2.9-0.4,4.3-0.6c2.5-0.5,2.8-0.6,3.2-0.5C82.4,29.5,82.5,29.9,81.4,30.1z M75.6,33.3c-0.4-0.3-0.9-0.9-1-1.2
		c-0.1-0.4,0.1-0.5,0.6-0.3c1.2,0.3,1.4,0.7,1.3,1.3C76.5,33.5,76.1,33.6,75.6,33.3z M78.7,28.7c-0.3-0.2-1.2-0.9-1.9-1.6
		c-0.3-0.3-0.2-0.5,0.4-0.4c2,0.2,2.6,0.6,2.6,1.4C79.9,28.7,79.3,29,78.7,28.7z M92.7,34.2c-1.3,0-2.5,0.1-4.1,0.3
		c0.8,0.4,1,0.9,0.8,1.3c-0.1,0.2-0.2,2.3-0.2,3.8c0.1,2.3-0.2,5.5-0.6,6.5c-0.3,0.8-0.8,0.7-0.9-0.2c-0.1-0.8-0.1-2.7,0-5.5
		c0.1-3,0.1-4.5-0.3-5.6c-0.8,0.1-1.7,0-2.4-0.2c-0.6,5-2,6.8-4.7,8.2c-0.5,0.3-0.8,0.1-0.4-0.3c1.8-1.5,2.8-3,3.1-4.2
		c0.9-3.5,1-6,0.1-6.9c-0.4-0.5-0.3-0.8,1.3-0.5c2.5-1.1,3.4-1.9,3.6-2.4c0.2-0.5,0.3-0.6,1.7,0c1.4,0.7,1.4,1.1,0.6,1.1
		c-0.5,0.1-2,0.4-5.1,1.4c0.2,0.5,0.2,1.1,0,3.2c1.2-0.1,3.2-0.4,5.8-0.9c0.7-0.1,1.8-0.1,2.3,0.1C94,33.7,93.9,34.2,92.7,34.2z"/>
	<path class="st0" d="M79.5,63.5c-0.1,0.9-0.2,2.5-0.4,3.5c-0.2,0.9-0.8,1.8-1,1.8c-0.2,0-0.4-0.3-0.7-1.3c-0.2-0.6-0.4-0.6-1.1-0.4
		c-0.9,0.2-1.6,0.3-2.4,0.2c-0.1,1-0.3,1.2-0.5,1.2c-0.3,0-0.7-0.5-0.7-1.5c0.2-3.2-0.2-5.8-0.9-6.6c-0.4-0.5-0.2-0.6,0.4-0.5
		c0.3,0,0.5,0.1,0.7,0.1c0.2,0,0.4,0,0.6-0.1c1.8-2.3,2.7-4.2,2.5-4.5c-0.4-0.8-0.2-1.1,1.4-0.7c1.5,0.3,1.4,0.6,0.7,1.1
		c-0.8,0.6-2.1,1.9-3.8,3.9c1.2-0.2,2.3-0.6,2.8-0.7c0.6-0.2,0.8-0.2,1.9,0.1c1.3,0.5,1.5,0.7,0.9,1.4
		C79.7,60.8,79.6,62.2,79.5,63.5z M76.1,60c-1.5,0.3-2.2,0.4-2.6,0.4c0.1,0.5,0.2,1.5,0.3,2.7c0.5-0.1,0.8-0.2,1.1-0.3
		c0.6-0.2,0.9-0.2,1.4-0.2c0.7,0,0.9,0.5,0.2,0.7c-1,0.3-1.9,0.4-2.7,0.3c0.1,1.1,0.1,2.2,0,3.1c1.8-0.4,2.8-0.5,3.3-0.2
		c0.4,0.2,0.6,0.2,0.8-1.4c0.1-1.2,0.2-2.8,0.1-4.5C78,59.9,77.6,59.7,76.1,60z M90.9,63.8c-0.1,1.2-0.3,3-0.6,4.1
		c-0.3,1.5-1.2,2.8-2.6,3.4c-0.6,0.3-1,0.2-1.2-0.3c-0.2-0.7-1-1.7-1.5-2.1c-0.7-0.6-0.6-0.9,0.7-0.3c1.7,0.7,2.5,0.2,3-1.7
		c0.6-2.1,0.9-4,0.8-5.7c-0.1-1.4-0.3-1.7-1.2-1.7c-1.1,0.1-1.7,0.2-2.6,0.3c-0.8,0.1-1.3,0-2-0.4c-0.9,0.9-2,1.9-3,2.4
		c-0.5,0.3-0.7,0.1-0.3-0.3c1.6-1.6,3.2-3.3,4.1-5c0.9-1.6,1-2.2,0.9-2.4c-0.2-0.9-0.2-1,1.2-0.7c1.6,0.3,1.8,0.6,1.1,1.1
		c-0.3,0.3-0.9,0.9-1.8,2.2c-0.4,0.6-1,1.4-1.8,2.2c0.4,0.2,0.9,0.2,2.1,0c1-0.1,2-0.4,2.3-0.6c0.9-0.4,1.1-0.4,2.4,0.1
		c1.4,0.6,1.5,0.9,0.7,1.7C91.2,60.8,91,61.7,90.9,63.8z M84.3,64.5c-0.7-0.8-1.1-1.3-1.5-1.9c-0.4-0.5-0.2-0.6,0.7-0.4
		c1.4,0.3,2,0.8,2.1,1.5C85.8,64.8,84.9,65.2,84.3,64.5z"/>
	<path class="st0" d="M86.7,91.9c-1.7-0.7-3.3-1.5-5.7-3.2c-0.4,0.7-1.1,1.5-2.1,2.3c-1.5,1.1-4.8,2-7,1.9c-0.9,0-0.9-0.3-0.2-0.4
		c4-0.8,6.8-1.8,8-4c-0.9,0.1-1.7,0.1-2.3,0.2c-1.1,0.1-2.2,0.2-2.6,0c-0.7-0.3-0.6-0.5,0.2-0.5c1.2-0.1,3.2-0.3,5-0.5
		c0.2-0.8,0.3-1.6,0.1-2.1c-0.2-0.4,0-0.6,0.7-0.4c1.5,0.4,1.6,0.7,1.3,1.1c-0.1,0.2-0.3,0.6-0.5,1.2c0.9-0.1,1.5-0.2,2-0.3
		c1.8-0.4,3.8-0.3,4.4,0c0.6,0.2,0.3,0.7-1.4,0.9c-1.1,0.1-2.9,0.2-4.9,0.4c4.3,2,6.1,2.5,11.4,3.1c0.9,0.1,1,0.4,0.1,0.5
		C88.4,92.6,88.1,92.6,86.7,91.9z M79.8,95.5c-0.1,0.2-0.1,0.5,0.2,0.8c0.4,0.3,0.4,0.4-0.6,0.6c-2.2,0.3-3.5,0.4-4.4,0.4
		c0,0.6-0.2,0.9-0.4,0.9c-0.4,0-0.6-0.6-0.7-1.3c-0.2-1.8-0.3-2.2-0.8-2.6c-0.6-0.6-0.6-0.9,0.9-0.6c1.4,0,3.4-0.5,4.1-0.8
		c0.4-0.2,0.9-0.2,1.8,0.2c1.4,0.6,1.4,0.8,1,1.2C80.3,94.8,80.1,95.1,79.8,95.5z M79.6,83.9c-0.1,0.2-0.1,0.3,0.1,0.5
		c0.2,0.2,0.2,0.4-0.6,0.6c-0.8,0.2-2.3,0.4-3.2,0.4c0.1,0.6-0.1,0.8-0.4,0.8c-0.4,0-0.6-0.3-0.8-1c-0.5-1.6-0.7-2.1-1.2-2.6
		c-0.5-0.7-0.5-0.9,0.6-0.6c1.7,0,3.4-0.3,4.3-0.7c0.4-0.2,0.6-0.2,1.6,0.2c1.4,0.6,1.4,0.7,0.7,1.2C80.2,83,79.9,83.4,79.6,83.9z
		 M77.9,93.7c-0.6,0.1-2.2,0.2-3.3,0.3c0.2,0.8,0.2,1.2,0.4,2.5c2.4-0.2,3.1-0.3,3.3-1c0.1-0.4,0.2-0.6,0.3-1.2
		C78.7,93.7,78.5,93.6,77.9,93.7z M77.8,82.1c-1.3,0.2-2,0.3-2.7,0.4c0.3,0.7,0.4,1.2,0.7,2.4c2-0.3,2.4-0.5,2.6-0.9
		c0.1-0.4,0.2-0.6,0.3-1.2C78.8,82.1,78.6,82,77.8,82.1z M89.5,95.5c-0.2,0.2-0.2,0.5,0.1,0.8c0.4,0.3,0.2,0.4-0.4,0.5
		c-2.2,0.3-3.6,0.4-4.9,0.4c-0.1,0.6-0.2,0.8-0.5,0.8c-0.4,0-0.7-0.6-0.7-1.3c-0.2-1.9-0.3-2.3-0.7-2.8c-0.5-0.7-0.5-0.9,0.7-0.6
		c1.4,0,3.6-0.3,4.3-0.5c0.6-0.2,0.9-0.1,1.8,0.3c1.8,0.8,1.9,1,1.3,1.4C90.2,94.8,89.8,95.2,89.5,95.5z M88.7,83.3
		c-0.3,0.3-0.3,0.6-0.2,0.7c0.3,0.4,0.2,0.5-0.1,0.5c-0.8,0.2-2.5,0.3-4.1,0.4c0,0.4-0.1,0.5-0.4,0.5c-0.3,0-0.5-0.2-0.7-1.3
		c-0.3-1.5-0.5-1.8-0.8-2.2c-0.5-0.6-0.4-0.9,1-0.5c1.4,0,3.1-0.3,3.8-0.6c0.6-0.2,1.1-0.1,2,0.3c1.5,0.7,1.4,1,1,1.2
		C89.8,82.6,89.2,82.9,88.7,83.3z M87.6,93.5c-1.9,0.2-2.9,0.3-3.6,0.3c0.2,0.8,0.2,1.4,0.3,2.7c3.1-0.2,3.3-0.4,3.5-0.9
		c0.2-0.4,0.3-0.6,0.4-1.3C88.4,93.7,88.3,93.5,87.6,93.5z M87.2,81.6c-0.5,0.1-2,0.2-3.1,0.3c0.2,0.8,0.3,1.6,0.3,2.4
		c2.3-0.2,2.5-0.3,2.9-0.9c0.2-0.4,0.4-0.6,0.5-1.2C88,81.7,87.8,81.5,87.2,81.6z M89.8,87.2c-0.6-0.2-1.4-0.6-2.2-1.3
		c-0.4-0.4-0.4-0.5,0.3-0.6c1.6-0.2,2.3,0.4,2.7,1C91.2,87.1,90.7,87.5,89.8,87.2z"/>
	<path class="st0" d="M92.6,119.1c-3.2-0.3-7.9-0.3-11.5,0c-2.8,0.2-7,0.6-8,0.9c-1.2,0.3-1.8,0.2-2.6-0.1c-0.9-0.4-0.8-0.6,0.3-0.6
		c2.3-0.1,4.4-0.3,6.4-0.4c0.1-3.2,0.1-5.7,0-8.7c0-0.7-0.2-1-0.6-1.4c-0.4-0.4-0.4-0.7,1.6-0.3c3.1-0.3,5-0.6,5.8-0.9
		c0.9-0.3,1.3-0.4,2.6,0.2c1.2,0.6,1.3,0.8,0.9,1.3c-0.3,0.3-0.5,0.9-0.6,1.5c-0.1,1.1-0.4,4.3-0.7,7.7c1.9-0.1,3.1-0.2,3.8-0.3
		c1.5-0.2,2.5,0,3.4,0.4C94.6,118.6,94.2,119.2,92.6,119.1z M77.6,122.5c-1.6,1.1-3,1.7-4.3,2c-0.8,0.2-1,0-0.2-0.4
		c1.1-0.5,2.4-1.4,3.1-2c1-0.8,1.3-1.2,1.2-1.6c0-0.5,0.3-0.6,1.5-0.2c1.1,0.4,1.2,0.7,0.5,1.1C79,121.6,78.5,121.9,77.6,122.5z
		 M84.1,108.3c-0.8,0-2.6,0.2-5.5,0.6c0,0.6,0,1.3,0,2.1c2.5-0.6,3.3-0.8,3.9-0.7c1.4,0.1,1.3,0.5,0.1,0.7c-1.4,0.4-2.9,0.5-4,0.4
		c0,0.7,0,1.4,0,2.1c2.3-0.5,3-0.6,3.6-0.6c0.9,0.1,1.3,0.4,0.1,0.7c-1,0.2-2.4,0.4-3.7,0.1c0,0.8,0,1.5-0.1,2.3
		c3.1-0.6,4-0.7,4.5-0.6c0.6,0.2,0.5,0.4-0.2,0.6c-1.4,0.4-3,0.5-4.3,0.3c0,0.8-0.1,1.6-0.1,2.3c2.4-0.2,4.5-0.3,6.5-0.4
		c0.2-3.2,0.4-6.2,0.3-9C85.2,108.4,84.9,108.3,84.1,108.3z M88.1,124.4c-1.2-0.8-3-2.2-4-3.1c-0.4-0.4-0.3-0.7,0.4-0.5
		c3.8,1.1,4.6,1.7,4.9,3C89.5,124.6,88.7,124.8,88.1,124.4z"/>
	<path class="st0" d="M79.1,143.1c0.9-0.4,1.6-1.1,1.8-2.1c-0.1,0-0.2,0-0.3,0c-0.9,0-1.8-0.6-1.8-1.5c0-0.9,0.9-1.5,1.8-1.5
		c1.2,0,2.1,0.7,2.1,1.8c0,1.5-1.3,3.2-3.1,3.8L79.1,143.1z"/>
	<path class="st0" d="M79.1,307.1c0.9-0.4,1.6-1.1,1.8-2.1c-0.1,0-0.2,0-0.3,0c-0.9,0-1.8-0.6-1.8-1.5c0-0.9,0.9-1.5,1.8-1.5
		c1.2,0,2.1,0.7,2.1,1.8c0,1.5-1.3,3.2-3.1,3.8L79.1,307.1z"/>
	<path class="st0" d="M80.6,166.3c-0.8,0.1-2,0.3-2.9,0.5c0,0.4,0,0.9-0.1,1.4c2.2-0.3,2.8-0.1,3.2,0.5c0.2,0.4-0.1,0.8-0.7,0.7
		c-0.6-0.1-1.2-0.3-2.5-0.9c0,1.6,0,3.6,0,5.4c0.1,1.2-0.1,2-0.4,2.8c-0.3,0.8-0.8,0.7-1.2-0.1c-0.4-1.1-0.5-1.5-0.1-2.4
		c0.4-0.9,0.7-3.7,0.9-6c-1.5,2.5-4.6,4.7-7,5.4c-0.5,0.1-0.6-0.1-0.3-0.3c3.6-2.3,5.4-3.9,6.8-6.3c-1.7,0.4-2.6,0.6-4.3,1.1
		c-1.1,0.3-1.3,0.3-2.2-0.2c-0.8-0.4-0.7-0.9,0.4-0.8c0.5,0,4.7-0.6,6.7-1c0-1.7-0.2-2.5-0.5-3c-1.2,0.3-2.3,0.6-2.8,0.6
		c-0.6,0.1-0.7-0.2-0.2-0.4c4.1-1.7,4.6-2.1,4.9-2.7c0.2-0.5,0.5-0.5,1.9,0.1c1.3,0.5,1.4,1,0.6,1.1c-0.4,0.1-1.7,0.4-2,0.5
		c-0.4,0.1-0.9,0.3-1.5,0.4c1.2,0.3,1.3,0.5,1.1,1.1c-0.1,0.4-0.4,1.2-0.5,1.9c2.3-0.6,2.9-0.6,3.5-0.4
		C81.7,165.7,81.5,166.1,80.6,166.3z M93.3,169.5c-1.4,0-3.1,0.1-4.3,0.2c0,5.9-0.1,7.5-0.7,8.8c-0.3,0.9-0.7,0.9-0.9-0.1
		c-0.1-0.8-0.1-4.3,0-8.5c-2.1,0.3-2.9,0.4-4,0.7c-1.6,0.4-1.9,0.3-2.5,0c-0.7-0.3-1-0.6,0.6-0.7c0.7,0,2.8-0.4,5.8-0.8
		c0-1.6,0-4.7,0-6.2c0-1.7-0.2-2.4-0.6-2.9c-0.7-0.7,0-1,1.2-0.5c1.4,0.5,1.6,0.7,1.4,1.3c-0.1,0.3-0.3,1.5-0.3,2.5
		c-0.1,0.8-0.1,3.4-0.1,5.6c1-0.2,1.8-0.3,2.2-0.4c1.4-0.3,2.3-0.3,3.1,0.2C95.1,169.1,95.1,169.5,93.3,169.5z M85,167.7
		c-0.6-0.1-1.4-0.5-2.3-1c-0.3-0.2-0.3-0.4,0.3-0.5c1.7-0.2,2.5,0.3,2.7,0.9C85.8,167.6,85.4,167.8,85,167.7z M85,164.7
		c-0.5-0.1-1.3-0.4-2.3-1c-0.2-0.1-0.2-0.4,0.2-0.5c1.5-0.4,2.7,0.1,2.8,1C85.9,164.7,85.5,164.8,85,164.7z"/>
	<path class="st0" d="M86.7,191.8c-1.8,0.3-2.3,0.2-3-0.1c-0.2-0.1-0.2-0.2,0-0.2c0.7,0,2-0.1,3.1-0.2c0.1-0.5,0.2-0.9,0.3-1.4
		c-1.8,0.3-2.6,0.3-3.1,0.1c-0.5-0.2-0.4-0.4-0.1-0.4c1.1-0.1,2.2-0.2,3.3-0.3c0.2-1.3,0-1.5-0.8-1.4c-0.9,0.2-1.6,0.2-2.1,0
		c-0.6-0.2-0.5-0.3,0-0.4c0.9-0.1,2.2-0.3,2.7-0.5c0.4-0.2,0.7-0.1,1.7,0.4c1,0.5,1.1,0.7,0.6,1.1c-0.4,0.4-0.6,0.6-1.7,4.6
		c1-0.1,1.3-0.1,1.7-0.2c1-0.2,1.2-0.2,1.8,0.1c0.5,0.2,0.7,0.3,1.3,0.8c0.7,0.5,0.6,0.9-0.2,0.9c-1,0.1-1.3,0.1-3.3,0.9
		c-0.4,0.2-0.6,0.1-0.2-0.4c1.2-1.4,1.1-1.5,0.6-1.5c-2.5,0-11.9,0.7-13.1,0.9c-2,0.3-2.8,0.4-3.2,0.4c-0.3,0.9-0.6,1.5-1.1,2.2
		c-0.3,0.3-0.7,0.3-0.9,0c-0.4-0.5-0.4-1.1-0.1-1.4c0.6-0.6,0.9-1.1,1-1.9c0.1-0.5,0.5-0.5,1.1,0.5c0.4,0,1,0,2.5-0.2
		c-1.2-4.1-1.4-4.6-2.1-5c-0.3-0.2-0.2-0.4,0.5-0.5c0.4,0,0.8-0.1,1.1,0c1-0.7,1.1-0.9,1.1-1.2c0.1-0.5,0.5-0.7,1.6,0
		c0.6,0.3,0.6,0.6,0.1,0.6c-0.3,0.1-1.5,0.5-2.5,0.9c0,0.2,0.1,0.5,0.3,1.3c1.3-0.5,2.1-0.5,2.5-0.3c0.3,0.1,0.3,0.4-0.1,0.5
		c-0.7,0.2-1.4,0.3-2.3,0.4c0.1,0.4,0.2,0.8,0.4,1.4c1.7-0.5,2.3-0.6,2.9-0.3c0.2,0.1,0.2,0.3-0.4,0.5c-0.4,0.1-1.5,0.2-2.4,0.3
		c0.1,0.4,0.2,0.9,0.4,1.3c2-0.2,5.3-0.5,9.7-0.8C86.5,192.8,86.6,192.3,86.7,191.8z M83,196.1c0.5-0.5,0.4-0.8-0.8-0.6
		c-0.6,0.1-2.3,0.5-3.5,0.8c-0.7,0.2-1.2,0.1-1.8-0.2c-0.6-0.3-0.5-0.5,0.1-0.5c1.5,0,4.5-0.4,6-0.9c0.6-0.2,0.9-0.2,2.3,0.5
		c0.9,0.4,0.8,0.8-0.1,1c-0.6,0.1-1.4,0.5-3,1.5c0.1,0.1,0.2,0.3,0.3,0.5c1.8-0.2,3.6-0.4,4.9-0.6c1-0.1,1.8,0,2.6,0.5
		c0.9,0.6,0.7,1-1.8,0.8c-1-0.1-3.8,0-5.6,0.1c0.4,3.6,0.1,4.7-0.8,5.6c-0.8,0.8-1.4,0.8-1.7,0.4c-0.5-0.8-0.8-1.1-2-1.7
		c-0.4-0.2-0.2-0.5,0.4-0.4c2.3,0.4,2.9,0.2,3-1.4c0-1,0-1.8-0.2-2.4c-2.3,0.2-5.1,0.4-6.6,0.7c-0.9,0.2-1.4,0.2-2.3-0.2
		c-1.2-0.5-1.2-0.6-0.1-0.7c1.9,0,5.4-0.3,8.7-0.6c-0.1-0.3-0.4-0.6-0.6-0.8c-0.3-0.2-0.2-0.4,0.5-0.3c0.3,0.1,0.6,0.1,0.8,0.2
		C82,197,82.4,196.6,83,196.1z M79,193.4c-0.3,0.1-0.4,0,0-0.2c0.8-0.6,1.3-1.1,1.7-1.5c-0.3-0.2-0.7-0.4-1-0.6
		c-0.4-0.2-0.3-0.4,0.2-0.3c0.5,0.1,0.9,0.2,1.2,0.4c0.2-0.3,0.3-0.5,0.3-0.7c0.1-0.4,0.3-0.5,0.9-0.1c0.4,0.2,0.4,0.4,0.2,0.5
		c-0.2,0.1-0.3,0.3-0.7,0.7c0.7,0.5,1,0.7,1,1.1c0.1,0.5-0.2,0.6-0.5,0.2c-0.4-0.3-0.7-0.6-1-0.8C80.6,192.8,79.9,193.1,79,193.4z
		 M79.4,190c-0.4,0.1-0.4,0-0.2-0.2c0.6-0.5,1-0.9,1.4-1.3c-0.4-0.2-0.9-0.5-1.4-0.9c-0.4-0.2-0.3-0.4,0.2-0.2
		c0.8,0.2,1.4,0.4,1.6,0.6c0.6-0.8,0.7-1.2,0.6-1.3c-0.3-0.3,0.1-0.4,1.1,0c0.5,0.2,0.6,0.5,0.2,0.8c-0.3,0.3-0.6,0.5-1,0.9
		c1,0.5,1.1,0.7,1.1,1.2c0,0.5-0.3,0.6-0.6,0.3c-0.3-0.3-0.7-0.6-1.1-0.9C80.7,189.6,80.1,189.8,79.4,190z"/>
	<path class="st0" d="M79.5,222.4c-0.1,0.9-0.2,2.5-0.4,3.5c-0.2,0.9-0.8,1.8-1,1.8c-0.2,0-0.4-0.3-0.7-1.3
		c-0.2-0.6-0.4-0.6-1.1-0.4c-0.9,0.2-1.6,0.3-2.4,0.2c-0.1,1-0.3,1.2-0.5,1.2c-0.3,0-0.7-0.5-0.7-1.5c0.2-3.2-0.2-5.8-0.9-6.6
		c-0.4-0.5-0.2-0.6,0.4-0.5c0.3,0,0.5,0.1,0.7,0.1c0.2,0,0.4,0,0.6-0.1c1.8-2.3,2.7-4.2,2.5-4.5c-0.4-0.8-0.2-1.1,1.4-0.7
		c1.5,0.3,1.4,0.6,0.7,1.1c-0.8,0.6-2.1,1.9-3.8,3.9c1.2-0.2,2.3-0.6,2.8-0.7c0.6-0.2,0.8-0.2,1.9,0.1c1.3,0.5,1.5,0.7,0.9,1.4
		C79.7,219.7,79.6,221.1,79.5,222.4z M76.1,218.9c-1.5,0.3-2.2,0.4-2.6,0.4c0.1,0.5,0.2,1.5,0.3,2.7c0.5-0.1,0.8-0.2,1.1-0.3
		c0.6-0.2,0.9-0.2,1.4-0.2c0.7,0,0.9,0.5,0.2,0.7c-1,0.3-1.9,0.4-2.7,0.3c0.1,1.1,0.1,2.2,0,3.1c1.8-0.4,2.8-0.5,3.3-0.2
		c0.4,0.2,0.6,0.2,0.8-1.4c0.1-1.2,0.2-2.8,0.1-4.5C78,218.8,77.6,218.6,76.1,218.9z M90.9,222.7c-0.1,1.2-0.3,3-0.6,4.1
		c-0.3,1.5-1.2,2.8-2.6,3.4c-0.6,0.3-1,0.2-1.2-0.3c-0.2-0.7-1-1.7-1.5-2.1c-0.7-0.6-0.6-0.9,0.7-0.3c1.7,0.7,2.5,0.2,3-1.7
		c0.6-2.1,0.9-4,0.8-5.7c-0.1-1.4-0.3-1.7-1.2-1.7c-1.1,0.1-1.7,0.2-2.6,0.3c-0.8,0.1-1.3,0-2-0.4c-0.9,0.9-2,1.9-3,2.4
		c-0.5,0.3-0.7,0.1-0.3-0.3c1.6-1.6,3.2-3.3,4.1-5c0.9-1.6,1-2.2,0.9-2.4c-0.2-0.9-0.2-1,1.2-0.7c1.6,0.3,1.8,0.6,1.1,1.1
		c-0.3,0.3-0.9,0.9-1.8,2.2c-0.4,0.6-1,1.4-1.8,2.2c0.4,0.2,0.9,0.2,2.1,0c1-0.1,2-0.4,2.3-0.6c0.9-0.4,1.1-0.4,2.4,0.1
		c1.4,0.6,1.5,0.9,0.7,1.7C91.2,219.7,91,220.6,90.9,222.7z M84.3,223.4c-0.7-0.8-1.1-1.3-1.5-1.9c-0.4-0.5-0.2-0.6,0.7-0.4
		c1.4,0.3,2,0.8,2.1,1.5C85.8,223.7,84.9,224.1,84.3,223.4z"/>
	<path class="st0" d="M88.9,247.4c-0.7,0.3-0.9,0.2-0.4-0.6c0.8-1.1,0.7-1.3,0-1.3c-0.7,0-2.6,0.1-4.5,0.3c-1.8,0.2-7.6,0.8-8.4,0.9
		c-1,0.1-1.5,0.2-2.1,0.1c-0.2,0.8-0.7,1.9-1,2.1c-0.9,0.7-1.1,0.6-1.4-0.1c-0.2-0.4-0.2-0.8,0.2-1.2c0.5-0.6,0.8-1.3,0.9-1.8
		c0-0.6,0.5-0.8,1.6,0.5c0.9-0.1,2.7-0.2,8.4-0.8c3.5-0.4,5.8-0.7,6.4-0.8c1.3-0.4,1.5-0.4,3.1,0.5c1.6,0.8,1.7,1.3,0.8,1.4
		C91,246.6,90.2,246.9,88.9,247.4z M79.1,241.7c-0.6,0-1.2-0.1-1.8-0.3c-0.9,1.3-2.1,2.2-3.3,2.7c-0.7,0.3-0.8,0.2-0.4-0.2
		c2.4-2.6,2.9-3.5,2.6-4.1c-0.2-0.4,0-0.6,1.2-0.4c1,0.2,1.2,0.6,0.9,0.9c-0.1,0.1-0.4,0.4-0.6,0.7c0.7,0,1.2-0.1,1.9-0.3
		c0.7-0.2,1.1-0.2,1.5,0c0.7,0.2,0.7,0.5,0.1,0.7C80.8,241.5,79.5,241.7,79.1,241.7z M86.2,254.2c-0.8,0.5-0.8,0.8-0.5,1
		c0.6,0.4,0.5,0.8-0.2,0.8c-0.9,0-2.2,0.1-4.7,0.3c-1.1,0.1-1.8,0.1-2.5,0.1c-0.1,0.9-0.4,1.5-0.8,1.5c-0.6,0-1.2-1.2-0.8-2.1
		c0.6-1.5,0.8-6.3,0.2-7.5c-0.4-0.8-0.1-1,1.3-0.4c1.4,0,3.5-0.3,4.6-0.7c0.9-0.3,1.2-0.3,2.2,0.2c0.9,0.5,0.9,0.7,0.5,1
		c-0.2,0.1-0.5,0.3-0.7,0.6c-0.4,0.4-0.5,0.8-0.4,0.9c0.4,0.4,0.3,0.6-0.5,0.6c-0.9,0.1-3.8,0.3-5.4,0.5c0,0.6,0,1.2,0,1.8
		c3.1-0.3,4.3-0.4,5.5-0.8c0.6-0.2,1-0.2,2.2,0.4c1.2,0.6,1.2,0.8,0.8,1.1C86.9,253.7,86.5,254,86.2,254.2z M78.1,244
		c-0.4-0.2-0.7-0.5-1.2-1c-0.3-0.3-0.2-0.5,0.5-0.4c1.1,0.1,1.4,0.2,1.6,0.8C79.2,243.9,78.6,244.2,78.1,244z M83.6,253
		c-1.2,0.1-3.4,0.3-5.1,0.5c0,0.9-0.1,1.7-0.1,2.2c2.3-0.2,4.2-0.3,4.8-0.5c0.5-0.1,0.8-0.3,1.2-1.2C84.6,253.3,84.2,253,83.6,253z
		 M82.7,248.2c-0.4,0-2.8,0.2-4.2,0.3c0,0.5,0,1.2,0,1.9c1.5-0.1,3.9-0.4,4.1-0.5c0.4-0.2,0.5-0.3,0.7-1.3
		C83.4,248.4,83.2,248.2,82.7,248.2z M81.5,244.9c-0.5-0.2-0.9-0.5-1.4-0.9c-0.3-0.2-0.2-0.5,0.6-0.5c1.2,0,1.7,0.2,1.8,0.8
		C82.6,245,82,245.1,81.5,244.9z M89.3,240.8c-0.7,0.2-2,0.4-3.1,0.3c-0.6,0-1.3-0.1-1.8-0.2c-0.6,0.7-1.8,1.9-2.6,2.2
		c-0.7,0.3-0.8,0.2-0.4-0.3c1.7-1.8,2.2-3,2.1-3.6c-0.1-0.5,0.1-0.6,0.8-0.5c1.3,0.2,1.4,0.6,1.1,0.8c-0.2,0.2-0.5,0.6-0.7,0.9
		c0.9,0,1.9-0.2,3-0.4c0.9-0.2,1.4-0.2,1.8-0.1C89.9,240.1,90,240.6,89.3,240.8z M86,243.4c-0.5-0.2-1.1-0.6-1.5-1
		c-0.3-0.3-0.2-0.4,0.5-0.4c1.1,0,1.8,0.3,2.1,0.9C87.3,243.4,86.8,243.8,86,243.4z"/>
	<path class="st0" d="M78.3,277.6c-2.6,1.2-5.7,2.8-6.1,3.1c-0.4,0.4-0.9,0.4-1.7-0.2c-0.9-0.6-0.8-1,0.1-1c0.7,0,2.5-0.6,4-1.1
		v-3.8c-0.9,0.1-1.7,0.2-2.1,0.1c-0.9-0.1-1-0.4-0.5-0.5c0.6-0.1,1.8-0.4,2.6-0.7c0-2.3-0.1-3.2-0.5-3.6c-0.8,0.1-1.4,0.1-2.1-0.2
		c-0.7-0.2-0.7-0.5,0.2-0.6c0.4,0,2.6-0.6,3.1-0.7c1.4-0.4,1.6-0.4,2.5-0.3c0.9,0.2,1,0.6,0.2,0.9c-0.9,0.3-1.6,0.5-2.8,0.7
		c1,0.3,1,0.6,0.9,1.3c-0.1,0.2-0.2,1.3-0.2,2.1c1-0.2,1.7-0.3,2.1-0.2c0.6,0.1,0.8,0.5,0.1,0.9c-0.4,0.2-1.3,0.4-2.2,0.6v3.6
		c2.5-1,3.6-1.4,3.8-1.2C79.6,276.8,79,277.3,78.3,277.6z M91.4,282c-0.5-0.1-4.8-0.2-6.9,0c-1.8,0.2-4.1,0.5-5.7,0.8
		c-0.7,0.2-1.5,0-2.2-0.4c-0.6-0.4-0.6-0.7,0.9-0.6c0.5,0,2.2-0.1,6.5-0.6l0.1-2.7c-1.6,0.2-2.2,0.1-2.9-0.1
		c-0.5-0.2-0.4-0.4,0.4-0.5c0.7-0.1,1.6-0.2,2.4-0.4l0-2.6c-0.7,0.1-1.5,0.2-2.4,0.3c-0.1,0.3-0.2,0.4-0.4,0.4c-0.4,0-0.6-0.3-1-2.8
		c-0.4-2.8-0.8-3.8-1.2-4.4c-0.6-0.8-0.4-1,1.2-0.5c1.9-0.1,6.6-0.8,8.3-1.2c0.7-0.2,1-0.2,2.6,0.7c1.1,0.6,1,0.9,0.6,1.3
		c-0.4,0.3-0.8,1.1-1,1.8c-0.7,2.8-1,3.7-1.6,4.3c-0.5,0.5-0.7,0.5-0.9,0.2c-0.2-0.3-0.3-0.4-0.6-0.4c-0.6-0.1-1.8,0-2.4,0.1
		l-0.1,2.6c0.7-0.1,1.2-0.2,1.4-0.3c0.7-0.2,1.3-0.2,1.8,0c0.6,0.3,0.6,0.5-0.1,0.8c-0.3,0.1-1.3,0.3-3.1,0.5l-0.1,2.7
		c1.4-0.2,3-0.4,4.9-0.6c1.5-0.2,2.3,0,3.1,0.5C94,281.6,93.9,282.5,91.4,282z M82,271.7c-0.6-0.2-0.5-0.4,0.3-0.4
		c0.3,0,1-0.1,1.7-0.3c0-1.7-0.2-2.5-0.6-2.8c-1.5,0.2-2.2,0.3-2.8,0.3c0.3,1.5,0.7,4.5,0.9,6.1c0.6-0.1,1.6-0.2,2.4-0.3l0.1-2.4
		C83.3,272,82.7,271.9,82,271.7z M88.5,267.7c-0.5-0.1-0.8-0.1-3.9,0.4c1.1,0.4,1.2,0.7,1,1c-0.1,0.1-0.2,1.1-0.2,1.7
		c0.9-0.3,1.8-0.4,2.2-0.2c0.4,0.2,0.4,0.5-0.1,0.6c-0.3,0.1-1.3,0.3-2.2,0.5l-0.1,2.5c1.6-0.2,2.2-0.2,2.5-0.2
		c0.2,0,0.4-0.1,0.8-1.7c0.3-0.9,0.6-3.2,0.6-3.7C89.2,267.9,89.1,267.8,88.5,267.7z"/>
	<path class="st0" d="M8.4,9.6C7.9,9.2,7.3,8.6,6.8,7.8C6.3,7.2,6.5,7.1,7.4,7.2C8.8,7.5,9.8,8.1,10,8.7C10.3,9.7,9.5,10.4,8.4,9.6z
		 M9.4,17c-0.2,1.4-0.7,1.6-1.8-0.5c-0.5-1-0.5-1.4,0.1-1.4c0.5,0,0.8-0.2,1.2-0.8c0.7-1,2.3-2.9,3.3-4.1c0.5-0.6,0.9-0.5,0.5,0.2
		C10.9,13.5,9.5,16.2,9.4,17z M11.3,4.7C10.9,4.4,10.2,3.8,9.5,3C9,2.5,9.1,2.3,10.2,2.4c1.5,0.1,2.5,0.8,2.5,1.3
		C12.7,4.8,12.1,5.2,11.3,4.7z M24.6,7.9c-0.1,1.3-0.7,2.9-1.3,3.4c-0.9,0.8-1.4,0.7-1.5,0.3c-0.2-0.5-0.6-1.2-1-1.6
		c-0.3-0.4-0.2-0.5,0.3-0.4c1.2,0.3,1.5,0.2,1.7-0.5c0.3-1.3,0.5-2.5,0.4-3.8c0-0.9-0.3-1-1.4-0.7c-0.9,0.2-2.4,0.4-3.4,0.6
		c-0.4,0-0.7,0-1.3-0.3c-1.1,0.9-2.5,1.9-3.6,2.4c-0.9,0.4-0.9,0.1-0.3-0.4c1.9-1.5,3.2-2.8,4.1-4.3c0.5-0.9,0.9-1.7,0.9-1.9
		c-0.2-0.7-0.1-1,1.7-0.3c0.9,0.4,1.1,0.8,0.4,1.3c-0.2,0.2-1,1-1.5,1.6c-0.3,0.4-0.7,0.8-1.2,1.3c1.3,0,3.9-0.6,4.9-0.9
		c0.7-0.3,1-0.3,1.9,0.1c1.7,0.7,1.8,1,1.1,1.5C24.9,5.6,24.7,6.1,24.6,7.9z M25.5,17.8c-2.6,0.3-4.8,0.4-6.4,0.2
		c-3.3-0.4-3.9-1.6-4.4-3.8c-0.1-0.5-0.1-2.3-0.1-3.7c0-0.6-0.1-1.7-0.2-2c-0.4-0.8-0.1-1,1.5-0.4c0.8-0.1,1.7-0.4,2-0.6
		C18.6,7,19,7,19.9,7.4c0.9,0.4,0.9,0.5,0.3,0.9c-0.9,0.8-1.2,1.9-1,2.1c0.4,0.5,0.4,0.7-0.1,0.8c-1.6,0.4-2.4,0.5-3.5,0.4
		c0,0.5,0,1.1,0.1,1.9c0.2,2.1,1.1,2.8,3.6,3.1c1.4,0.1,4.3-0.1,5.8-0.4c1.8-0.4,2.3-0.6,3.1-3.5c0.2-0.7,0.6-0.8,0.6,0
		c0.1,1,0.3,2.3,0.6,3C29.8,16.6,28.8,17.4,25.5,17.8z M17.7,8.4c-0.7,0.2-1.4,0.3-2,0.3c0.1,0.4,0.2,0.7,0.1,1
		c-0.1,0.4-0.2,0.8-0.2,1.3c0.7-0.1,1.4-0.2,1.9-0.4c0.4-0.1,0.5-0.4,0.7-1.7C18.3,8.5,18.1,8.3,17.7,8.4z"/>
	<path class="st0" d="M19,44.6c0.8-0.1,1.5-0.2,2.1,0c0.6,0.1,0.7,0.6-0.8,0.8c-0.7,0.1-2.5,0.3-4.4,0.5c1.2,0.7,2.3,1.2,3.2,1.7
		c1.8-0.9,2.5-1.5,2.6-1.9c0.1-0.2,0.2-0.3,1.4,0.2c1.2,0.4,1.2,0.5,0.7,0.6c-0.6,0.1-1.3,0.4-1.6,0.5c-1,0.5-1.5,0.7-2.4,1
		c3.3,1.6,5,1.9,9.2,2.4c0.7,0.1,0.7,0.4,0.1,0.5c-4.9,0.7-5.2,0.6-6.5-0.2c-2.4-1.5-4.5-2.8-6.8-4.3c-0.3,0.2-0.6,0.4-1.2,0.8
		c0.5,0.2,0.6,0.4,0.4,0.7c-0.2,0.3-0.3,0.8-0.3,2.1c0.9-0.4,1.5-0.6,2.4-1c1-0.4,1.3-0.2,0.1,0.6c-1.4,1-2.5,1.8-3,2.4
		c-0.5,0.5-0.8,0.5-1.6-0.2c-0.4-0.4-0.4-0.6,0.2-1c0.6-0.4,0.8-1,0.8-2.9c-3,1.8-4.6,2.4-7.4,2.9c-0.7,0.1-0.7-0.2-0.2-0.3
		c2.5-0.8,5-2.1,6.7-3.2c0.8-0.5,1.2-0.9,1.5-1.2c-1,0.1-2,0.2-2.5,0.3c-0.8,0.1-1.4,0.1-2-0.1c-0.7-0.2-0.7-0.5,0.2-0.5
		c1.1,0,3.8-0.3,7-0.7c-0.3-0.2-0.7-0.6-1.2-1.3c-0.2-0.2,0.1-0.5,0.4-0.4c1.7,0.4,1.9,0.8,1.5,1.6C17.9,44.8,18.5,44.7,19,44.6z
		 M8.6,39.2c-0.6,0.2-0.7,0.1-0.3-0.3c0.5-0.5,0.9-1,1.2-1.4c0.2-0.5,0.4-0.8,0.4-1.3c0-0.4,0.2-0.5,0.7-0.3
		c1.1,0.4,1.1,0.6,0.9,0.8c-0.1,0.1-0.3,0.3-0.6,0.6c0.5-0.1,1.2-0.2,2.3-0.5c0-1.1-0.2-1.8-0.5-2.1c-0.6-0.5-0.3-0.9,0.4-0.7
		c1.5,0.4,1.8,0.7,1.5,1c-0.1,0.1-0.3,0.7-0.3,1.5c1.7-0.4,2.5-0.5,2.8-0.2c0.3,0.2,0.3,0.4-0.2,0.5c-1,0.3-1.7,0.4-2.6,0.6
		c0,0.3,0,0.6-0.1,1c0.5-0.1,1-0.2,1.4-0.2c1.7-0.3,2.3-0.3,2.6-0.1c0.3,0.2,0.2,0.4-0.9,0.6c-0.9,0.1-2,0.3-3.1,0.4
		c0,0.4,0,0.7,0,1c0.5-0.1,1-0.2,1.3-0.3c0.6-0.2,0.8-0.2,1.6,0.1c0.7,0.2,0.8,0.4,0.7,0.6c-0.2,0.2-0.2,0.5-0.2,0.9
		c0,0.8-0.2,1.3-0.5,1.6c-0.3,0.4-0.6,0.4-0.9,0c-0.3-0.3-0.7-0.6-1.2-0.9c-0.3-0.1-0.3-0.2,0.1-0.2c0.8,0.1,1,0,1.1-0.3
		c0.1-0.4,0.1-0.6,0.1-0.9c0-0.2-0.2-0.3-0.9-0.3c-0.3,0-0.7,0.1-1.1,0.2c0,0.8,0,1.5,0,1.8c0,0.8-0.1,1.3-0.1,1.5
		c-0.4,0.7-0.6,0.7-1,0.2c-0.4-0.6-0.4-0.9-0.1-1.5c0.1-0.2,0.1-0.7,0.1-1.6c-0.6,0.1-1.5,0.3-2,0.3c0,0.8-0.1,1.4-0.2,2.1
		c-0.2,0.8-0.4,0.8-0.9,0.5c-0.3-0.2-0.5-0.6-0.3-0.9c0.2-0.4,0.3-1.5,0.1-1.9c-0.3-0.6-0.1-0.8,1.1-0.4c0.7-0.1,1.5-0.2,2.3-0.4
		c0-0.3,0-0.7,0-1.1c-1.7,0.3-3.9,0.7-5,1c-1,0.2-1.4,0.2-2-0.2c-0.6-0.4-0.5-0.5,0.1-0.5c0.9,0,2.9-0.3,6.9-1c0-0.3,0-0.7,0-1
		c-1.7,0.2-2.3,0.2-2.8,0.1C10.1,38.3,9.5,38.8,8.6,39.2z M21,39.6c0.1,1.1,0,1.5-0.2,1.7c-0.3,0.3-0.5,0.3-0.8,0
		c-0.2-0.3-0.4-0.8-0.2-1.2c0.1-0.5,0.1-2.5-0.4-3.1c-0.3-0.4,0-0.7,0.8-0.4c1.1,0.4,1.1,0.5,1,0.9C21,37.8,21,38.9,21,39.6z
		 M25.2,34.6c0.2,0.1,0.3,0.2,0,0.8c-0.1,0.3-0.2,0.7-0.3,2.3c-0.1,1.5-0.1,3.9,0,4.6c0.1,0.7-0.2,1.5-0.8,2
		c-0.3,0.3-0.6,0.2-0.9-0.2c-0.2-0.2-0.6-0.6-1.8-1.3c-0.4-0.3-0.3-0.6,0.6-0.4c1.2,0.3,1.4,0.1,1.5-0.3c0.2-0.7,0.2-4.4,0.1-6
		c-0.1-0.8-0.3-1.2-0.6-1.5c-0.5-0.5-0.2-0.7,0.6-0.6C24.3,34.2,24.9,34.4,25.2,34.6z"/>
	<path class="st0" d="M25.3,73.3c-0.8,2.5-1,2.8-1.4,2.8c-0.6,0-0.7-0.6-0.6-1.8c-2.1,0.3-3.8,0.5-5.2,0.7l-0.3,5.8
		c2-0.2,4.1-0.4,5.9-0.6c-0.1-0.6-0.2-1.4-0.4-1.7c-0.2-0.4,0.1-0.6,0.6-0.5c0.4,0.1,1.3,0.7,1.7,1c0.3,0.2,0.2,0.7,0.1,1
		c-0.1,0.2-0.1,0.9-0.1,1.5c0.1,1.2-0.4,2.5-0.9,2.5c-0.7,0-0.9-0.1-0.9-3.2c-10,1.3-11.2,1.7-13.2,2.6c-0.9,0.4-1.3,0.4-1.7-0.6
		c-0.3-0.5-0.2-0.7,0.5-1.1c0.7-0.5,1.5-2,0.6-3.2c-0.3-0.4-0.2-0.6,0.3-0.5c0.5,0.1,1.2,0.4,1.5,0.8c0.2,0.3,0,1.4-0.6,2.8
		c1.1-0.1,3.1-0.4,5.4-0.7l0.1-5.8c-3.6,0.6-4.8,0.9-5.9,1.4C9.8,77,9.5,77,9.1,76.2c-0.4-0.7-0.3-0.8,0.3-1.3
		c1-0.8,1.4-2.1,0.3-3.1c-0.4-0.5-0.3-0.6,0.4-0.6c0.3,0,0.9,0.2,1.3,0.6c0.4,0.4,0.5,1.3-0.1,3.2c1.2-0.2,3.1-0.4,5.3-0.7
		c0.1-4.9-0.1-6.7-0.7-7.5c-0.5-0.6-0.3-0.9,0.6-0.7c2.5,0.5,2.6,0.8,2.3,1.5c-0.3,0.6-0.5,2.4-0.7,6.5c1.8-0.2,3.7-0.4,5.3-0.6
		c0.3-1.7,0.3-2.1-0.2-2.7c-0.3-0.4,0.2-0.7,0.9-0.5c0.9,0.4,1.3,0.6,1.8,0.9c0.4,0.2,0.2,0.6,0,0.9C25.7,72.5,25.5,72.8,25.3,73.3z
		"/>
	<path class="st0" d="M15.4,103.8c-0.1,1-0.1,2.1,0,2.7c0.1,1.2,0.1,1.9,0,2.2c-0.1,0.8-0.8,0.9-1,0.5c-0.1-0.2-0.1-0.4-0.1-0.8
		c-1.2,0.1-2.5,0.4-4.1,0.8c-0.8,0.2-1.3,0.2-2.3-0.2c-0.6-0.2-0.5-0.4,0.2-0.4c0.7-0.1,2.5-0.3,3.6-0.5c1.5-0.2,2-0.3,2.6-0.2
		c0-0.5,0-1.1,0-1.6c-0.6,0.1-1,0.2-1.7,0.3c-1,0.2-1.8,0.2-2.3,0c-0.6-0.3-0.6-0.4,0-0.4c0.5,0,1.6-0.1,2.2-0.2
		c0.6-0.1,1-0.1,1.8,0c0-0.7-0.1-1.4-0.1-1.8c-0.6,0-1.1,0.1-2.6,0.4c-0.7,0.1-1.7,0.1-2.1-0.1c-0.6-0.3-0.5-0.5,0-0.5
		c0.5,0,1.6-0.1,2.1-0.2c1-0.1,1.5-0.2,2.5,0c-0.1-0.6-0.3-1.3-0.7-1.7c-0.7-0.7-0.1-0.8,0.7-0.6c1.5,0.5,1.7,0.6,1.5,1
		C15.6,102.6,15.5,103.3,15.4,103.8z M24.2,118.3c-0.8-0.7-1.4-1.3-2.3-2.3c-4.8,0.6-9.2,1.5-10.6,1.9c-0.5,0.2-0.7,0.2-1.5-0.4
		c-1.1-0.7-0.7-0.9-0.1-0.9c1,0.1,1.4,0,6.8-0.6v-2.2c-1.1,0.1-2.1,0.2-3,0.3c0.1,0.7-0.6,0.6-0.9,0c-0.6-1.1-1.7-2.6-2-2.8
		c-0.6-0.4-0.2-1,1.2-0.4c1.3,0,3-0.2,4.6-0.4c-0.1-0.5-0.1-0.9-0.4-1.2c-0.3-0.4-0.1-0.6,0.7-0.4c1.3,0.3,1.4,0.5,1.2,0.9
		c-0.1,0.2-0.1,0.4-0.2,0.6c1.7-0.2,3.2-0.5,3.6-0.6c0.7-0.2,1.1-0.1,1.7,0.2c1.9,1,1.9,1.3,1.4,1.5c-0.6,0.3-0.9,0.5-1.7,1.2
		c-0.1,0.1-0.1,0.2,0,0.4c0.1,0.2,0.1,0.3-0.6,0.3c-0.3,0-2.3,0.2-4.5,0.4l-0.1,2.2l4-0.4c-0.2-0.2-0.3-0.3-0.5-0.5
		c-0.5-0.6-0.2-0.6,0.4-0.4c2.5,1,4,2.3,4.1,3.2C25.6,118.9,25,119,24.2,118.3z M16.6,111c-1.7,0.2-3.1,0.4-4.1,0.4
		c0.3,0.6,0.7,1.1,1,2.1c1.2-0.1,2.2-0.2,3.1-0.4V111z M21.2,110.5c-0.4,0-2.1,0.2-3.4,0.3l-0.1,2.2c3.1-0.4,3.3-0.4,3.5-0.7
		c0.3-0.4,0.7-0.9,0.8-1.4C22.1,110.6,21.9,110.5,21.2,110.5z M26.2,107.7c-2.3,0.2-3.7,0.2-5.6-0.2c0,0.6-0.1,1.1-0.3,1.4
		c-0.2,0.4-0.7,0.4-0.8,0.1c-0.3-0.6-0.3-0.8-0.2-1.3c0.1-0.5,0.2-1.4,0.2-4.8c0-0.7-0.2-1.7-0.4-1.9c-0.6-0.7-0.2-0.9,1-0.4
		c1.4,0.6,1.5,0.8,1.2,1.2c-0.1,0.3-0.2,0.5-0.3,0.9c1-0.1,1.8-0.2,2.8-0.5c0.7-0.2,1.7-0.3,2.2-0.2c0.8,0.2,0.7,0.6-0.6,0.8
		c-2.2,0.4-3,0.4-4.5,0.2c-0.1,0.6-0.1,1.4-0.1,2.1c0.7,0,1.4-0.1,2.4-0.4c1-0.2,1.5-0.3,1.8-0.2c0.6,0.2,0.4,0.6-0.8,0.8
		c-1.6,0.2-2.3,0.2-3.5,0c0,0.8-0.1,1.6-0.1,1.9c1.5,0,2.4-0.1,4.2-0.4c1-0.2,2-0.2,2.3,0C27.6,107.2,27.4,107.5,26.2,107.7z"/>
	<path class="st0" d="M14.7,138.2c0.7-0.3,1-0.3,1.7,0.1c0.9,0.4,1,0.6,0.6,0.9c-0.2,0.1-0.6,0.4-0.8,0.7c-0.1,0.1-0.2,0.2,0.1,0.4
		c0.4,0.3,0.3,0.4-0.3,0.4c-1.1,0.2-3.3,0.5-5.8,0.8c-0.6,1.7-2,2.7-4.3,3.8c-0.7,0.3-0.9,0-0.3-0.3c2.6-1.6,3.9-3.8,3.4-5.7
		c-0.1-0.5,0.1-0.7,1.3-0.3C12.2,138.8,14.3,138.4,14.7,138.2z M11.3,142.9c-0.5-0.1-0.5-0.2,0.1-0.3c2.1-0.1,6.2-0.5,7.5-0.7
		c0.9-0.2,1.8-0.2,2.5,0c0.5,0.2,0.5,0.3-0.2,0.5c-0.3,0.1-0.8,0.2-1.7,0.3c0.9,0.4,1,0.6,0.8,1.2c-0.1,0.3-0.2,1.3-0.2,3.1
		c1.4-0.1,2-0.2,2.4-0.3c1.5-0.2,2.4-0.1,3.2,0.5c0.6,0.5,0.2,0.9-0.7,0.8c-0.7-0.1-2.5-0.2-4.9-0.1c0,1.9-0.2,2.9-0.7,4
		c-0.2,0.6-0.6,0.5-0.6,0.1c-0.1-1.1-0.1-2.1-0.1-4c-3.1,0.2-6,0.5-8,0.9c-1.4,0.3-2,0.2-3.1-0.4c-0.4-0.2-0.4-0.3,0.1-0.3
		c0.7,0,1.7,0,5.6-0.4c0-3.6,0-4-0.3-4.5C12.3,143.1,11.8,143,11.3,142.9z M12.5,136c-0.6,0.1-1.2,0.2-1.8,0.2
		c-1.1,0.1-1.6,0.1-2.3,0c-0.5-0.1-0.4-0.4,0-0.4c0.9-0.1,2.5-0.3,4.1-0.6c0-1-0.1-1.6-0.7-2.2c-0.2-0.2,0-0.5,1-0.3
		c1.3,0.2,1.4,0.4,1.2,0.8c-0.2,0.2-0.2,0.6-0.3,1.4c0.5-0.1,0.9-0.2,1.4-0.3c0.7-0.1,1.3-0.1,1.5,0c0.6,0.3,0.5,0.4-0.6,0.6
		c-0.9,0.2-1.7,0.3-2.4,0.4l-0.1,1c1.1-0.2,2-0.3,2.3-0.2c0.6,0.2,0.5,0.4-0.3,0.6c-1,0.2-2.1,0.4-3.8,0.6c-0.6,0.1-1.4,0-2-0.1
		c-0.4-0.1-0.3-0.2,0.1-0.3c1-0.1,1.8-0.2,2.6-0.4L12.5,136z M12.1,140.7l0-1.4c-0.6,0.1-1.6,0.2-1.8,0.2c0,0.4-0.1,1.1-0.2,1.4
		C10.7,140.8,11.4,140.8,12.1,140.7z M14,140.4c0.7-0.1,0.8-0.3,1-1c0.1-0.4,0-0.5-0.6-0.5c-0.3,0-0.7,0.1-1.1,0.1l-0.1,1.4
		C13.5,140.5,13.8,140.4,14,140.4z M14.2,143.1c0.3,0.2,0.3,0.5,0.2,1c0.5,0,1,0,1.7-0.2c0.3-0.1,0.7-0.1,1,0
		c0.5,0.2,0.5,0.4-0.1,0.6c-1,0.2-1.7,0.3-2.6,0.2c0,0.3,0,0.7-0.1,1.3c1.9-0.4,2.4-0.5,2.8-0.4c0.6,0.1,0.7,0.4,0.1,0.6
		c-1.3,0.3-2.2,0.4-3,0.2l-0.1,1.3c1.9-0.2,3.3-0.3,4.4-0.4c0.1-2.6,0-3.7-0.3-4.3C16.5,143,15.2,143.1,14.2,143.1z M28.4,141.5
		c0.8,0.1,0.9,0.4,0.1,0.6c-3.7,0.5-4,0.5-4.7,0.1c-0.9-0.6-1.7-1-2.7-1.6c-1.2,0.7-2.8,1.1-4.5,1.4c-0.7,0.1-0.7-0.2,0-0.4
		c1.4-0.4,2.6-1,3.6-1.5c-1.3-0.8-1.8-1-2.3-1.1c-0.4-0.1-0.3-0.4,0.2-0.4c0.6,0,1.5,0.2,2.9,1c0.4-0.4,0.8-0.7,1-1.1
		c0.2-0.4,0.2-0.5-0.2-0.4c-1.9,0.3-2.2,0.3-2.6,0.1c-0.4-0.2-0.4-0.3,0.1-0.3c1.4-0.1,2.4-0.3,2.7-0.5c0.4-0.1,0.6-0.2,1.2,0.1
		c1.1,0.3,1.2,0.6,0.7,0.9c-0.2,0.1-0.5,0.3-0.8,0.6c-0.4,0.4-0.8,0.8-1.3,1.1C23.7,140.7,25.6,141.2,28.4,141.5z M17.1,138.1
		c-0.5,0.2-0.7,0-0.1-0.3c1.6-0.9,1.8-2.5,1.3-3.5c-0.2-0.3,0.1-0.6,1.2-0.1c0.6-0.1,1.4-0.3,1.8-0.6c0.5-0.4,0.8-0.4,1.2-0.3
		c1.4,0.4,1.4,0.7,0.9,0.9c-0.6,0.3-0.9,0.9-0.8,1.4c0.1,0.4,0.6,0.6,1.7,0.4c1-0.2,1.4-0.2,1.7,0c0.7,0.2,0.7,0.5,0.1,0.6
		c-1.4,0.3-2.6,0.4-3.5,0.2c-1.1-0.2-1.4-0.9-1-2.1c0.1-0.3,0-0.3-0.3-0.2c-0.3,0.1-0.9,0.2-1.5,0.2
		C19.9,136.4,19.2,137.5,17.1,138.1z"/>
	<path class="st0" d="M24.5,183.6c-0.7,0.2-1.8,0.1-2.8-0.2c-3.4-0.7-6.8-1.6-9.5-2.4c-2.3-0.7-3.5-0.8-6,0
		c-0.5,0.2-0.6,0.1-1.2-0.5c-0.5-0.4-0.3-0.6,0.3-0.6c0.6,0,1.6-0.1,2.4-0.2c0.5-0.1,1-0.1,1.6-0.1c-0.1-0.7-0.3-1.5-0.7-2.1
		c-0.4-0.6-0.5-1.7,0.1-2.9c0.2-0.4,0.1-0.5-1-0.2c-0.4,0.1-1.4,0.1-2-0.1c-0.3-0.1-0.3-0.4,0.1-0.4c0.9-0.1,1.6-0.3,2.3-0.8
		c0.4-0.3,0.7-0.3,1.7,0.1c0.8,0.3,1,0.6,0.6,1c-1,1.1-1.2,2.1-0.7,3.2c0.4,0.9,0.4,1.4,0.3,2.2c0.4,0.1,0.7,0.1,1.1,0.2
		c7.4,1.9,12.7,1.9,18.6,1.4c0.7-0.1,0.8,0.2,0.1,0.5C28.2,182.5,26.4,183.1,24.5,183.6z M9.5,170.5c-0.7-0.4-1.7-1-2.3-1.7
		c-0.3-0.3-0.2-0.5,0.5-0.4c2,0.1,3.1,0.8,3,1.7C10.7,170.6,10.1,170.9,9.5,170.5z M18.1,169.9c-0.5,1-0.4,1.1-0.1,1.3
		c0.2,0.1,0.3,0.4-0.3,0.7c-0.6,0.2-2,0.4-3,0.5c0,0.7-0.1,1.4-0.1,2c1.6-0.5,2.3-0.6,2.7-0.5c0.8,0.1,0.6,0.4,0,0.6
		c-1.5,0.4-2,0.5-2.7,0.3c0,0.9,0,1.6,0,2.3c1.7-0.5,2.6-0.6,2.9-0.5c0.7,0.1,0.6,0.4-0.1,0.6c-1.6,0.4-2.2,0.4-2.9,0.2
		c0,1.3,0,2-0.1,2.4c-0.2,0.5-0.6,0.5-0.8,0c-0.4-0.9-0.4-1.4-0.2-2.4c0.1-0.6,0.2-1.9,0.2-6.2c0-1.8,0-2.2-0.4-2.7
		c-0.3-0.4,0-0.6,1.3-0.2c1,0,1.8-0.2,2.4-0.6c0.5-0.3,0.6-0.3,1.4,0c1.2,0.4,1.2,0.7,0.8,1C19,168.8,18.5,169.3,18.1,169.9z
		 M16.6,168.6c-0.4,0-1,0.1-1.7,0.2c0,0.9-0.1,2.1-0.1,3.2c1.8-0.5,1.9-0.6,2.2-1.2c0.2-0.5,0.3-1.3,0.3-1.9
		C17.2,168.6,17.1,168.5,16.6,168.6z M24.5,178.8c-0.8-0.6-1.6-1.2-2.2-1.7c-1.7,1.5-3,2.4-4.5,2.7c-0.7,0.2-0.7-0.1-0.2-0.3
		c1.4-0.7,3-1.8,3.9-2.8c-0.7-0.4-1.4-0.7-2-1c-0.6-0.3-0.5-0.5,0.1-0.4c0.3,0,1.5,0.4,2.5,0.7c0.3-0.5,0.7-1.1,0.8-1.4
		c0.2-0.7,0.2-0.8-0.3-0.8c-0.3,0-1.4,0.2-1.8,0.3c-0.5,0.2-0.9,0.2-1.3,0c-0.5-0.2-0.4-0.3,0.5-0.5c1-0.2,2.7-0.6,3.1-0.8
		c0.4-0.2,0.7-0.2,1.6,0.1c1.1,0.3,1.2,0.6,0.6,0.9c-0.4,0.2-1.2,1.3-1.8,2.2c-0.1,0.1-0.1,0.2-0.2,0.3c2.5,0.9,2.9,1.4,3.2,2.2
		C26.6,179.6,26.2,180.2,24.5,178.8z M24.2,169.7c-0.5,0.6-0.4,0.8-0.2,1c0.6,0.3,0.4,0.6-0.7,0.7c-0.4,0-1.1,0.2-1.6,0.3
		c-0.6,0.1-1.6,0.2-2.2,0.1c-0.4-0.1-0.4-0.3,0.2-0.4c0.7-0.1,1.7-0.3,2-0.4c0.4-0.1,0.8-0.4,1-0.7c0.2-0.5,0.3-0.9,0.3-1.3
		c0-0.4,0-0.6-0.4-0.6c-0.4,0-0.8,0.1-1.3,0.2c-0.5,0.1-0.8,0.1-1.1,0c-0.4-0.2-0.3-0.3,0.2-0.4c1.1-0.2,1.9-0.4,2.4-0.8
		c0.4-0.2,0.7-0.4,1.7,0c1.3,0.4,1.6,0.8,1,1C25.2,168.5,24.8,168.9,24.2,169.7z"/>
	<path class="st0" d="M9.2,211c-0.2-0.2-0.3-0.8-0.3-1.2s0.2-1.5,0.2-1.7c0.2-0.5,0.1-0.6-1-0.1c-0.6,0.3-1.8,0.3-2.8-0.1
		c-0.2-0.1-0.1-0.3,0.1-0.3c1.3,0,2.7-0.6,3.7-1.3c0.4-0.3,0.6-0.3,1.8,0.2c1.2,0.5,1.2,0.7,0.5,1.1c-1.5,1-1.7,2.3-1.1,3.1
		c0.7,1,0.9,1.6,0.7,2.8c0.6,0.1,2.3,0.6,2.9,0.7c4.8,1.5,9.7,2,15.6,1.4c0.4-0.1,0.5,0.4,0.1,0.5c-1.5,0.5-4.2,1.1-5.4,1.4
		c-1,0.2-1.7,0.2-3.1-0.2c-5-1.5-6.8-2-8.4-2.6c-2.3-0.8-3.3-0.8-5.1,0c-0.6,0.3-0.8,0.3-1.6-0.1C5,214.4,5,214,5.3,214
		c1.3-0.2,2.8-0.4,3.5-0.6c0.4-0.1,0.8-0.1,1.2-0.1C10,212.3,9.9,211.9,9.2,211z M11.6,203.1c-0.9-0.5-2.2-1.5-2.7-2
		c-0.2-0.2-0.1-0.3,0.1-0.3c2.8,0.1,3.8,0.6,3.7,1.9C12.7,203.3,12.3,203.5,11.6,203.1z M17.3,208.5c-0.2-0.5-0.7-1-1.1-1.4
		c-0.5-0.4,0-0.7,1.2-0.4c1.6-0.1,3.9-0.6,4.7-1c0.5-0.2,0.8-0.2,1.8,0.3c0.6,0.2,0.6,0.4,0.3,0.7c-1.1,0.9-1.3,1.2-1.1,1.4
		c0.3,0.3,0.2,0.5-0.1,0.6c-0.6,0.1-2.2,0.3-3.5,0.4c0.5,0.4,0.6,0.6,0.1,0.9c-0.1,0.1-0.3,0.2-0.5,0.4c0.8,0.4,0.9,0.6,0.8,1.1
		c-0.1,0.6-0.1,1.2-0.1,1.7c0.1,1.3-0.1,1.6-0.3,1.8c-0.2,0.3-0.4,0.3-0.7-0.1c-0.4-0.4-0.5-1-0.3-1.3c0.2-0.3,0.2-2,0-2.9
		c-1.3,1.2-3.7,2.1-5.1,2.3c-0.3,0-0.4-0.2-0.1-0.3c0.9-0.4,2.2-1,3.1-1.7c1.3-1,1.6-1.3,1.6-1.8C17.8,209.3,17.5,209.1,17.3,208.5z
		 M24.1,203.7c1.4-0.3,1.8-0.3,2.6,0.2c0.8,0.4,0.6,0.9-1.1,0.7c-0.5,0-2.8,0.1-5.3,0.4c-1.4,0.2-3.3,0.5-4.3,0.7
		c-0.9,0.2-1.4,0.2-2.5-0.3c-0.3-0.1-0.2-0.4,0.2-0.4c0.2,0,2.9-0.3,5.9-0.7l0.1-1.4c-1.6,0.2-2.4,0.1-3-0.1c-0.2-0.1-0.2-0.2,0-0.2
		c1.2-0.2,1.6-0.3,3-0.6c0.1-1.7,0-2.1-0.5-2.7c-0.4-0.5-0.2-0.7,1.3-0.3c1.1,0.3,1.2,0.6,0.9,1.1c-0.3,0.4-0.4,0.8-0.4,1.7
		c1.9-0.4,2.3-0.4,2.6-0.2c0.4,0.2,0.4,0.4-0.1,0.6c-0.7,0.2-1.7,0.5-2.6,0.7l-0.1,1.4C22.3,204,23.5,203.9,24.1,203.7z M18.3,208.7
		c1.5-0.2,2.6-0.4,2.9-0.5c0.5-0.2,0.6-0.3,0.7-1c0-0.4-0.1-0.6-0.5-0.5c-0.7,0.1-1.8,0.3-3.4,0.6C18.1,207.7,18.2,208.2,18.3,208.7
		z M24.4,209.3c0-0.4,0.2-0.5,1.2-0.1c1.2,0.4,1.1,0.7,0.4,0.9c-0.2,0.1-0.4,0.2-2.3,1.3c2.1,0.5,2.7,1,2.9,1.8
		c0.1,0.6-0.2,0.8-1.1,0.3c-1.8-0.9-2.5-1.3-4.7-2.3c-0.4-0.2-0.3-0.4,0.3-0.3c0.7,0.1,1.2,0.2,1.8,0.3
		C23.9,210.5,24.4,209.7,24.4,209.3z"/>
	<path class="st0" d="M15.1,242.3c-0.1,0.9-0.2,2.5-0.4,3.5c-0.2,0.9-0.8,1.8-1,1.8c-0.2,0-0.4-0.3-0.7-1.3
		c-0.2-0.6-0.4-0.6-1.1-0.4c-0.9,0.2-1.6,0.3-2.4,0.2c-0.1,1-0.3,1.2-0.5,1.2c-0.3,0-0.7-0.5-0.7-1.5c0.2-3.2-0.2-5.8-0.9-6.6
		c-0.4-0.5-0.2-0.6,0.4-0.5c0.3,0,0.5,0.1,0.7,0.1c0.2,0,0.4,0,0.6-0.1c1.8-2.3,2.7-4.2,2.5-4.5c-0.4-0.8-0.2-1.1,1.4-0.7
		c1.5,0.3,1.4,0.6,0.7,1.1c-0.8,0.6-2.1,1.9-3.8,3.9c1.2-0.2,2.3-0.6,2.8-0.7c0.6-0.2,0.8-0.2,1.9,0.1c1.3,0.5,1.5,0.7,0.9,1.4
		C15.3,239.5,15.2,240.9,15.1,242.3z M11.8,238.7c-1.5,0.3-2.2,0.4-2.6,0.4c0.1,0.5,0.2,1.5,0.3,2.7c0.5-0.1,0.8-0.2,1.1-0.3
		c0.6-0.2,0.9-0.2,1.4-0.2c0.7,0,0.9,0.5,0.2,0.7c-1,0.3-1.9,0.4-2.7,0.3c0.1,1.1,0.1,2.2,0,3.1c1.8-0.4,2.8-0.5,3.3-0.2
		c0.4,0.2,0.6,0.2,0.8-1.4c0.1-1.2,0.2-2.8,0.1-4.5C13.6,238.7,13.2,238.5,11.8,238.7z M26.5,242.6c-0.1,1.2-0.3,3-0.6,4.1
		c-0.3,1.5-1.2,2.8-2.6,3.4c-0.6,0.3-1,0.2-1.2-0.3c-0.2-0.7-1-1.7-1.5-2.1c-0.7-0.6-0.6-0.9,0.7-0.3c1.7,0.7,2.5,0.2,3-1.7
		c0.6-2.1,0.9-4,0.8-5.7c-0.1-1.4-0.3-1.7-1.2-1.7c-1.1,0.1-1.7,0.2-2.6,0.3c-0.8,0.1-1.3,0-2-0.4c-0.9,0.9-2,1.9-3,2.4
		c-0.5,0.3-0.7,0.1-0.3-0.3c1.6-1.6,3.2-3.3,4.1-5c0.9-1.6,1-2.2,0.9-2.4c-0.2-0.9-0.2-1,1.2-0.7c1.6,0.3,1.8,0.6,1.1,1.1
		c-0.3,0.3-0.9,0.9-1.8,2.2c-0.4,0.6-1,1.4-1.8,2.2c0.4,0.2,0.9,0.2,2.1,0c1-0.1,2-0.4,2.3-0.6c0.9-0.4,1.1-0.4,2.4,0.1
		c1.4,0.6,1.5,0.9,0.7,1.7C26.8,239.6,26.6,240.4,26.5,242.6z M19.9,243.3c-0.7-0.8-1.1-1.3-1.5-1.9c-0.4-0.5-0.2-0.6,0.7-0.4
		c1.4,0.3,2,0.8,2.1,1.5C21.4,243.5,20.6,244,19.9,243.3z"/>
	<path class="st0" d="M12.2,270c-0.4,0.5-0.5,1.2-0.3,1.3c0.5,0.4,0.4,0.6-0.3,0.8c-1.8,0.5-2.2,0.5-2.8,0.4
		c0.1,1.3,0.1,1.9-0.5,2.8c1.7-0.7,2-0.7,2.9-0.3c0.7,0.3,0.7,0.4,0.4,1c-0.2,0.2-0.2,1.1-0.1,2.4c0.1,1.5-0.3,2.7-1.2,3.5
		c-0.6,0.6-1,0.6-1.4,0c-0.4-0.5-0.7-0.9-1.4-1.4c-0.4-0.3-0.4-0.5,0.4-0.3c1.2,0.2,1.7,0,1.9-0.9c0.2-1,0.3-2.2,0.1-3.1
		c-0.1-0.6-0.3-0.7-0.9-0.5c-0.6,0.1-0.9,0.4-1.5,0.9c-0.5,0.5-0.8,0.4-1-0.3c-0.1-0.2,0.1-0.4,0.6-0.8c0.6-0.5,0.8-2.8,0.3-3.2
		c-0.3-0.3,0-0.6,0.6-0.4c0.7,0.2,1.3,0.2,2.4-0.4c0.5-0.2,0.7-0.9,0.9-2.3c0-0.4-0.2-0.4-0.8-0.3c-1,0.2-1.5,0.2-1.9,0
		c-0.7-0.3-0.7-0.4,0-0.5c0.9-0.1,2.2-0.5,2.6-0.9c0.5-0.4,0.8-0.5,1.7,0c0.9,0.4,0.9,0.5,0.5,0.9C13.1,268.8,12.3,269.7,12.2,270z
		 M19.4,277.9c-0.4-0.2-1.4-0.8-2.2-1.3c0,1.1,0.1,2.6,0.1,3c0.1,1,0,2.6-0.1,2.9c-0.3,0.7-0.7,0.7-1.2-0.1c-0.3-0.6-0.4-1.4,0-2.5
		c0.1-0.3,0.2-2.4,0.3-3.9c-1,1.5-2.2,2.6-3.5,3.1c-0.8,0.4-0.9,0.2-0.4-0.2c1.1-0.9,2.6-2.6,3.7-4.5c-1.4,0.2-2.6,0.4-3.1,0.3
		c-0.7-0.1-0.7-0.3,0-0.4c0.3,0,2.2-0.5,3.4-0.8c0.1-4.4-0.1-6.9-0.6-7.4c-0.5-0.6-0.2-0.9,1.1-0.4c1.2,0.5,1.3,0.6,1,1.2
		c-0.2,0.5-0.5,2.1-0.7,6.4c1.4-0.5,1.9-0.6,2.3-0.4c0.9,0.2,0.7,0.5-0.3,0.8c-0.5,0.2-1.3,0.4-2.1,0.5c0,0.7,0,1.4,0,2.1
		c1.8-0.1,2.7,0.4,2.9,1.1C20.2,278,20,278.2,19.4,277.9z M14.3,272.8c-0.2-0.2-0.6-0.6-1-1.2c-0.2-0.4,0-0.6,0.5-0.5
		c0.6,0.2,1.4,0.8,1.4,1.2C15.2,272.9,14.7,273.1,14.3,272.8z M19,271.6c-0.6,0.3-0.8,0.2-0.4-0.4c0.5-0.7,0.8-1.2,0.9-1.4
		c0.1-0.6,0.2-0.7,1.1-0.2c0.7,0.4,0.9,0.8,0.3,1C20.6,270.8,19.5,271.3,19,271.6z M27.1,278.3c0,2.1-0.7,3.9-2.5,4.9
		c-0.8,0.5-1,0.4-1.3-0.1c-0.2-0.5-1-1.7-1.4-2c-0.4-0.3-0.2-0.4,0.4-0.2c1.4,0.6,2.2,0.4,2.6-0.4c0.4-0.7,0.8-2.6,0.7-4.3
		c0-0.6-0.4-0.9-1.2-0.9c-1,0-2.7,0.6-3.1,1c-0.6,0.7-0.9,0.7-1-0.2c-0.1-0.2,0.1-0.5,0.7-1c0.7-0.6,1-2.1,0.5-2.7
		c-0.3-0.4-0.1-0.6,0.5-0.6c0.7,0,1.8-0.1,2.2-0.7c0.2-0.4,0.5-1.2,0.7-2.5c0.1-0.3-0.2-0.4-0.9-0.2c-1,0.3-1.9,0.3-2.4,0.1
		c-0.6-0.2-0.6-0.3,0.1-0.4c1.3-0.2,2.3-0.5,3-0.9c0.6-0.3,0.9-0.5,2,0.2c1.2,0.6,1.2,0.8,0.6,1.1c-0.7,0.4-1.5,1.2-1.7,1.7
		c-0.6,1.1-0.6,1.2-0.1,1.4c0.4,0.2,0.4,0.5,0.1,0.6c-1.9,0.4-2.3,0.4-3,0.4c0.5,0.6,0.4,1.5-0.2,2.6c0.7-0.1,1.4-0.3,2-0.4
		c1-0.3,1.3-0.3,2.4,0.2c1.2,0.5,1.2,0.6,0.8,1.2C27.3,276.2,27.1,277.1,27.1,278.3z"/>
	<path class="st0" d="M14.8,312.4c-0.2,0.6-0.2,0.8,0.2,1.2c0.3,0.3,0.2,0.4-0.6,0.5c-1.5,0.2-2.8,0.3-4.7,0.5
		c0.1,0.7-0.2,1.3-0.5,1.3c-0.2,0-0.6-0.4-0.8-1.3c-0.3-1.7-1-3.7-1.6-4.4c-0.4-0.5-0.1-0.9,1.4-0.3c1.5,0,4.2-0.6,4.8-0.9
		c0.6-0.3,0.9-0.2,2.3,0.3c1.5,0.6,1.5,0.7,0.6,1.5C15.3,311.2,15,311.9,14.8,312.4z M12.2,309.8c-1.5,0.3-2.5,0.5-3.3,0.5
		c0.3,1,0.6,2.5,0.7,3.6c3-0.3,3.6-0.7,3.8-1.3c0.2-0.6,0.3-1.3,0.4-2.1C13.8,309.8,13.5,309.6,12.2,309.8z M21.1,303.9
		c-0.2,0.4-0.2,0.6,0.1,0.9c0.3,0.3,0.3,0.6-0.2,0.7c-2,0.4-4.4,0.7-6.1,0.8c0,0.7-0.1,0.9-0.3,0.9c-0.2,0-0.8-0.4-1-1.1
		c-0.7-2.5-0.9-3.1-2-4.3c-0.4-0.5-0.4-0.9,1-0.5c1.4,0.2,5.2-0.3,6.7-0.9c0.8-0.4,1.2-0.3,2.6,0.4c1.5,0.8,1.7,1,0.9,1.5
		C22.4,302.4,21.6,303,21.1,303.9z M18.3,301.5c-1.3,0.2-3.1,0.4-4.3,0.4c0.3,0.9,0.7,2.7,0.9,3.7c3.8-0.6,4.3-0.7,4.4-1.1
		c0.3-0.7,0.4-1.4,0.5-2.3C19.9,301.3,19.8,301.2,18.3,301.5z M26.9,311.3c-0.9,1.1-0.9,1.5-0.2,2c0.4,0.3,0.2,0.6-0.5,0.6
		c-0.5,0-3.1,0.2-5.7,0.4c-0.1,0.6-0.2,1-0.4,1c-0.3,0-0.5-0.4-0.6-1.3c-0.3-2.4-0.8-3.8-1.3-4.7c-0.4-0.7-0.1-0.9,1-0.5
		c2.3,0,5.2-0.5,6.1-0.9c0.5-0.2,1.1-0.1,2,0.4c1.7,0.9,1.7,1,1,1.6C28,310,27.3,310.8,26.9,311.3z M24.2,309.1
		c-1.9,0.2-2.9,0.3-4.3,0.4c0.4,1.1,0.5,2.4,0.5,4.1c3.6-0.4,4-0.6,4.3-1c0.2-0.4,0.4-1.7,0.5-2.8C25.3,309.2,25.1,309,24.2,309.1z"
		/>
</g>
</svg>
