<?xml version="1.0" encoding="utf-8"?>
<!-- Generator: Adobe Illustrator 24.2.0, SVG Export Plug-In . SVG Version: 6.00 Build 0)  -->
<svg version="1.1" id="Layer_1" xmlns="http://www.w3.org/2000/svg" xmlns:xlink="http://www.w3.org/1999/xlink" x="0px" y="0px"
	 viewBox="0 0 1052.7 169.5" style="enable-background:new 0 0 1052.7 169.5;" xml:space="preserve">
<style type="text/css">
	.st0{fill:#06C167;}
	.st1{fill:#142328;}
</style>
<path class="st0" d="M787.6,104.9c0-21-16.8-37.5-37.9-37.5c-20.7-0.3-37.8,16.2-38.2,36.9c-0.3,20.7,16.2,37.8,36.9,38.2
	c0.4,0,0.8,0,1.2,0C770.8,142.5,787.6,126,787.6,104.9 M818.6,43.5v122.9h-31.6v-11.1c-11.3,9.3-25.4,14.3-40,14.2
	c-37.4,0-66.6-28.7-66.6-64.6s29.3-64.6,66.6-64.6c14.6-0.1,28.7,4.9,40,14.2V43.5L818.6,43.5z M923.6,138.5h-23.8
	c-7.2,0-11.9-3.1-11.9-9.7V71.4h35.6V43.5H888v-35h-31.9v35h-24v27.9h24v65.4c0,16.5,11.9,29.6,33.3,29.6h34.2L923.6,138.5z
	 M995.6,169.5c36.5,0,57.1-17.1,57.1-40.7c0-16.8-12.2-29.3-37.7-34.7l-26.9-5.4c-15.7-2.8-20.6-5.7-20.6-11.4c0-7.4,7.5-12,21.4-12
	c15.1,0,26.1,4,29.3,17.6h31.6c-1.7-25.6-20.6-42.7-58.8-42.7c-33,0-56.2,13.4-56.2,39.3c0,17.9,12.8,29.6,40.3,35.3l30.1,6.8
	c11.9,2.3,15.1,5.4,15.1,10.2c0,7.7-9,12.5-23.5,12.5c-18.3,0-28.7-4-32.7-17.6h-31.9C936.8,152.4,956.2,169.5,995.6,169.5 M553,0
	h119.1v28.4h-86.9v40.7h84.6v27.6h-84.6v41.2h86.9v28.4H553V0z"/>
<path class="st1" d="M496.4,66.5V44.2h-8.5c-13.5,0-23.5,6.2-29.5,15.9v-15h-24.2v121.2h24.4V97.4c0-18.8,11.6-30.9,27.6-30.9
	L496.4,66.5z M320.8,94.5c4.4-18.5,19.6-30.9,37.7-30.9c18.1,0,33.4,12.4,37.5,30.9H320.8z M359,42.7c-34.7-0.3-63.1,27.6-63.4,62.3
	c0,0.2,0,0.4,0,0.6c0,36.1,28.5,63.2,65.5,63.2c22.5,0,40.9-9.7,53.2-25.9l-17.7-12.8c-9.2,12.1-21.3,17.8-35.5,17.8
	c-20.2,0.1-37.6-14.5-40.9-34.4h100.4v-7.8C420.6,69.6,394.5,42.7,359,42.7 M219.4,147.9c-23.3,0.2-42.3-18.4-42.6-41.7
	c0-0.1,0-0.2,0-0.3c0-23.5,19.1-42,42.6-42c23.2,0,42,18.8,42,42S242.6,148,219.4,147.9 M152.9,166.3h24.2v-15.2
	c11.7,11.6,27.5,18.1,44,18c36.3,0,64.8-28.3,64.8-63.2c0-35.1-28.5-63.4-64.8-63.4c-16.4-0.1-32.2,6.4-43.8,18V0h-24.4V166.3z
	 M67,146.8c23.5,0,41.6-17.8,41.6-44.2V0H134v166.3h-25.2v-15.5c-11.4,11.6-27.1,18.3-44.8,18.3C27.8,169.1,0,143.2,0,104V0h25.4
	v102.6C25.4,129.4,43.3,146.7,67,146.8"/>
</svg>
