<svg id="Layer_1" data-name="Layer 1" xmlns="http://www.w3.org/2000/svg" viewBox="0 0 141.19 29.16"><defs><style>.cls-1{fill:#c52a62;}</style></defs><path class="cls-1" d="M30.53,0C27.77,0,25,0,22.26.09a1.91,1.91,0,0,0-1.4.74c-1.37,2.11-2.63,4.29-3.95,6.43-1.2,2-2.44,3.91-3.83,6.12L5.7,3.06l.22-.32h7c-1,2-2.78,3.78.11,5.54L18,.14H0l13.22,18.5c.37-.51.57-.75.73-1,2.82-4.6,5.64-9.19,8.43-13.81a1.8,1.8,0,0,1,1.78-1.07c2.35,0,4.71,0,7.07,0,.45,0,.9.08,1.49.13-.24.46-.37.74-.52,1L19.58,25.35a2.7,2.7,0,0,1-3.84.82L28.33,5c-1.75,0-3.15-.41-4.19,1.39-3.79,6.52-7.77,12.94-11.67,19.4-.62,1-1.19,2.12-1.88,3.35,3.35,0,6.47,0,9.58,0a1.42,1.42,0,0,0,.95-.7q7-11.79,14-23.6C36,3.36,36.75,1.86,37.8,0Z"/><path class="cls-1" d="M110.86,13.42a1.09,1.09,0,0,0-1.87-.61A3.77,3.77,0,0,0,108,14c-.82,1.5-1.58,3-2.39,4.55-.25.46-.58.88-1.08,1.62-.15-.84-.25-1.29-.3-1.75-.17-1.47-.27-3-.52-4.4-.08-.52-.45-1.29-.83-1.38a2.1,2.1,0,0,0-1.48.73A9.91,9.91,0,0,0,100,15.29c-.69,1.17-1.32,2.37-2,3.54a14.8,14.8,0,0,1-.94,1.26c-.22-2.95.94-5.56.13-8.15l-.5-.15a1.26,1.26,0,0,0-.21.44c-.28,3.49-.56,7-.78,10.48a1.06,1.06,0,0,0,.57.79c.14.08.58-.22.74-.45.59-.9,1.14-1.83,1.67-2.76.91-1.59,1.78-3.21,2.72-4.78.16-.27.55-.4.83-.6a2.78,2.78,0,0,1,.44.9c.18,1.78.26,3.58.5,5.35.07.51.56,1,.86,1.44.38-.29.9-.51,1.12-.89,1-1.8,1.94-3.67,2.94-5.48a15.88,15.88,0,0,1,1.16-1.57l.35.08c.15.55.34,1.09.45,1.64.34,1.85.59,3.71,1,5.53a2,2,0,0,0,1.15,1.2c.36.11.9-.38,1.59-.7-2.21-1.91-2.13-4.35-2.46-6.66A14,14,0,0,0,110.86,13.42Z"/><path class="cls-1" d="M85.53,18.25c-.36-1.43-.43-2.92-.76-4.36-.11-.5-.59-1.24-1-1.28a2.08,2.08,0,0,0-1.56.78,24,24,0,0,0-1.74,3c-.64,1.17-1.25,2.35-1.88,3.53l-.32-.1a13.43,13.43,0,0,1-.3-1.37c-.2-1.63-.29-3.27-.56-4.88-.2-1.16-1-1.39-1.9-.61a5,5,0,0,0-1,1.19c-.93,1.54-1.8,3.11-2.71,4.66-.22.38-.51.72-1,1.37,0-.91,0-1.42,0-1.93.14-1.63.34-3.25.42-4.89a6.14,6.14,0,0,0-.51-1.74c-.33.46-.48.58-.49.72-.28,3.41-.55,6.83-.78,10.25,0,.33.28.68.44,1l.46.09c.63-1,1.28-2,1.87-3,1-1.69,1.9-3.42,2.89-5.1.18-.3.59-.46.9-.69a3.9,3.9,0,0,1,.43,1c.19,1.74.27,3.5.52,5.24.07.5.56.95.86,1.43.38-.31.88-.54,1.11-.93,1-1.81,2-3.67,3-5.48a15.55,15.55,0,0,1,1.14-1.56l.36.1c.15.55.34,1.1.44,1.67.27,1.57.45,3.16.76,4.73a3,3,0,0,0,.74,1.58,1.6,1.6,0,0,0,1.43.18c.68-.33.3-.87,0-1.41A16.17,16.17,0,0,1,85.53,18.25Z"/><path class="cls-1" d="M133.83,19.46c0-1.75.29-3.49.42-5.24.12-1.53-1.78-3-3.1-2.29a10.54,10.54,0,0,0-3,2.62,10.24,10.24,0,0,0-2.52,7.29,1.75,1.75,0,0,0,2.81,1.5,5.62,5.62,0,0,0,1.16-.84c.88-.79,1.74-1.61,2.67-2.48.27,1.11.5,2.24.84,3.33.18.6.63,1,1.29.57s.41-.74.2-1.31A9.34,9.34,0,0,1,133.83,19.46ZM128.42,22a.85.85,0,0,1-1.39-.78,6.25,6.25,0,0,1,.46-2.66,28.52,28.52,0,0,1,2.64-4.37,2.22,2.22,0,0,1,1.8-.8c.42.1.63,1.09.82,1.46A10.54,10.54,0,0,1,128.42,22Z"/><path class="cls-1" d="M65.32,19.65a18.94,18.94,0,0,1,.38-4.88c.39-1.6-.76-2.2-1.58-2.86a2.32,2.32,0,0,0-2.15.32,18.32,18.32,0,0,0-3,3.32,9.51,9.51,0,0,0-1.89,5.94c.07,2,1.48,2.75,3.17,1.67a9.45,9.45,0,0,0,.94-.73c.88-.75,1.74-1.51,2.58-2.24a30.3,30.3,0,0,0,.94,3.25c.1.28.79.32,1.21.47a4.06,4.06,0,0,0,.15-1.23A19.9,19.9,0,0,1,65.32,19.65ZM59.89,22c-.56.45-1.1.19-1.33-.44a2.58,2.58,0,0,1-.11-1.29A11.91,11.91,0,0,1,61.74,14a2.19,2.19,0,0,1,1.76-.6c.37.1.52,1,.66,1.34C63.86,18,62.13,20.16,59.89,22Z"/><path class="cls-1" d="M57.37,6.49l-6.41,8L50,13.2C48.62,11.46,47.32,9.69,45.9,8c-.28-.34-1-.33-1.49-.48A4.64,4.64,0,0,0,44.82,9c1.46,2,3,4,4.48,6a3.89,3.89,0,0,1,.64,3.17c-.26,1.7-.42,3.41-.55,5.12,0,.28.39.58.59.87.25-.25.67-.48.72-.77A23.68,23.68,0,0,0,51.1,20a9.79,9.79,0,0,1,2.59-6.62c1.39-1.53,2.57-3.26,3.81-4.93A1.19,1.19,0,0,0,57.37,6.49Z"/><path class="cls-1" d="M118.76,22.38c-1,.18-1.52-.48-1.89-1.31s0-1.32.66-1.81c1.71-1.32,3.53-2.53,4.52-4.55.58-1.19.46-2.49-.2-3s-1.94-.32-3,.5a1.94,1.94,0,0,0-.27.23,10.72,10.72,0,0,0-3.21,8.47A3.13,3.13,0,0,0,118.08,24c2,.27,5-2.1,5.32-4.43a33.58,33.58,0,0,1-2.64,2.12A5.76,5.76,0,0,1,118.76,22.38ZM119.91,13a1,1,0,0,1,1,0,1.1,1.1,0,0,1,.26.94,2,2,0,0,1-.53,1c-1.08,1.11-2.21,2.17-3.32,3.25l-.33-.29A7.67,7.67,0,0,1,119.91,13Z"/><path class="cls-1" d="M141.19,4.83l-.64-.17a14.2,14.2,0,0,0-.91,2.53c-.54,3.19-1.08,6.38-1.4,9.58a57.91,57.91,0,0,0-.07,6.59c0,.31.37.61.57.92.26-.3.54-.58.77-.9.07-.11,0-.31,0-.47a51.34,51.34,0,0,1,1.53-15.66A13.82,13.82,0,0,0,141.19,4.83Z"/><path class="cls-1" d="M91.49,12.44c-.29.35-.77.67-.83,1.06-.43,2.67-.76,5.36-1.12,8l.1,0a13.19,13.19,0,0,0,.12,1.9c.06.26.45.45.69.67l.59-.74s0-.08,0-.12a37.35,37.35,0,0,1,.94-9.6C92.06,13.3,91.67,12.85,91.49,12.44Z"/><path class="cls-1" d="M92.57,5.52c-.37.2-.59.65-1,1.12l1,1.59,1-1.31a.2.2,0,0,0,0-.11c0-.41.13-.9-.06-1.19A1.1,1.1,0,0,0,92.57,5.52Z"/></svg>